<svg width="214" height="281" viewBox="0 0 214 281" fill="none" xmlns="http://www.w3.org/2000/svg">
	<path d="M88.4912 278.992L58.5191 279.515L28.5469 280.038L57.225 238.196L87.0092 194.089L87.7698 237.663C103.933 237.381 117.425 233.573 128.246 226.238C139.064 218.777 147.155 208.236 152.519 194.617C157.881 180.871 160.396 164.494 160.064 145.488L159.813 131.138C159.557 116.469 157.74 103.549 154.363 92.3796C150.985 81.21 146.111 71.8528 139.741 64.3082C133.499 56.7613 125.825 51.0896 116.72 47.293C107.615 43.4964 97.2075 41.7003 85.4986 41.9047L23.2635 42.991L22.5387 1.47076L84.7739 0.384444C103.355 0.0601036 120.337 2.88982 135.718 8.8736C151.227 14.8552 164.684 23.6159 176.089 35.1558C187.618 46.5659 196.515 60.3187 202.78 76.4142C209.171 92.5075 212.542 110.567 212.892 130.594L213.136 144.562C213.483 164.461 210.745 182.627 204.921 199.062C199.222 215.366 190.81 229.421 179.685 241.226C168.688 253.03 155.481 262.192 140.063 268.713C124.645 275.235 107.454 278.661 88.4912 278.992ZM53.0836 0.9376L54.9022 105.127L55.8116 157.222L56.2662 183.27L56.7209 194.089L67.5 194.089L56.7209 209.317L5.44738 280.442L0.584614 1.85397L53.0836 0.9376Z" fill="url(#paint0_angular_485_914)" />
	<defs>
		<radialGradient id="paint0_angular_485_914" cx="0" cy="0" r="1" gradientUnits="userSpaceOnUse" gradientTransform="translate(108.014 139.315) rotate(126.132) scale(174.745 131.721)">
			<stop offset="0.0139996" stop-color="#11405A" />
			<stop offset="0.439" stop-color="#C1D7E2" />
			<stop offset="0.794" stop-color="#1B4861" />
		</radialGradient>
	</defs>
</svg>
