<svg width="135" height="83" viewBox="0 0 135 83" fill="none" xmlns="http://www.w3.org/2000/svg">
<path d="M101.779 65.3792L104.53 57.9544V38.4377H118.072V54.348L108.762 65.3792H101.779ZM114.052 77.2589L129.71 59.0151V26.5579H92.8919V55.4087L83.7931 77.2589H114.052ZM45.4937 65.3792L48.6677 57.9544V38.4377H62.21V54.348L52.8997 65.3792H45.4937ZM58.1897 77.2589L73.848 59.0151V26.5579H37.0298V55.4087L27.931 77.2589H58.1897ZM20.1019 82.5624L0 60.7122L11.2147 33.5585V0.677124H57.3433L67.0768 10.4355V0.677124H113.205L135 21.2545V60.9243L116.379 82.5624H75.964L68.558 73.2283L60.5172 82.5624H20.1019Z" fill="#4E4E4E" fill-opacity="0.5"/>
</svg>
