<svg width="135" height="82" viewBox="0 0 135 82" fill="none" xmlns="http://www.w3.org/2000/svg">
<path d="M33.221 64.5376L30.4702 57.1317V37.6646H16.9279V53.5345L26.2382 64.5376H33.221ZM20.9483 76.3871L5.28997 58.1897V25.815H42.1081V54.5925L51.2069 76.3871H20.9483ZM89.5063 64.5376L86.3323 57.1317V37.6646H72.79V53.5345L82.1003 64.5376H89.5063ZM76.8103 76.3871L61.152 58.1897V25.815H97.9702V54.5925L107.069 76.3871H76.8103ZM114.898 81.6771L135 59.8824L123.785 32.7978V0H77.6567L67.9232 9.73354V0H21.7947L0 20.5251V60.094L18.6207 81.6771H59.036L66.442 72.3668L74.4828 81.6771H114.898Z" fill="#4E4E4E" fill-opacity="0.5"/>
</svg>
