<svg width="110" height="1435" viewBox="0 0 110 1435" fill="none" xmlns="http://www.w3.org/2000/svg">
<path
    d="M56.0004 1424.17C53.0548 1424.17 50.667 1426.55 50.667 1429.5C50.667 1432.45 53.0548 1434.83 56.0004 1434.83C58.9459 1434.83 61.3337 1432.45 61.3337 1429.5C61.3337 1426.55 58.9459 1424.17 56.0004 1424.17ZM56.0004 454L57.0004 454L56.0004 454ZM55.0004 454L55.0004 1429.5L57.0004 1429.5L57.0004 454L55.0004 454ZM55.2932 114.207C61.5615 120.475 89.5551 148.732 101.969 175.36C108.194 188.714 110.327 201.283 104.379 210.48C98.4275 219.683 84.0703 226 56.0004 226L56.0004 228C84.1802 228 99.5104 221.692 106.059 211.566C112.611 201.436 110.056 187.974 103.782 174.515C91.1955 147.518 62.9392 119.025 56.7075 112.793L55.2932 114.207ZM56.0004 226C27.8265 226 12.2106 231.993 5.26564 241.691C-1.70716 251.429 0.371792 264.439 6.33989 277.601C18.303 303.982 46.569 332.483 55.2933 341.207L56.7075 339.793C47.9321 331.017 19.9483 302.768 8.16137 276.775C2.25446 263.748 0.583362 251.665 6.89173 242.856C13.2279 234.007 27.9243 228 56.0004 228L56.0004 226ZM56.0003 2.31213e-06C55.0003 2.35584e-06 55.0003 0.000134298 55.0003 0.000397831C55.0003 0.000661364 55.0003 0.00105649 55.0003 0.00158285C55.0003 0.00210922 55.0003 0.00276683 55.0003 0.00355533C55.0003 0.00434382 55.0003 0.00526321 55.0003 0.00631314C55.0003 0.00736307 55.0003 0.00854354 55.0003 0.0098542C55.0003 0.0111649 55.0003 0.0126057 55.0003 0.0141764C55.0003 0.0157471 55.0003 0.0174476 55.0003 0.0192777C55.0003 0.0211077 55.0003 0.0230672 55.0003 0.0251558C55.0003 0.0272445 55.0003 0.0294623 55.0003 0.0318089C55.0003 0.0341554 55.0003 0.0366308 55.0003 0.0392346C55.0003 0.0418384 55.0003 0.0445707 55.0003 0.047431C55.0003 0.0502913 55.0003 0.0532798 55.0003 0.0563959C55.0003 0.0595121 55.0003 0.062756 55.0003 0.0661273C55.0003 0.0694986 55.0003 0.0729973 55.0003 0.076623C55.0003 0.0802487 55.0003 0.0840014 55.0003 0.0878809C55.0003 0.0917603 55.0003 0.0957664 55.0003 0.0998989C55.0003 0.104031 55.0003 0.10829 55.0003 0.112675C55.0003 0.11706 55.0003 0.121571 55.0003 0.126207C55.0003 0.130843 55.0003 0.135605 55.0003 0.140493C55.0003 0.14538 55.0003 0.150393 55.0003 0.15553C55.0003 0.160668 55.0003 0.16593 55.0003 0.171317C55.0003 0.176705 55.0003 0.182216 55.0003 0.187852C55.0003 0.193488 55.0003 0.199248 55.0003 0.205132C55.0003 0.211016 55.0003 0.217024 55.0003 0.223156C55.0003 0.229287 55.0003 0.235542 55.0003 0.24192C55.0003 0.248298 55.0003 0.2548 55.0003 0.261424C55.0003 0.268048 55.0003 0.274795 55.0003 0.281665C55.0003 0.288534 55.0003 0.295526 55.0003 0.30264C55.0003 0.309754 55.0003 0.316991 55.0003 0.324349C55.0003 0.331707 55.0003 0.339186 55.0003 0.346788C55.0003 0.354389 55.0003 0.362112 55.0003 0.369955C55.0003 0.377799 55.0003 0.385764 55.0003 0.39385C55.0003 0.401935 55.0003 0.410142 55.0003 0.418468C55.0003 0.426795 55.0003 0.435242 55.0003 0.443809C55.0003 0.452376 55.0003 0.461063 55.0003 0.46987C55.0003 0.478677 55.0003 0.487604 55.0003 0.49665C55.0003 0.505695 55.0003 0.514861 55.0003 0.524145C55.0003 0.533429 55.0003 0.542832 55.0003 0.552354C55.0003 0.561876 55.0003 0.571516 55.0003 0.581275C55.0003 0.591033 55.0003 0.60091 55.0003 0.610905C55.0003 0.6209 55.0003 0.631013 55.0003 0.641243C55.0003 0.651474 55.0003 0.661822 55.0003 0.672287C55.0003 0.682752 55.0003 0.693335 55.0003 0.704034C55.0003 0.714733 55.0003 0.72555 55.0003 0.736482C55.0003 0.747415 55.0003 0.758464 55.0003 0.76963C55.0003 0.780795 55.0003 0.792077 55.0003 0.803474C55.0003 0.814872 55.0003 0.826385 55.0003 0.838014C55.0003 0.849643 55.0003 0.861387 55.0003 0.873246C55.0003 0.885106 55.0003 0.89708 55.0003 0.909169C55.0003 0.921259 55.0003 0.933463 55.0003 0.945781C55.0003 0.9581 55.0003 0.970533 55.0003 0.98308C55.0003 0.995627 55.0003 1.00829 55.0003 1.02106C55.0003 1.03384 55.0003 1.04673 55.0003 1.05973C55.0003 1.07273 55.0003 1.08584 55.0003 1.09907C55.0003 1.1123 55.0003 1.12564 55.0003 1.1391C55.0003 1.15255 55.0003 1.16612 55.0003 1.1798C55.0003 1.19348 55.0003 1.20727 55.0003 1.22117C55.0003 1.23507 55.0003 1.24909 55.0003 1.26322C55.0003 1.27734 55.0003 1.29158 55.0003 1.30593C55.0003 1.32028 55.0003 1.33474 55.0003 1.34931C55.0003 1.36389 55.0003 1.37857 55.0003 1.39336C55.0003 1.40816 55.0003 1.42306 55.0003 1.43807C55.0003 1.45309 55.0003 1.46821 55.0003 1.48345C55.0003 1.49868 55.0003 1.51403 55.0003 1.52948C55.0003 1.54493 55.0003 1.5605 55.0003 1.57617C55.0003 1.59184 55.0003 1.60762 55.0003 1.62351C55.0003 1.63941 55.0003 1.6554 55.0003 1.67151C55.0003 1.68762 55.0003 1.70384 55.0003 1.72016C55.0003 1.73649 55.0003 1.75292 55.0003 1.76946C55.0003 1.786 55.0003 1.80265 55.0003 1.8194C55.0003 1.83616 55.0003 1.85302 55.0003 1.86999C55.0003 1.88696 55.0003 1.90404 55.0003 1.92122C55.0003 1.9384 55.0003 1.9557 55.0003 1.97309C55.0003 1.99049 55.0003 2.00799 55.0003 2.0256C55.0003 2.04321 55.0003 2.06093 55.0003 2.07875C55.0003 2.09657 55.0003 2.11449 55.0003 2.13253C55.0003 2.15056 55.0003 2.1687 55.0003 2.18694C55.0003 2.20518 55.0003 2.22353 55.0003 2.24198C55.0003 2.26043 55.0003 2.27899 55.0003 2.29765C55.0003 2.31631 55.0003 2.33507 55.0003 2.35394C55.0003 2.37281 55.0003 2.39179 55.0003 2.41086C55.0003 2.42994 55.0003 2.44912 55.0003 2.4684C55.0003 2.48768 55.0003 2.50707 55.0003 2.52656C55.0003 2.54605 55.0003 2.56564 55.0003 2.58534C55.0003 2.60503 55.0003 2.62483 55.0003 2.64473C55.0003 2.66463 55.0003 2.68463 55.0003 2.70473C55.0003 2.72483 55.0003 2.74504 55.0003 2.76535C55.0003 2.78565 55.0003 2.80606 55.0003 2.82657C55.0003 2.84708 55.0003 2.86769 55.0003 2.8884C55.0003 2.90911 55.0003 2.92992 55.0003 2.95084C55.0003 2.97175 55.0003 2.99276 55.0003 3.01387C55.0003 3.03499 55.0003 3.0562 55.0003 3.07751C55.0003 3.09882 55.0003 3.12024 55.0003 3.14175C55.0003 3.16326 55.0003 3.18487 55.0003 3.20658C55.0003 3.22829 55.0003 3.2501 55.0003 3.27201C55.0003 3.29392 55.0003 3.31592 55.0003 3.33803C55.0003 3.36013 55.0003 3.38233 55.0003 3.40464C55.0003 3.42694 55.0003 3.44934 55.0003 3.47183C55.0003 3.49433 55.0003 3.51692 55.0003 3.53961C55.0003 3.56231 55.0003 3.58509 55.0003 3.60798C55.0003 3.63087 55.0003 3.65385 55.0003 3.67693C55.0003 3.70001 55.0003 3.72318 55.0003 3.74645C55.0003 3.76973 55.0003 3.79309 55.0003 3.81656C55.0003 3.84002 55.0003 3.86358 55.0003 3.88724C55.0003 3.91089 55.0003 3.93464 55.0003 3.95849C55.0003 3.98233 55.0003 4.00628 55.0003 4.03031C55.0003 4.05435 55.0003 4.07848 55.0003 4.1027C55.0003 4.12693 55.0003 4.15125 55.0003 4.17566C55.0003 4.20008 55.0003 4.22458 55.0003 4.24919C55.0003 4.27379 55.0003 4.29848 55.0003 4.32327C55.0003 4.34806 55.0003 4.37294 55.0003 4.39792C55.0003 4.42289 55.0003 4.44796 55.0003 4.47312C55.0003 4.49828 55.0003 4.52354 55.0003 4.54888C55.0003 4.57423 55.0003 4.59967 55.0003 4.6252C55.0003 4.65073 55.0003 4.67635 55.0003 4.70207C55.0003 4.72778 55.0003 4.75359 55.0003 4.77948C55.0003 4.80538 55.0003 4.83137 55.0003 4.85745C55.0003 4.88353 55.0003 4.9097 55.0003 4.93596C55.0003 4.96222 55.0003 4.98857 55.0003 5.01501C55.0003 5.04146 55.0003 5.06799 55.0003 5.09461C55.0003 5.12123 55.0003 5.14794 55.0003 5.17475C55.0003 5.20155 55.0003 5.22844 55.0003 5.25542C55.0003 5.2824 55.0003 5.30947 55.0003 5.33663C55.0003 5.36379 55.0003 5.39103 55.0003 5.41837C55.0003 5.4457 55.0003 5.47313 55.0003 5.50064C55.0003 5.52815 55.0003 5.55575 55.0003 5.58344C55.0003 5.61113 55.0003 5.63891 55.0003 5.66677C55.0003 5.69463 55.0003 5.72258 55.0003 5.75062C55.0003 5.77866 55.0003 5.80679 55.0003 5.835C55.0003 5.86321 55.0003 5.89151 55.0003 5.91989C55.0003 5.94828 55.0003 5.97675 55.0003 6.00531C55.0003 6.03387 55.0003 6.06251 55.0003 6.09124C55.0003 6.11997 55.0003 6.14878 55.0003 6.17768C55.0003 6.20659 55.0003 6.23557 55.0003 6.26464C55.0003 6.29371 55.0003 6.32287 55.0003 6.35211C55.0003 6.38135 55.0003 6.41067 55.0003 6.44008C55.0003 6.46949 55.0003 6.49899 55.0003 6.52856C55.0003 6.55814 55.0003 6.5878 55.0003 6.61755C55.0003 6.64729 55.0003 6.67712 55.0003 6.70704C55.0003 6.73695 55.0003 6.76694 55.0003 6.79702C55.0003 6.8271 55.0003 6.85726 55.0003 6.88751C55.0003 6.91775 55.0003 6.94808 55.0003 6.97848C55.0003 7.00889 55.0003 7.03938 55.0003 7.06996C55.0003 7.10053 55.0003 7.13118 55.0003 7.16192C55.0003 7.19265 55.0003 7.22347 55.0003 7.25437C55.0003 7.28527 55.0003 7.31625 55.0003 7.34731C55.0003 7.37837 55.0003 7.40951 55.0003 7.44073C55.0003 7.47195 55.0003 7.50326 55.0003 7.53464C55.0003 7.56602 55.0003 7.59748 55.0003 7.62903C55.0003 7.66057 55.0003 7.69219 55.0003 7.72389C55.0003 7.75559 55.0003 7.78737 55.0003 7.81923C55.0003 7.85109 55.0003 7.88303 55.0003 7.91505C55.0003 7.94707 55.0003 7.97916 55.0003 8.01134C55.0003 8.04351 55.0003 8.07577 55.0003 8.1081C55.0003 8.14043 55.0003 8.17284 55.0003 8.20532C55.0003 8.23781 55.0003 8.27037 55.0003 8.30301C55.0003 8.33566 55.0003 8.36838 55.0003 8.40117C55.0003 8.43397 55.0003 8.46684 55.0003 8.49979C55.0003 8.53274 55.0003 8.56576 55.0003 8.59887C55.0003 8.63197 55.0003 8.66515 55.0003 8.6984C55.0003 8.73166 55.0003 8.76499 55.0003 8.79839C55.0003 8.8318 55.0003 8.86528 55.0003 8.89883C55.0003 8.93239 55.0003 8.96602 55.0003 8.99973C55.0003 9.03344 55.0003 9.06722 55.0003 9.10107C55.0003 9.13493 55.0003 9.16886 55.0003 9.20286C55.0003 9.23687 55.0003 9.27095 55.0003 9.3051C55.0003 9.33925 55.0003 9.37348 55.0003 9.40778C55.0003 9.44208 55.0003 9.47645 55.0003 9.5109C55.0003 9.54534 55.0003 9.57986 55.0003 9.61445C55.0003 9.64905 55.0003 9.68371 55.0003 9.71845C55.0003 9.75319 55.0003 9.788 55.0003 9.82288C55.0003 9.85776 55.0003 9.89271 55.0003 9.92774C55.0003 9.96276 55.0003 9.99786 55.0003 10.033C55.0003 10.0682 55.0003 10.1034 55.0003 10.1387C55.0003 10.1741 55.0003 10.2094 55.0003 10.2449C55.0003 10.2803 55.0003 10.3159 55.0003 10.3515C55.0003 10.3871 55.0003 10.4227 55.0003 10.4585C55.0003 10.4942 55.0003 10.53 55.0003 10.5659C55.0003 10.6017 55.0003 10.6377 55.0003 10.6737C55.0003 10.7097 55.0003 10.7458 55.0003 10.7819C55.0003 10.8181 55.0003 10.8543 55.0003 10.8906C55.0003 10.9269 55.0003 10.9632 55.0003 10.9997C55.0003 11.0361 55.0003 11.0726 55.0003 11.1091C55.0003 11.1457 55.0003 11.1823 55.0003 11.219C55.0003 11.2557 55.0003 11.2925 55.0003 11.3293C55.0003 11.3661 55.0003 11.403 55.0003 11.44C55.0003 11.477 55.0003 11.514 55.0003 11.5511C55.0003 11.5882 55.0003 11.6254 55.0003 11.6626C55.0003 11.6998 55.0003 11.7371 55.0003 11.7745C55.0003 11.8118 55.0003 11.8493 55.0003 11.8868C55.0003 11.9242 55.0003 11.9618 55.0003 11.9994C55.0003 12.0371 55.0003 12.0747 55.0003 12.1125C55.0003 12.1502 55.0003 12.1881 55.0003 12.2259C55.0003 12.2638 55.0003 12.3018 55.0003 12.3398C55.0003 12.3778 55.0003 12.4159 55.0003 12.454C55.0003 12.4921 55.0003 12.5303 55.0003 12.5686C55.0003 12.6069 55.0003 12.6452 55.0003 12.6836C55.0003 12.722 55.0003 12.7604 55.0003 12.799C55.0003 12.8375 55.0003 12.8761 55.0003 12.9147C55.0003 12.9533 55.0003 12.992 55.0003 13.0308C55.0003 13.0696 55.0003 13.1084 55.0003 13.1473C55.0003 13.1862 55.0003 13.2251 55.0003 13.2641C55.0003 13.3032 55.0003 13.3422 55.0003 13.3814C55.0003 13.4205 55.0003 13.4597 55.0003 13.4989C55.0003 13.5382 55.0003 13.5775 55.0003 13.6169C55.0003 13.6563 55.0003 13.6957 55.0003 13.7352C55.0003 13.7747 55.0003 13.8142 55.0003 13.8539C55.0003 13.8935 55.0003 13.9332 55.0003 13.9729C55.0003 14.0126 55.0003 14.0524 55.0003 14.0923C55.0003 14.1321 55.0003 14.172 55.0003 14.212C55.0003 14.252 55.0003 14.292 55.0003 14.3321C55.0003 14.3722 55.0003 14.4123 55.0003 14.4525C55.0003 14.4927 55.0003 14.533 55.0003 14.5733C55.0003 14.6136 55.0003 14.654 55.0003 14.6944C55.0003 14.7348 55.0003 14.7753 55.0003 14.8159C55.0003 14.8564 55.0003 14.897 55.0003 14.9377C55.0003 14.9783 55.0003 15.019 55.0003 15.0598C55.0003 15.1006 55.0003 15.1414 55.0003 15.1823C55.0003 15.2231 55.0003 15.2641 55.0003 15.3051C55.0003 15.3461 55.0003 15.3871 55.0003 15.4282C55.0003 15.4693 55.0003 15.5105 55.0003 15.5517C55.0003 15.5929 55.0003 15.6342 55.0003 15.6755C55.0003 15.7168 55.0003 15.7582 55.0003 15.7996C55.0003 15.841 55.0003 15.8825 55.0003 15.924C55.0003 15.9656 55.0003 16.0072 55.0003 16.0488C55.0003 16.0904 55.0003 16.1321 55.0003 16.1739C55.0003 16.2156 55.0003 16.2574 55.0003 16.2993C55.0003 16.3411 55.0003 16.383 55.0003 16.425C55.0003 16.4669 55.0003 16.509 55.0003 16.551C55.0003 16.5931 55.0003 16.6352 55.0003 16.6774C55.0003 16.7195 55.0003 16.7617 55.0003 16.804C55.0003 16.8463 55.0003 16.8886 55.0003 16.931C55.0003 16.9733 55.0003 17.0157 55.0003 17.0582C55.0003 17.1007 55.0003 17.1432 55.0003 17.1858C55.0003 17.2283 55.0003 17.271 55.0003 17.3136C55.0003 17.3563 55.0003 17.399 55.0003 17.4418C55.0003 17.4845 55.0003 17.5274 55.0003 17.5702C55.0003 17.6131 55.0003 17.656 55.0003 17.699C55.0003 17.7419 55.0003 17.7849 55.0003 17.828C55.0003 17.8711 55.0003 17.9142 55.0003 17.9573C55.0003 18.0005 55.0003 18.0437 55.0003 18.0869C55.0003 18.1302 55.0003 18.1735 55.0003 18.2168C55.0003 18.2602 55.0003 18.3036 55.0003 18.347C55.0003 18.3905 55.0003 18.4339 55.0003 18.4775C55.0003 18.521 55.0003 18.5646 55.0003 18.6082C55.0003 18.6518 55.0003 18.6955 55.0003 18.7392C55.0003 18.783 55.0003 18.8267 55.0003 18.8705C55.0003 18.9143 55.0003 18.9582 55.0003 19.0021C55.0003 19.046 55.0003 19.0899 55.0003 19.1339C55.0003 19.1779 55.0003 19.2219 55.0003 19.266C55.0003 19.3101 55.0003 19.3542 55.0003 19.3984C55.0003 19.4426 55.0003 19.4868 55.0003 19.531C55.0003 19.5753 55.0003 19.6196 55.0003 19.6639C55.0003 19.7083 55.0003 19.7526 55.0003 19.7971C55.0003 19.8415 55.0003 19.886 55.0003 19.9305C55.0003 19.975 55.0003 20.0196 55.0003 20.0642C55.0003 20.1088 55.0003 20.1534 55.0003 20.1981C55.0003 20.2428 55.0003 20.2875 55.0003 20.3323C55.0003 20.377 55.0003 20.4218 55.0003 20.4667C55.0003 20.5115 55.0003 20.5564 55.0003 20.6013C55.0003 20.6463 55.0003 20.6912 55.0003 20.7363C55.0003 20.7813 55.0003 20.8263 55.0003 20.8714C55.0003 20.9165 55.0003 20.9616 55.0003 21.0068C55.0003 21.052 55.0003 21.0972 55.0003 21.1425C55.0003 21.1877 55.0003 21.233 55.0003 21.2783C55.0003 21.3237 55.0003 21.369 55.0003 21.4144C55.0003 21.4599 55.0003 21.5053 55.0003 21.5508C55.0003 21.5963 55.0003 21.6418 55.0003 21.6874C55.0003 21.7329 55.0003 21.7785 55.0003 21.8242C55.0003 21.8698 55.0003 21.9155 55.0003 21.9612C55.0003 22.0069 55.0003 22.0527 55.0003 22.0984C55.0003 22.1442 55.0003 22.1901 55.0003 22.2359C55.0003 22.2818 55.0003 22.3277 55.0003 22.3736C55.0003 22.4195 55.0003 22.4655 55.0003 22.5115C55.0003 22.5575 55.0003 22.6036 55.0003 22.6496C55.0003 22.6957 55.0003 22.7418 55.0003 22.788C55.0003 22.8341 55.0003 22.8803 55.0003 22.9265C55.0003 22.9728 55.0003 23.019 55.0003 23.0653C55.0003 23.1116 55.0003 23.1579 55.0003 23.2043C55.0003 23.2506 55.0003 23.297 55.0003 23.3435C55.0003 23.3899 55.0003 23.4363 55.0003 23.4828C55.0003 23.5293 55.0003 23.5758 55.0003 23.6224C55.0003 23.669 55.0003 23.7156 55.0003 23.7622C55.0003 23.8088 55.0003 23.8555 55.0003 23.9022C55.0003 23.9489 55.0003 23.9956 55.0003 24.0423C55.0003 24.0891 55.0003 24.1359 55.0003 24.1827C55.0003 24.2295 55.0003 24.2764 55.0003 24.3233C55.0003 24.3701 55.0003 24.417 55.0003 24.464C55.0003 24.5109 55.0003 24.5579 55.0003 24.6049C55.0003 24.6519 55.0003 24.699 55.0003 24.746C55.0003 24.7931 55.0003 24.8402 55.0003 24.8873C55.0003 24.9345 55.0003 24.9816 55.0003 25.0288C55.0003 25.076 55.0003 25.1232 55.0003 25.1705C55.0003 25.2177 55.0003 25.265 55.0003 25.3123C55.0003 25.3596 55.0003 25.4069 55.0003 25.4543C55.0003 25.5017 55.0003 25.549 55.0003 25.5965C55.0003 25.6439 55.0003 25.6913 55.0003 25.7388C55.0003 25.7863 55.0003 25.8338 55.0003 25.8813C55.0003 25.9288 55.0003 25.9764 55.0003 26.024C55.0003 26.0716 55.0003 26.1192 55.0003 26.1668C55.0003 26.2145 55.0003 26.2621 55.0003 26.3098C55.0003 26.3575 55.0003 26.4052 55.0003 26.453C55.0003 26.5007 55.0003 26.5485 55.0003 26.5963C55.0003 26.6441 55.0003 26.6919 55.0003 26.7398C55.0003 26.7876 55.0003 26.8355 55.0003 26.8834C55.0003 26.9313 55.0003 26.9792 55.0003 27.0272C55.0003 27.0751 55.0003 27.1231 55.0003 27.1711C55.0003 27.2191 55.0003 27.2671 55.0003 27.3152C55.0003 27.3632 55.0003 27.4113 55.0003 27.4594C55.0003 27.5075 55.0003 27.5556 55.0003 27.6037C55.0003 27.6519 55.0003 27.7001 55.0003 27.7482C55.0003 27.7964 55.0003 27.8446 55.0003 27.8929C55.0003 27.9411 55.0003 27.9894 55.0003 28.0376C55.0003 28.0859 55.0003 28.1342 55.0003 28.1826C55.0003 28.2309 55.0003 28.2792 55.0003 28.3276C55.0003 28.376 55.0003 28.4243 55.0003 28.4728C55.0003 28.5212 55.0003 28.5696 55.0003 28.6181C55.0003 28.6665 55.0003 28.715 55.0003 28.7635C55.0003 28.812 55.0003 28.8605 55.0003 28.909C55.0003 28.9575 55.0003 29.0061 55.0003 29.0547C55.0003 29.1033 55.0003 29.1518 55.0003 29.2005C55.0003 29.2491 55.0003 29.2977 55.0003 29.3464C55.0003 29.395 55.0003 29.4437 55.0003 29.4924C55.0003 29.5411 55.0003 29.5898 55.0003 29.6385C55.0003 29.6872 55.0003 29.736 55.0003 29.7847C55.0003 29.8335 55.0003 29.8823 55.0003 29.9311C55.0003 29.9799 55.0003 30.0287 55.0003 30.0775C55.0003 30.1264 55.0003 30.1752 55.0003 30.2241C55.0003 30.273 55.0003 30.3219 55.0003 30.3708C55.0003 30.4197 55.0003 30.4686 55.0003 30.5175C55.0003 30.5665 55.0003 30.6154 55.0003 30.6644C55.0003 30.7133 55.0003 30.7623 55.0003 30.8113C55.0003 30.8603 55.0003 30.9093 55.0003 30.9584C55.0003 31.0074 55.0003 31.0565 55.0003 31.1055C55.0003 31.1546 55.0003 31.2037 55.0003 31.2527C55.0003 31.3018 55.0003 31.3509 55.0003 31.4001C55.0003 31.4492 55.0003 31.4983 55.0003 31.5475C55.0003 31.5966 55.0003 31.6458 55.0003 31.695C55.0003 31.7441 55.0003 31.7933 55.0003 31.8425C55.0003 31.8917 55.0003 31.9409 55.0003 31.9902C55.0003 32.0394 55.0003 32.0886 55.0003 32.1379C55.0003 32.1871 55.0003 32.2364 55.0003 32.2857C55.0003 32.335 55.0003 32.3843 55.0003 32.4336C55.0003 32.4829 55.0003 32.5322 55.0003 32.5815C55.0003 32.6308 55.0003 32.6802 55.0003 32.7295C55.0003 32.7789 55.0003 32.8282 55.0003 32.8776C55.0003 32.927 55.0003 32.9763 55.0003 33.0257C55.0003 33.0751 55.0003 33.1245 55.0003 33.1739C55.0003 33.2233 55.0003 33.2728 55.0003 33.3222C55.0003 33.3716 55.0003 33.4211 55.0003 33.4705C55.0003 33.52 55.0003 33.5694 55.0003 33.6189C55.0003 33.6684 55.0003 33.7179 55.0003 33.7673C55.0003 33.8168 55.0003 33.8663 55.0003 33.9158C55.0003 33.9653 55.0003 34.0148 55.0003 34.0644C55.0003 34.1139 55.0003 34.1634 55.0003 34.2129C55.0003 34.2625 55.0003 34.312 55.0003 34.3616C55.0003 34.4111 55.0003 34.4607 55.0003 34.5102C55.0003 34.5598 55.0003 34.6094 55.0003 34.659C55.0003 34.7085 55.0003 34.7581 55.0003 34.8077C55.0003 34.8573 55.0003 34.9069 55.0003 34.9565C55.0003 35.0061 55.0003 35.0557 55.0003 35.1053C55.0003 35.1549 55.0003 35.2046 55.0003 35.2542C55.0003 35.3038 55.0003 35.3534 55.0003 35.4031C55.0003 35.4527 55.0003 35.5023 55.0003 35.552C55.0003 35.6016 55.0003 35.6513 55.0003 35.7009C55.0003 35.7506 55.0003 35.8002 55.0003 35.8499C55.0003 35.8995 55.0003 35.9492 55.0003 35.9989C55.0003 36.0485 55.0003 36.0982 55.0003 36.1479C55.0003 36.1976 55.0003 36.2472 55.0003 36.2969C55.0003 36.3466 55.0003 36.3963 55.0003 36.446C55.0003 36.4956 55.0003 36.5453 55.0003 36.595C55.0003 36.6447 55.0003 36.6944 55.0003 36.7441C55.0003 36.7938 55.0003 36.8435 55.0003 36.8932C55.0003 36.9429 55.0003 36.9926 55.0003 37.0423C55.0003 37.092 55.0003 37.1417 55.0003 37.1914C55.0003 37.2411 55.0003 37.2908 55.0003 37.3405C55.0003 37.3902 55.0003 37.4399 55.0003 37.4896C55.0003 37.5393 55.0003 37.589 55.0003 37.6387C55.0003 37.6884 55.0003 37.7381 55.0003 37.7877C55.0003 37.8374 55.0003 37.8871 55.0003 37.9368C55.0003 37.9865 55.0003 38.0362 55.0003 38.0859C55.0003 38.1356 55.0003 38.1853 55.0003 38.235C55.0003 38.2847 55.0003 38.3344 55.0003 38.3841C55.0003 38.4337 55.0003 38.4834 55.0003 38.5331C55.0003 38.5828 55.0003 38.6325 55.0003 38.6822C55.0003 38.7318 55.0003 38.7815 55.0003 38.8312C55.0003 38.8808 55.0003 38.9305 55.0003 38.9802C55.0003 39.0298 55.0003 39.0795 55.0003 39.1291C55.0003 39.1788 55.0003 39.2284 55.0003 39.2781C55.0003 39.3277 55.0003 39.3774 55.0003 39.427C55.0003 39.4767 55.0003 39.5263 55.0003 39.5759C55.0003 39.6255 55.0003 39.6752 55.0003 39.7248C55.0003 39.7744 55.0003 39.824 55.0003 39.8736C55.0003 39.9232 55.0003 39.9728 55.0003 40.0224C55.0003 40.072 55.0003 40.1216 55.0003 40.1712C55.0003 40.2208 55.0003 40.2703 55.0003 40.3199C55.0003 40.3695 55.0003 40.419 55.0003 40.4686C55.0003 40.5182 55.0003 40.5677 55.0003 40.6172C55.0003 40.6668 55.0003 40.7163 55.0003 40.7658C55.0003 40.8154 55.0003 40.8649 55.0003 40.9144C55.0003 40.9639 55.0003 41.0134 55.0003 41.0629C55.0003 41.1124 55.0003 41.1619 55.0003 41.2114C55.0003 41.2608 55.0003 41.3103 55.0003 41.3598C55.0003 41.4092 55.0003 41.4587 55.0003 41.5081C55.0003 41.5575 55.0003 41.607 55.0003 41.6564C55.0003 41.7058 55.0003 41.7552 55.0003 41.8046C55.0003 41.854 55.0003 41.9034 55.0003 41.9528C55.0003 42.0022 55.0003 42.0515 55.0003 42.1009C55.0003 42.1502 55.0003 42.1996 55.0003 42.2489C55.0003 42.2982 55.0003 42.3476 55.0003 42.3969C55.0003 42.4462 55.0003 42.4955 55.0003 42.5448C55.0003 42.5941 55.0003 42.6433 55.0003 42.6926C55.0003 42.7419 55.0003 42.7911 55.0003 42.8403C55.0003 42.8896 55.0003 42.9388 55.0003 42.988C55.0003 43.0372 55.0003 43.0864 55.0003 43.1356C55.0003 43.1848 55.0003 43.234 55.0003 43.2831C55.0003 43.3323 55.0003 43.3814 55.0003 43.4306C55.0003 43.4797 55.0003 43.5288 55.0003 43.5779C55.0003 43.627 55.0003 43.6761 55.0003 43.7252C55.0003 43.7742 55.0003 43.8233 55.0003 43.8724C55.0003 43.9214 55.0003 43.9704 55.0003 44.0194C55.0003 44.0684 55.0003 44.1174 55.0003 44.1664C55.0003 44.2154 55.0003 44.2644 55.0003 44.3133C55.0003 44.3623 55.0003 44.4112 55.0003 44.4601C55.0003 44.509 55.0003 44.5579 55.0003 44.6068C55.0003 44.6557 55.0003 44.7046 55.0003 44.7534C55.0003 44.8022 55.0003 44.8511 55.0003 44.8999C55.0003 44.9487 55.0003 44.9975 55.0003 45.0463C55.0003 45.0951 55.0003 45.1438 55.0003 45.1926C55.0003 45.2413 55.0003 45.29 55.0003 45.3387C55.0003 45.3874 55.0003 45.4361 55.0003 45.4848C55.0003 45.5334 55.0003 45.5821 55.0003 45.6307C55.0003 45.6793 55.0003 45.728 55.0003 45.7765C55.0003 45.8251 55.0003 45.8737 55.0003 45.9222C55.0003 45.9708 55.0003 46.0193 55.0003 46.0678C55.0003 46.1163 55.0003 46.1648 55.0003 46.2133C55.0003 46.2618 55.0003 46.3102 55.0003 46.3586C55.0003 46.4071 55.0003 46.4555 55.0003 46.5038C55.0003 46.5522 55.0003 46.6006 55.0003 46.6489C55.0003 46.6973 55.0003 46.7456 55.0003 46.7939C55.0003 46.8422 55.0003 46.8905 55.0003 46.9387C55.0003 46.987 55.0003 47.0352 55.0003 47.0834C55.0003 47.1316 55.0003 47.1798 55.0003 47.2279C55.0003 47.2761 55.0003 47.3242 55.0003 47.3723C55.0003 47.4205 55.0003 47.4685 55.0003 47.5166C55.0003 47.5647 55.0003 47.6127 55.0003 47.6607C55.0003 47.7087 55.0003 47.7567 55.0003 47.8047C55.0003 47.8527 55.0003 47.9006 55.0003 47.9485C55.0003 47.9965 55.0003 48.0443 55.0003 48.0922C55.0003 48.1401 55.0003 48.1879 55.0003 48.2357C55.0003 48.2836 55.0003 48.3313 55.0003 48.3791C55.0003 48.4269 55.0003 48.4746 55.0003 48.5223C55.0003 48.57 55.0003 48.6177 55.0003 48.6654C55.0003 48.713 55.0003 48.7607 55.0003 48.8083C55.0003 48.8559 55.0003 48.9035 55.0003 48.951C55.0003 48.9986 55.0003 49.0461 55.0003 49.0936C55.0003 49.1411 55.0003 49.1886 55.0003 49.236C55.0003 49.2834 55.0003 49.3308 55.0003 49.3782C55.0003 49.4256 55.0003 49.473 55.0003 49.5203C55.0003 49.5676 55.0003 49.6149 55.0003 49.6622C55.0003 49.7095 55.0003 49.7567 55.0003 49.8039C55.0003 49.8511 55.0003 49.8983 55.0003 49.9454C55.0003 49.9926 55.0003 50.0397 55.0003 50.0868C55.0003 50.1339 55.0003 50.181 55.0003 50.228C55.0003 50.275 55.0003 50.322 55.0003 50.369C55.0003 50.4159 55.0003 50.4629 55.0003 50.5098C55.0003 50.5567 55.0003 50.6036 55.0003 50.6504C55.0003 50.6972 55.0003 50.7441 55.0003 50.7908C55.0003 50.8376 55.0003 50.8844 55.0003 50.9311C55.0003 50.9778 55.0003 51.0245 55.0003 51.0711C55.0003 51.1178 55.0003 51.1644 55.0003 51.211C55.0003 51.2576 55.0003 51.3041 55.0003 51.3506C55.0003 51.3971 55.0003 51.4436 55.0003 51.4901C55.0003 51.5365 55.0003 51.5829 55.0003 51.6293C55.0003 51.6757 55.0003 51.7221 55.0003 51.7684C55.0003 51.8147 55.0003 51.861 55.0003 51.9072C55.0003 51.9534 55.0003 51.9997 55.0003 52.0458C55.0003 52.092 55.0003 52.1381 55.0003 52.1843C55.0003 52.2304 55.0003 52.2764 55.0003 52.3225C55.0003 52.3685 55.0003 52.4145 55.0003 52.4604C55.0003 52.5064 55.0003 52.5523 55.0003 52.5982C55.0003 52.6441 55.0003 52.69 55.0003 52.7358C55.0003 52.7816 55.0003 52.8274 55.0003 52.8731C55.0003 52.9188 55.0003 52.9645 55.0003 53.0102C55.0003 53.0559 55.0003 53.1015 55.0003 53.1471C55.0003 53.1927 55.0003 53.2382 55.0003 53.2838C55.0003 53.3293 55.0003 53.3747 55.0003 53.4202C55.0003 53.4656 55.0003 53.511 55.0003 53.5564C55.0003 53.6017 55.0003 53.6471 55.0003 53.6923C55.0003 53.7376 55.0003 53.7829 55.0003 53.8281C55.0003 53.8733 55.0003 53.9184 55.0003 53.9635C55.0003 54.0087 55.0003 54.0537 55.0003 54.0988C55.0003 54.1438 55.0003 54.1888 55.0003 54.2338C55.0003 54.2787 55.0003 54.3237 55.0003 54.3685C55.0003 54.4134 55.0003 54.4583 55.0003 54.5031C55.0003 54.5479 55.0003 54.5926 55.0003 54.6373C55.0003 54.682 55.0003 54.7267 55.0003 54.7713C55.0003 54.816 55.0003 54.8606 55.0003 54.9051C55.0003 54.9496 55.0003 54.9941 55.0003 55.0386C55.0003 55.0831 55.0003 55.1275 55.0003 55.1718C55.0003 55.2162 55.0003 55.2605 55.0003 55.3048C55.0003 55.3491 55.0003 55.3934 55.0003 55.4376C55.0003 55.4818 55.0003 55.5259 55.0003 55.57C55.0003 55.6141 55.0003 55.6582 55.0003 55.7022C55.0003 55.7462 55.0003 55.7902 55.0003 55.8342C55.0003 55.8781 55.0003 55.922 55.0003 55.9658C55.0003 56.0097 55.0003 56.0535 55.0003 56.0972C55.0003 56.141 55.0003 56.1847 55.0003 56.2283C55.0003 56.272 55.0003 56.3156 55.0003 56.3592C55.0003 56.4027 55.0003 56.4462 55.0003 56.4897C55.0003 56.5332 55.0003 56.5766 55.0003 56.62C55.0003 56.6634 55.0003 56.7067 55.0003 56.75L57.0003 56.75C57.0003 56.7067 57.0003 56.6634 57.0003 56.62C57.0003 56.5766 57.0003 56.5332 57.0003 56.4897C57.0003 56.4462 57.0003 56.4027 57.0003 56.3592C57.0003 56.3156 57.0003 56.272 57.0003 56.2283C57.0003 56.1847 57.0003 56.141 57.0003 56.0972C57.0003 56.0535 57.0003 56.0097 57.0003 55.9658C57.0003 55.922 57.0003 55.8781 57.0003 55.8342C57.0003 55.7902 57.0003 55.7462 57.0003 55.7022C57.0003 55.6582 57.0003 55.6141 57.0003 55.57C57.0003 55.5259 57.0003 55.4818 57.0003 55.4376C57.0003 55.3934 57.0003 55.3491 57.0003 55.3048C57.0003 55.2605 57.0003 55.2162 57.0003 55.1718C57.0003 55.1275 57.0003 55.0831 57.0003 55.0386C57.0003 54.9941 57.0003 54.9496 57.0003 54.9051C57.0003 54.8606 57.0003 54.816 57.0003 54.7713C57.0003 54.7267 57.0003 54.682 57.0003 54.6373C57.0003 54.5926 57.0003 54.5479 57.0003 54.5031C57.0003 54.4583 57.0003 54.4134 57.0003 54.3685C57.0003 54.3237 57.0003 54.2787 57.0003 54.2338C57.0003 54.1888 57.0003 54.1438 57.0003 54.0988C57.0003 54.0537 57.0003 54.0087 57.0003 53.9635C57.0003 53.9184 57.0003 53.8733 57.0003 53.8281C57.0003 53.7829 57.0003 53.7376 57.0003 53.6923C57.0003 53.6471 57.0003 53.6017 57.0003 53.5564C57.0003 53.511 57.0003 53.4656 57.0003 53.4202C57.0003 53.3747 57.0003 53.3293 57.0003 53.2838C57.0003 53.2382 57.0003 53.1927 57.0003 53.1471C57.0003 53.1015 57.0003 53.0559 57.0003 53.0102C57.0003 52.9645 57.0003 52.9188 57.0003 52.8731C57.0003 52.8274 57.0003 52.7816 57.0003 52.7358C57.0003 52.69 57.0003 52.6441 57.0003 52.5982C57.0003 52.5523 57.0003 52.5064 57.0003 52.4604C57.0003 52.4145 57.0003 52.3685 57.0003 52.3225C57.0003 52.2764 57.0003 52.2304 57.0003 52.1843C57.0003 52.1381 57.0003 52.092 57.0003 52.0458C57.0003 51.9997 57.0003 51.9534 57.0003 51.9072C57.0003 51.861 57.0003 51.8147 57.0003 51.7684C57.0003 51.7221 57.0003 51.6757 57.0003 51.6293C57.0003 51.5829 57.0003 51.5365 57.0003 51.4901C57.0003 51.4436 57.0003 51.3971 57.0003 51.3506C57.0003 51.3041 57.0003 51.2576 57.0003 51.211C57.0003 51.1644 57.0003 51.1178 57.0003 51.0711C57.0003 51.0245 57.0003 50.9778 57.0003 50.9311C57.0003 50.8844 57.0003 50.8376 57.0003 50.7908C57.0003 50.7441 57.0003 50.6972 57.0003 50.6504C57.0003 50.6036 57.0003 50.5567 57.0003 50.5098C57.0003 50.4629 57.0003 50.4159 57.0003 50.369C57.0003 50.322 57.0003 50.275 57.0003 50.228C57.0003 50.181 57.0003 50.1339 57.0003 50.0868C57.0003 50.0397 57.0003 49.9926 57.0003 49.9454C57.0003 49.8983 57.0003 49.8511 57.0003 49.8039C57.0003 49.7567 57.0003 49.7095 57.0003 49.6622C57.0003 49.6149 57.0003 49.5676 57.0003 49.5203C57.0003 49.473 57.0003 49.4256 57.0003 49.3782C57.0003 49.3308 57.0003 49.2834 57.0003 49.236C57.0003 49.1886 57.0003 49.1411 57.0003 49.0936C57.0003 49.0461 57.0003 48.9986 57.0003 48.951C57.0003 48.9035 57.0003 48.8559 57.0003 48.8083C57.0003 48.7607 57.0003 48.713 57.0003 48.6654C57.0003 48.6177 57.0003 48.57 57.0003 48.5223C57.0003 48.4746 57.0003 48.4269 57.0003 48.3791C57.0003 48.3313 57.0003 48.2836 57.0003 48.2357C57.0003 48.1879 57.0003 48.1401 57.0003 48.0922C57.0003 48.0443 57.0003 47.9965 57.0003 47.9485C57.0003 47.9006 57.0003 47.8527 57.0003 47.8047C57.0003 47.7567 57.0003 47.7087 57.0003 47.6607C57.0003 47.6127 57.0003 47.5647 57.0003 47.5166C57.0003 47.4685 57.0003 47.4205 57.0003 47.3723C57.0003 47.3242 57.0003 47.2761 57.0003 47.2279C57.0003 47.1798 57.0003 47.1316 57.0003 47.0834C57.0003 47.0352 57.0003 46.987 57.0003 46.9387C57.0003 46.8905 57.0003 46.8422 57.0003 46.7939C57.0003 46.7456 57.0003 46.6973 57.0003 46.6489C57.0003 46.6006 57.0003 46.5522 57.0003 46.5038C57.0003 46.4555 57.0003 46.4071 57.0003 46.3586C57.0003 46.3102 57.0003 46.2618 57.0003 46.2133C57.0003 46.1648 57.0003 46.1163 57.0003 46.0678C57.0003 46.0193 57.0003 45.9708 57.0003 45.9222C57.0003 45.8737 57.0003 45.8251 57.0003 45.7765C57.0003 45.728 57.0003 45.6793 57.0003 45.6307C57.0003 45.5821 57.0003 45.5334 57.0003 45.4848C57.0003 45.4361 57.0003 45.3874 57.0003 45.3387C57.0003 45.29 57.0003 45.2413 57.0003 45.1926C57.0003 45.1438 57.0003 45.0951 57.0003 45.0463C57.0003 44.9975 57.0003 44.9487 57.0003 44.8999C57.0003 44.8511 57.0003 44.8022 57.0003 44.7534C57.0003 44.7046 57.0003 44.6557 57.0003 44.6068C57.0003 44.5579 57.0003 44.509 57.0003 44.4601C57.0003 44.4112 57.0003 44.3623 57.0003 44.3133C57.0003 44.2644 57.0003 44.2154 57.0003 44.1664C57.0003 44.1174 57.0003 44.0684 57.0003 44.0194C57.0003 43.9704 57.0003 43.9214 57.0003 43.8724C57.0003 43.8233 57.0003 43.7742 57.0003 43.7252C57.0003 43.6761 57.0003 43.627 57.0003 43.5779C57.0003 43.5288 57.0003 43.4797 57.0003 43.4306C57.0003 43.3814 57.0003 43.3323 57.0003 43.2831C57.0003 43.234 57.0003 43.1848 57.0003 43.1356C57.0003 43.0864 57.0003 43.0372 57.0003 42.988C57.0003 42.9388 57.0003 42.8896 57.0003 42.8403C57.0003 42.7911 57.0003 42.7419 57.0003 42.6926C57.0003 42.6433 57.0003 42.5941 57.0003 42.5448C57.0003 42.4955 57.0003 42.4462 57.0003 42.3969C57.0003 42.3476 57.0003 42.2982 57.0003 42.2489C57.0003 42.1996 57.0003 42.1502 57.0003 42.1009C57.0003 42.0515 57.0003 42.0021 57.0003 41.9528C57.0003 41.9034 57.0003 41.854 57.0003 41.8046C57.0003 41.7552 57.0003 41.7058 57.0003 41.6564C57.0003 41.607 57.0003 41.5575 57.0003 41.5081C57.0003 41.4587 57.0003 41.4092 57.0003 41.3598C57.0003 41.3103 57.0003 41.2608 57.0003 41.2114C57.0003 41.1619 57.0003 41.1124 57.0003 41.0629C57.0003 41.0134 57.0003 40.9639 57.0003 40.9144C57.0003 40.8649 57.0003 40.8154 57.0003 40.7658C57.0003 40.7163 57.0003 40.6668 57.0003 40.6172C57.0003 40.5677 57.0003 40.5182 57.0003 40.4686C57.0003 40.419 57.0003 40.3695 57.0003 40.3199C57.0003 40.2703 57.0003 40.2208 57.0003 40.1712C57.0003 40.1216 57.0003 40.072 57.0003 40.0224C57.0003 39.9728 57.0003 39.9232 57.0003 39.8736C57.0003 39.824 57.0003 39.7744 57.0003 39.7248C57.0003 39.6752 57.0003 39.6255 57.0003 39.5759C57.0003 39.5263 57.0003 39.4767 57.0003 39.427C57.0003 39.3774 57.0003 39.3277 57.0003 39.2781C57.0003 39.2284 57.0003 39.1788 57.0003 39.1291C57.0003 39.0795 57.0003 39.0298 57.0003 38.9802C57.0003 38.9305 57.0003 38.8808 57.0003 38.8312C57.0003 38.7815 57.0003 38.7318 57.0003 38.6822C57.0003 38.6325 57.0003 38.5828 57.0003 38.5331C57.0003 38.4834 57.0003 38.4337 57.0003 38.3841C57.0003 38.3344 57.0003 38.2847 57.0003 38.235C57.0003 38.1853 57.0003 38.1356 57.0003 38.0859C57.0003 38.0362 57.0003 37.9865 57.0003 37.9368C57.0003 37.8871 57.0003 37.8374 57.0003 37.7877C57.0003 37.7381 57.0003 37.6884 57.0003 37.6387C57.0003 37.589 57.0003 37.5393 57.0003 37.4896C57.0003 37.4399 57.0003 37.3902 57.0003 37.3405C57.0003 37.2908 57.0003 37.2411 57.0003 37.1914C57.0003 37.1417 57.0003 37.092 57.0003 37.0423C57.0003 36.9926 57.0003 36.9429 57.0003 36.8932C57.0003 36.8435 57.0003 36.7938 57.0003 36.7441C57.0003 36.6944 57.0003 36.6447 57.0003 36.595C57.0003 36.5453 57.0003 36.4956 57.0003 36.446C57.0003 36.3963 57.0003 36.3466 57.0003 36.2969C57.0003 36.2472 57.0003 36.1976 57.0003 36.1479C57.0003 36.0982 57.0003 36.0485 57.0003 35.9989C57.0003 35.9492 57.0003 35.8995 57.0003 35.8499C57.0003 35.8002 57.0003 35.7506 57.0003 35.7009C57.0003 35.6513 57.0003 35.6016 57.0003 35.552C57.0003 35.5023 57.0003 35.4527 57.0003 35.4031C57.0003 35.3534 57.0003 35.3038 57.0003 35.2542C57.0003 35.2046 57.0003 35.1549 57.0003 35.1053C57.0003 35.0557 57.0003 35.0061 57.0003 34.9565C57.0003 34.9069 57.0003 34.8573 57.0003 34.8077C57.0003 34.7581 57.0003 34.7085 57.0003 34.659C57.0003 34.6094 57.0003 34.5598 57.0003 34.5102C57.0003 34.4607 57.0003 34.4111 57.0003 34.3616C57.0003 34.312 57.0003 34.2625 57.0003 34.2129C57.0003 34.1634 57.0003 34.1139 57.0003 34.0644C57.0003 34.0148 57.0003 33.9653 57.0003 33.9158C57.0003 33.8663 57.0003 33.8168 57.0003 33.7673C57.0003 33.7179 57.0003 33.6684 57.0003 33.6189C57.0003 33.5694 57.0003 33.52 57.0003 33.4705C57.0003 33.4211 57.0003 33.3716 57.0003 33.3222C57.0003 33.2728 57.0003 33.2233 57.0003 33.1739C57.0003 33.1245 57.0003 33.0751 57.0003 33.0257C57.0003 32.9763 57.0003 32.927 57.0003 32.8776C57.0003 32.8282 57.0003 32.7789 57.0003 32.7295C57.0003 32.6802 57.0003 32.6308 57.0003 32.5815C57.0003 32.5322 57.0003 32.4829 57.0003 32.4336C57.0003 32.3843 57.0003 32.335 57.0003 32.2857C57.0003 32.2364 57.0003 32.1871 57.0003 32.1379C57.0003 32.0886 57.0003 32.0394 57.0003 31.9902C57.0003 31.9409 57.0003 31.8917 57.0003 31.8425C57.0003 31.7933 57.0003 31.7441 57.0003 31.695C57.0003 31.6458 57.0003 31.5966 57.0003 31.5475C57.0003 31.4983 57.0003 31.4492 57.0003 31.4001C57.0003 31.3509 57.0003 31.3018 57.0003 31.2527C57.0003 31.2037 57.0003 31.1546 57.0003 31.1055C57.0003 31.0565 57.0003 31.0074 57.0003 30.9584C57.0003 30.9093 57.0003 30.8603 57.0003 30.8113C57.0003 30.7623 57.0003 30.7133 57.0003 30.6644C57.0003 30.6154 57.0003 30.5665 57.0003 30.5175C57.0003 30.4686 57.0003 30.4197 57.0003 30.3708C57.0003 30.3219 57.0003 30.273 57.0003 30.2241C57.0003 30.1752 57.0003 30.1264 57.0003 30.0775C57.0003 30.0287 57.0003 29.9799 57.0003 29.9311C57.0003 29.8823 57.0003 29.8335 57.0003 29.7847C57.0003 29.736 57.0003 29.6872 57.0003 29.6385C57.0003 29.5898 57.0003 29.5411 57.0003 29.4924C57.0003 29.4437 57.0003 29.395 57.0003 29.3464C57.0003 29.2977 57.0003 29.2491 57.0003 29.2005C57.0003 29.1518 57.0003 29.1033 57.0003 29.0547C57.0003 29.0061 57.0003 28.9575 57.0003 28.909C57.0003 28.8605 57.0003 28.812 57.0003 28.7635C57.0003 28.715 57.0003 28.6665 57.0003 28.618C57.0003 28.5696 57.0003 28.5212 57.0003 28.4728C57.0003 28.4243 57.0003 28.376 57.0003 28.3276C57.0003 28.2792 57.0003 28.2309 57.0003 28.1826C57.0003 28.1342 57.0003 28.0859 57.0003 28.0376C57.0003 27.9894 57.0003 27.9411 57.0003 27.8929C57.0003 27.8446 57.0003 27.7964 57.0003 27.7482C57.0003 27.7001 57.0003 27.6519 57.0003 27.6037C57.0003 27.5556 57.0003 27.5075 57.0003 27.4594C57.0003 27.4113 57.0003 27.3632 57.0003 27.3152C57.0003 27.2671 57.0003 27.2191 57.0003 27.1711C57.0003 27.1231 57.0003 27.0751 57.0003 27.0272C57.0003 26.9792 57.0003 26.9313 57.0003 26.8834C57.0003 26.8355 57.0003 26.7876 57.0003 26.7398C57.0003 26.6919 57.0003 26.6441 57.0003 26.5963C57.0003 26.5485 57.0003 26.5007 57.0003 26.453C57.0003 26.4052 57.0003 26.3575 57.0003 26.3098C57.0003 26.2621 57.0003 26.2145 57.0003 26.1668C57.0003 26.1192 57.0003 26.0716 57.0003 26.024C57.0003 25.9764 57.0003 25.9288 57.0003 25.8813C57.0003 25.8338 57.0003 25.7863 57.0003 25.7388C57.0003 25.6913 57.0003 25.6439 57.0003 25.5965C57.0003 25.549 57.0003 25.5017 57.0003 25.4543C57.0003 25.4069 57.0003 25.3596 57.0003 25.3123C57.0003 25.265 57.0003 25.2177 57.0003 25.1705C57.0003 25.1232 57.0003 25.076 57.0003 25.0288C57.0003 24.9816 57.0003 24.9345 57.0003 24.8873C57.0003 24.8402 57.0003 24.7931 57.0003 24.746C57.0003 24.699 57.0003 24.6519 57.0003 24.6049C57.0003 24.5579 57.0003 24.5109 57.0003 24.464C57.0003 24.417 57.0003 24.3701 57.0003 24.3233C57.0003 24.2764 57.0003 24.2295 57.0003 24.1827C57.0003 24.1359 57.0003 24.0891 57.0003 24.0423C57.0003 23.9956 57.0003 23.9489 57.0003 23.9022C57.0003 23.8555 57.0003 23.8088 57.0003 23.7622C57.0003 23.7156 57.0003 23.669 57.0003 23.6224C57.0003 23.5758 57.0003 23.5293 57.0003 23.4828C57.0003 23.4363 57.0003 23.3899 57.0003 23.3435C57.0003 23.297 57.0003 23.2506 57.0003 23.2043C57.0003 23.1579 57.0003 23.1116 57.0003 23.0653C57.0003 23.019 57.0003 22.9728 57.0003 22.9265C57.0003 22.8803 57.0003 22.8341 57.0003 22.788C57.0003 22.7418 57.0003 22.6957 57.0003 22.6496C57.0003 22.6036 57.0003 22.5575 57.0003 22.5115C57.0003 22.4655 57.0003 22.4195 57.0003 22.3736C57.0003 22.3277 57.0003 22.2818 57.0003 22.2359C57.0003 22.1901 57.0003 22.1442 57.0003 22.0984C57.0003 22.0527 57.0003 22.0069 57.0003 21.9612C57.0003 21.9155 57.0003 21.8698 57.0003 21.8242C57.0003 21.7785 57.0003 21.7329 57.0003 21.6874C57.0003 21.6418 57.0003 21.5963 57.0003 21.5508C57.0003 21.5053 57.0003 21.4599 57.0003 21.4144C57.0003 21.369 57.0003 21.3237 57.0003 21.2783C57.0003 21.233 57.0003 21.1877 57.0003 21.1425C57.0003 21.0972 57.0003 21.052 57.0003 21.0068C57.0003 20.9616 57.0003 20.9165 57.0003 20.8714C57.0003 20.8263 57.0003 20.7813 57.0003 20.7363C57.0003 20.6912 57.0003 20.6463 57.0003 20.6013C57.0003 20.5564 57.0003 20.5115 57.0003 20.4667C57.0003 20.4218 57.0003 20.377 57.0003 20.3323C57.0003 20.2875 57.0003 20.2428 57.0003 20.1981C57.0003 20.1534 57.0003 20.1088 57.0003 20.0642C57.0003 20.0196 57.0003 19.975 57.0003 19.9305C57.0003 19.886 57.0003 19.8415 57.0003 19.7971C57.0003 19.7526 57.0003 19.7083 57.0003 19.6639C57.0003 19.6196 57.0003 19.5753 57.0003 19.531C57.0003 19.4868 57.0003 19.4426 57.0003 19.3984C57.0003 19.3542 57.0003 19.3101 57.0003 19.266C57.0003 19.2219 57.0003 19.1779 57.0003 19.1339C57.0003 19.0899 57.0003 19.046 57.0003 19.0021C57.0003 18.9582 57.0003 18.9143 57.0003 18.8705C57.0003 18.8267 57.0003 18.783 57.0003 18.7392C57.0003 18.6955 57.0003 18.6518 57.0003 18.6082C57.0003 18.5646 57.0003 18.521 57.0003 18.4775C57.0003 18.4339 57.0003 18.3905 57.0003 18.347C57.0003 18.3036 57.0003 18.2602 57.0003 18.2168C57.0003 18.1735 57.0003 18.1302 57.0003 18.0869C57.0003 18.0437 57.0003 18.0005 57.0003 17.9573C57.0003 17.9142 57.0003 17.8711 57.0003 17.828C57.0003 17.7849 57.0003 17.7419 57.0003 17.699C57.0003 17.656 57.0003 17.6131 57.0003 17.5702C57.0003 17.5274 57.0003 17.4845 57.0003 17.4418C57.0003 17.399 57.0003 17.3563 57.0003 17.3136C57.0003 17.271 57.0003 17.2283 57.0003 17.1858C57.0003 17.1432 57.0003 17.1007 57.0003 17.0582C57.0003 17.0157 57.0003 16.9733 57.0003 16.931C57.0003 16.8886 57.0003 16.8463 57.0003 16.804C57.0003 16.7617 57.0003 16.7195 57.0003 16.6774C57.0003 16.6352 57.0003 16.5931 57.0003 16.551C57.0003 16.509 57.0003 16.4669 57.0003 16.425C57.0003 16.383 57.0003 16.3411 57.0003 16.2993C57.0003 16.2574 57.0003 16.2156 57.0003 16.1739C57.0003 16.1321 57.0003 16.0904 57.0003 16.0488C57.0003 16.0072 57.0003 15.9656 57.0003 15.924C57.0003 15.8825 57.0003 15.841 57.0003 15.7996C57.0003 15.7582 57.0003 15.7168 57.0003 15.6755C57.0003 15.6342 57.0003 15.5929 57.0003 15.5517C57.0003 15.5105 57.0003 15.4693 57.0003 15.4282C57.0003 15.3871 57.0003 15.3461 57.0003 15.3051C57.0003 15.2641 57.0003 15.2231 57.0003 15.1823C57.0003 15.1414 57.0003 15.1006 57.0003 15.0598C57.0003 15.019 57.0003 14.9783 57.0003 14.9377C57.0003 14.897 57.0003 14.8564 57.0003 14.8159C57.0003 14.7753 57.0003 14.7348 57.0003 14.6944C57.0003 14.654 57.0003 14.6136 57.0003 14.5733C57.0003 14.533 57.0003 14.4927 57.0003 14.4525C57.0003 14.4123 57.0003 14.3722 57.0003 14.3321C57.0003 14.292 57.0003 14.252 57.0003 14.212C57.0003 14.172 57.0003 14.1321 57.0003 14.0923C57.0003 14.0524 57.0003 14.0126 57.0003 13.9729C57.0003 13.9332 57.0003 13.8935 57.0003 13.8539C57.0003 13.8142 57.0003 13.7747 57.0003 13.7352C57.0003 13.6957 57.0003 13.6563 57.0003 13.6169C57.0003 13.5775 57.0003 13.5382 57.0003 13.4989C57.0003 13.4597 57.0003 13.4205 57.0003 13.3814C57.0003 13.3422 57.0003 13.3032 57.0003 13.2641C57.0003 13.2251 57.0003 13.1862 57.0003 13.1473C57.0003 13.1084 57.0003 13.0696 57.0003 13.0308C57.0003 12.992 57.0003 12.9533 57.0003 12.9147C57.0003 12.8761 57.0003 12.8375 57.0003 12.799C57.0003 12.7604 57.0003 12.722 57.0003 12.6836C57.0003 12.6452 57.0003 12.6069 57.0003 12.5686C57.0003 12.5303 57.0003 12.4921 57.0003 12.454C57.0003 12.4159 57.0003 12.3778 57.0003 12.3398C57.0003 12.3018 57.0003 12.2638 57.0003 12.2259C57.0003 12.1881 57.0003 12.1502 57.0003 12.1125C57.0003 12.0747 57.0003 12.0371 57.0003 11.9994C57.0003 11.9618 57.0003 11.9242 57.0003 11.8868C57.0003 11.8493 57.0003 11.8118 57.0003 11.7745C57.0003 11.7371 57.0003 11.6998 57.0003 11.6626C57.0003 11.6254 57.0003 11.5882 57.0003 11.5511C57.0003 11.514 57.0003 11.477 57.0003 11.44C57.0003 11.403 57.0003 11.3661 57.0003 11.3293C57.0003 11.2925 57.0003 11.2557 57.0003 11.219C57.0003 11.1823 57.0003 11.1457 57.0003 11.1091C57.0003 11.0726 57.0003 11.0361 57.0003 10.9997C57.0003 10.9632 57.0003 10.9269 57.0003 10.8906C57.0003 10.8543 57.0003 10.8181 57.0003 10.7819C57.0003 10.7458 57.0003 10.7097 57.0003 10.6737C57.0003 10.6377 57.0003 10.6017 57.0003 10.5659C57.0003 10.53 57.0003 10.4942 57.0003 10.4585C57.0003 10.4227 57.0003 10.3871 57.0003 10.3515C57.0003 10.3159 57.0003 10.2803 57.0003 10.2449C57.0003 10.2094 57.0003 10.1741 57.0003 10.1387C57.0003 10.1034 57.0003 10.0682 57.0003 10.033C57.0003 9.99786 57.0003 9.96276 57.0003 9.92774C57.0003 9.89271 57.0003 9.85776 57.0003 9.82288C57.0003 9.788 57.0003 9.75319 57.0003 9.71845C57.0003 9.68371 57.0003 9.64905 57.0003 9.61445C57.0003 9.57986 57.0003 9.54534 57.0003 9.5109C57.0003 9.47645 57.0003 9.44208 57.0003 9.40778C57.0003 9.37348 57.0003 9.33925 57.0003 9.3051C57.0003 9.27095 57.0003 9.23687 57.0003 9.20286C57.0003 9.16886 57.0003 9.13493 57.0003 9.10107C57.0003 9.06722 57.0003 9.03344 57.0003 8.99973C57.0003 8.96602 57.0003 8.93239 57.0003 8.89883C57.0003 8.86528 57.0003 8.8318 57.0003 8.79839C57.0003 8.76499 57.0003 8.73166 57.0003 8.6984C57.0003 8.66515 57.0003 8.63197 57.0003 8.59887C57.0003 8.56576 57.0003 8.53274 57.0003 8.49979C57.0003 8.46684 57.0003 8.43397 57.0003 8.40117C57.0003 8.36838 57.0003 8.33566 57.0003 8.30301C57.0003 8.27037 57.0003 8.23781 57.0003 8.20532C57.0003 8.17284 57.0003 8.14043 57.0003 8.1081C57.0003 8.07577 57.0003 8.04351 57.0003 8.01134C57.0003 7.97916 57.0003 7.94707 57.0003 7.91505C57.0003 7.88303 57.0003 7.85109 57.0003 7.81923C57.0003 7.78737 57.0003 7.75559 57.0003 7.72389C57.0003 7.69219 57.0003 7.66057 57.0003 7.62903C57.0003 7.59748 57.0003 7.56602 57.0003 7.53464C57.0003 7.50326 57.0003 7.47195 57.0003 7.44073C57.0003 7.40951 57.0003 7.37837 57.0003 7.34731C57.0003 7.31625 57.0003 7.28527 57.0003 7.25437C57.0003 7.22347 57.0003 7.19265 57.0003 7.16192C57.0003 7.13118 57.0003 7.10053 57.0003 7.06996C57.0003 7.03938 57.0003 7.00889 57.0003 6.97848C57.0003 6.94808 57.0003 6.91775 57.0003 6.8875C57.0003 6.85726 57.0003 6.8271 57.0003 6.79702C57.0003 6.76694 57.0003 6.73695 57.0003 6.70704C57.0003 6.67712 57.0003 6.64729 57.0003 6.61755C57.0003 6.5878 57.0003 6.55814 57.0003 6.52856C57.0003 6.49899 57.0003 6.46949 57.0003 6.44008C57.0003 6.41067 57.0003 6.38135 57.0003 6.35211C57.0003 6.32287 57.0003 6.29371 57.0003 6.26464C57.0003 6.23557 57.0003 6.20659 57.0003 6.17768C57.0003 6.14878 57.0003 6.11997 57.0003 6.09124C57.0003 6.06251 57.0003 6.03387 57.0003 6.00531C57.0003 5.97675 57.0003 5.94828 57.0003 5.91989C57.0003 5.89151 57.0003 5.86321 57.0003 5.835C57.0003 5.80679 57.0003 5.77866 57.0003 5.75062C57.0003 5.72258 57.0003 5.69463 57.0003 5.66677C57.0003 5.63891 57.0003 5.61113 57.0003 5.58344C57.0003 5.55575 57.0003 5.52815 57.0003 5.50064C57.0003 5.47313 57.0003 5.4457 57.0003 5.41837C57.0003 5.39103 57.0003 5.36379 57.0003 5.33663C57.0003 5.30947 57.0003 5.2824 57.0003 5.25542C57.0003 5.22844 57.0003 5.20155 57.0003 5.17475C57.0003 5.14794 57.0003 5.12123 57.0003 5.09461C57.0003 5.06799 57.0003 5.04146 57.0003 5.01501C57.0003 4.98857 57.0003 4.96222 57.0003 4.93596C57.0003 4.9097 57.0003 4.88353 57.0003 4.85745C57.0003 4.83137 57.0003 4.80538 57.0003 4.77948C57.0003 4.75359 57.0003 4.72778 57.0003 4.70207C57.0003 4.67635 57.0003 4.65073 57.0003 4.6252C57.0003 4.59967 57.0003 4.57423 57.0003 4.54888C57.0003 4.52354 57.0003 4.49828 57.0003 4.47312C57.0003 4.44796 57.0003 4.42289 57.0003 4.39792C57.0003 4.37294 57.0003 4.34806 57.0003 4.32327C57.0003 4.29848 57.0003 4.27379 57.0003 4.24919C57.0003 4.22458 57.0003 4.20008 57.0003 4.17566C57.0003 4.15125 57.0003 4.12693 57.0003 4.1027C57.0003 4.07848 57.0003 4.05435 57.0003 4.03031C57.0003 4.00628 57.0003 3.98233 57.0003 3.95849C57.0003 3.93464 57.0003 3.91089 57.0003 3.88724C57.0003 3.86358 57.0003 3.84002 57.0003 3.81656C57.0003 3.79309 57.0003 3.76973 57.0003 3.74645C57.0003 3.72318 57.0003 3.70001 57.0003 3.67693C57.0003 3.65385 57.0003 3.63087 57.0003 3.60798C57.0003 3.58509 57.0003 3.56231 57.0003 3.53961C57.0003 3.51692 57.0003 3.49433 57.0003 3.47183C57.0003 3.44934 57.0003 3.42694 57.0003 3.40464C57.0003 3.38233 57.0003 3.36013 57.0003 3.33803C57.0003 3.31592 57.0003 3.29392 57.0003 3.27201C57.0003 3.2501 57.0003 3.22829 57.0003 3.20658C57.0003 3.18487 57.0003 3.16326 57.0003 3.14175C57.0003 3.12024 57.0003 3.09882 57.0003 3.07751C57.0003 3.0562 57.0003 3.03499 57.0003 3.01387C57.0003 2.99276 57.0003 2.97175 57.0003 2.95084C57.0003 2.92992 57.0003 2.90911 57.0003 2.8884C57.0003 2.86769 57.0003 2.84708 57.0003 2.82657C57.0003 2.80606 57.0003 2.78565 57.0003 2.76535C57.0003 2.74504 57.0003 2.72483 57.0003 2.70473C57.0003 2.68463 57.0003 2.66463 57.0003 2.64473C57.0003 2.62483 57.0003 2.60503 57.0003 2.58534C57.0003 2.56564 57.0003 2.54605 57.0003 2.52656C57.0003 2.50707 57.0003 2.48768 57.0003 2.4684C57.0003 2.44912 57.0003 2.42994 57.0003 2.41086C57.0003 2.39179 57.0003 2.37281 57.0003 2.35394C57.0003 2.33507 57.0003 2.31631 57.0003 2.29765C57.0003 2.27899 57.0003 2.26043 57.0003 2.24198C57.0003 2.22353 57.0003 2.20518 57.0003 2.18694C57.0003 2.1687 57.0003 2.15056 57.0003 2.13253C57.0003 2.11449 57.0003 2.09657 57.0003 2.07875C57.0003 2.06093 57.0003 2.04321 57.0003 2.0256C57.0003 2.00799 57.0003 1.99049 57.0003 1.97309C57.0003 1.9557 57.0003 1.9384 57.0003 1.92122C57.0003 1.90404 57.0003 1.88696 57.0003 1.86999C57.0003 1.85302 57.0003 1.83616 57.0003 1.8194C57.0003 1.80265 57.0003 1.786 57.0003 1.76946C57.0003 1.75292 57.0003 1.73649 57.0003 1.72016C57.0003 1.70384 57.0003 1.68762 57.0003 1.67151C57.0003 1.6554 57.0003 1.63941 57.0003 1.62351C57.0003 1.60762 57.0003 1.59184 57.0003 1.57617C57.0003 1.5605 57.0003 1.54493 57.0003 1.52948C57.0003 1.51403 57.0003 1.49868 57.0003 1.48345C57.0003 1.46821 57.0003 1.45309 57.0003 1.43807C57.0003 1.42306 57.0003 1.40816 57.0003 1.39336C57.0003 1.37857 57.0003 1.36389 57.0003 1.34931C57.0003 1.33474 57.0003 1.32028 57.0003 1.30593C57.0003 1.29158 57.0003 1.27734 57.0003 1.26322C57.0003 1.24909 57.0003 1.23507 57.0003 1.22117C57.0003 1.20727 57.0003 1.19348 57.0003 1.1798C57.0003 1.16612 57.0003 1.15255 57.0003 1.1391C57.0003 1.12564 57.0003 1.1123 57.0003 1.09907C57.0003 1.08584 57.0003 1.07273 57.0003 1.05973C57.0003 1.04673 57.0003 1.03384 57.0003 1.02106C57.0003 1.00829 57.0003 0.995627 57.0003 0.983079C57.0003 0.970533 57.0003 0.9581 57.0003 0.945781C57.0003 0.933463 57.0003 0.921259 57.0003 0.909169C57.0003 0.89708 57.0003 0.885105 57.0003 0.873246C57.0003 0.861387 57.0003 0.849643 57.0003 0.838014C57.0003 0.826385 57.0003 0.814872 57.0003 0.803474C57.0003 0.792077 57.0003 0.780795 57.0003 0.76963C57.0003 0.758464 57.0003 0.747415 57.0003 0.736482C57.0003 0.725549 57.0003 0.714733 57.0003 0.704034C57.0003 0.693335 57.0003 0.682752 57.0003 0.672287C57.0003 0.661822 57.0003 0.651474 57.0003 0.641243C57.0003 0.631013 57.0003 0.6209 57.0003 0.610905C57.0003 0.60091 57.0003 0.591033 57.0003 0.581275C57.0003 0.571516 57.0003 0.561875 57.0003 0.552354C57.0003 0.542832 57.0003 0.533429 57.0003 0.524145C57.0003 0.51486 57.0003 0.505695 57.0003 0.496649C57.0003 0.487604 57.0003 0.478677 57.0003 0.46987C57.0003 0.461063 57.0003 0.452376 57.0003 0.443809C57.0003 0.435242 57.0003 0.426795 57.0003 0.418468C57.0003 0.410142 57.0003 0.401935 57.0003 0.39385C57.0003 0.385764 57.0003 0.377799 57.0003 0.369955C57.0003 0.362112 57.0003 0.354389 57.0003 0.346788C57.0003 0.339186 57.0003 0.331707 57.0003 0.324348C57.0003 0.31699 57.0003 0.309754 57.0003 0.30264C57.0003 0.295526 57.0003 0.288534 57.0003 0.281664C57.0003 0.274795 57.0003 0.268048 57.0003 0.261424C57.0003 0.2548 57.0003 0.248298 57.0003 0.24192C57.0003 0.235542 57.0003 0.229287 57.0003 0.223155C57.0003 0.217024 57.0003 0.211016 57.0003 0.205132C57.0003 0.199248 57.0003 0.193488 57.0003 0.187852C57.0003 0.182216 57.0003 0.176704 57.0003 0.171317C57.0003 0.16593 57.0003 0.160668 57.0003 0.15553C57.0003 0.150393 57.0003 0.14538 57.0003 0.140493C57.0003 0.135605 57.0003 0.130843 57.0003 0.126207C57.0003 0.12157 57.0003 0.11706 57.0003 0.112675C57.0003 0.10829 57.0003 0.104031 57.0003 0.0998988C57.0003 0.0957664 57.0003 0.0917602 57.0003 0.0878808C57.0003 0.0840013 57.0003 0.0802486 57.0003 0.0766229C57.0003 0.0729972 57.0003 0.0694985 57.0003 0.0661272C57.0003 0.0627559 57.0003 0.059512 57.0003 0.0563958C57.0003 0.0532797 57.0003 0.0502913 57.0003 0.0474309C57.0003 0.0445706 57.0003 0.0418383 57.0003 0.0392345C57.0003 0.0366307 57.0003 0.0341553 57.0003 0.0318088C57.0003 0.0294622 57.0003 0.0272444 57.0003 0.0251557C57.0003 0.0230671 57.0003 0.0211076 57.0003 0.0192776C57.0003 0.0174475 57.0003 0.015747 57.0003 0.0141763C57.0003 0.0126056 57.0003 0.0111648 57.0003 0.00985412C57.0003 0.00854346 57.0003 0.00736299 57.0003 0.00631306C57.0003 0.00526313 57.0003 0.00434374 57.0003 0.00355524C57.0003 0.00276674 57.0003 0.00210913 57.0003 0.00158277C57.0003 0.0010564 57.0003 0.000661277 57.0003 0.000397743C57.0003 0.00013421 57.0003 2.26842e-06 56.0003 2.31213e-06ZM55.0003 56.75C55.0003 62.2017 54.2313 67.669 53.2586 73.0306C52.2946 78.3437 51.1065 83.664 50.3252 88.5917C48.7603 98.4618 48.6646 107.578 55.2932 114.207L56.7075 112.793C50.8361 106.922 50.7404 98.7444 52.3005 88.9049C53.0817 83.978 54.2373 78.8396 55.2265 73.3876C56.2069 67.9839 57.0003 62.3794 57.0003 56.75L55.0003 56.75ZM55.2933 341.207C59.5417 345.456 61.6206 349.627 62.3999 353.816C63.1834 358.028 62.6694 362.34 61.5897 366.896C60.496 371.511 58.8932 376.131 57.4968 381.23C56.1197 386.258 55.0004 391.58 55.0004 397.25L57.0004 397.25C57.0004 391.839 58.0685 386.714 59.4257 381.758C60.7637 376.873 62.442 371.972 63.5358 367.357C64.6435 362.683 65.2232 358.057 64.3662 353.45C63.5049 348.821 61.2088 344.294 56.7075 339.793L55.2933 341.207ZM55.0004 397.25C55.0004 397.293 55.0004 397.337 55.0004 397.38C55.0004 397.423 55.0004 397.467 55.0004 397.51C55.0004 397.554 55.0004 397.597 55.0004 397.641C55.0004 397.684 55.0004 397.728 55.0004 397.772C55.0004 397.815 55.0004 397.859 55.0004 397.903C55.0004 397.947 55.0004 397.99 55.0004 398.034C55.0004 398.078 55.0004 398.122 55.0004 398.166C55.0004 398.21 55.0004 398.254 55.0004 398.298C55.0004 398.342 55.0004 398.386 55.0004 398.43C55.0004 398.474 55.0004 398.518 55.0004 398.562C55.0004 398.607 55.0004 398.651 55.0004 398.695C55.0004 398.739 55.0004 398.784 55.0004 398.828C55.0004 398.873 55.0004 398.917 55.0004 398.961C55.0004 399.006 55.0004 399.05 55.0004 399.095C55.0004 399.139 55.0004 399.184 55.0004 399.229C55.0004 399.273 55.0004 399.318 55.0004 399.363C55.0004 399.407 55.0004 399.452 55.0004 399.497C55.0004 399.542 55.0004 399.587 55.0004 399.631C55.0004 399.676 55.0004 399.721 55.0004 399.766C55.0004 399.811 55.0004 399.856 55.0004 399.901C55.0004 399.946 55.0004 399.991 55.0004 400.036C55.0004 400.082 55.0004 400.127 55.0004 400.172C55.0004 400.217 55.0004 400.262 55.0004 400.308C55.0004 400.353 55.0004 400.398 55.0004 400.444C55.0004 400.489 55.0004 400.534 55.0004 400.58C55.0004 400.625 55.0004 400.671 55.0004 400.716C55.0004 400.762 55.0004 400.807 55.0004 400.853C55.0004 400.899 55.0004 400.944 55.0004 400.99C55.0004 401.035 55.0004 401.081 55.0004 401.127C55.0004 401.173 55.0004 401.218 55.0004 401.264C55.0004 401.31 55.0004 401.356 55.0004 401.402C55.0004 401.448 55.0004 401.494 55.0004 401.54C55.0004 401.586 55.0004 401.632 55.0004 401.678C55.0004 401.724 55.0004 401.77 55.0004 401.816C55.0004 401.862 55.0004 401.908 55.0004 401.954C55.0004 402 55.0004 402.047 55.0004 402.093C55.0004 402.139 55.0004 402.185 55.0004 402.232C55.0004 402.278 55.0004 402.324 55.0004 402.371C55.0004 402.417 55.0004 402.463 55.0004 402.51C55.0004 402.556 55.0004 402.603 55.0004 402.649C55.0004 402.696 55.0004 402.742 55.0004 402.789C55.0004 402.836 55.0004 402.882 55.0004 402.929C55.0004 402.976 55.0004 403.022 55.0004 403.069C55.0004 403.116 55.0004 403.162 55.0004 403.209C55.0004 403.256 55.0004 403.303 55.0004 403.35C55.0004 403.396 55.0004 403.443 55.0004 403.49C55.0004 403.537 55.0004 403.584 55.0004 403.631C55.0004 403.678 55.0004 403.725 55.0004 403.772C55.0004 403.819 55.0004 403.866 55.0004 403.913C55.0004 403.96 55.0004 404.007 55.0004 404.055C55.0004 404.102 55.0004 404.149 55.0004 404.196C55.0004 404.243 55.0004 404.291 55.0004 404.338C55.0004 404.385 55.0004 404.432 55.0004 404.48C55.0004 404.527 55.0004 404.574 55.0004 404.622C55.0004 404.669 55.0004 404.717 55.0004 404.764C55.0004 404.811 55.0004 404.859 55.0004 404.906C55.0004 404.954 55.0004 405.001 55.0004 405.049C55.0004 405.097 55.0004 405.144 55.0004 405.192C55.0004 405.239 55.0004 405.287 55.0004 405.335C55.0004 405.382 55.0004 405.43 55.0004 405.478C55.0004 405.525 55.0004 405.573 55.0004 405.621C55.0004 405.669 55.0004 405.716 55.0004 405.764C55.0004 405.812 55.0004 405.86 55.0004 405.908C55.0004 405.956 55.0004 406.004 55.0004 406.051C55.0004 406.099 55.0004 406.147 55.0004 406.195C55.0004 406.243 55.0004 406.291 55.0004 406.339C55.0004 406.387 55.0004 406.435 55.0004 406.483C55.0004 406.531 55.0004 406.58 55.0004 406.628C55.0004 406.676 55.0004 406.724 55.0004 406.772C55.0004 406.82 55.0004 406.868 55.0004 406.917C55.0004 406.965 55.0004 407.013 55.0004 407.061C55.0004 407.11 55.0004 407.158 55.0004 407.206C55.0004 407.254 55.0004 407.303 55.0004 407.351C55.0004 407.399 55.0004 407.448 55.0004 407.496C55.0004 407.545 55.0004 407.593 55.0004 407.641C55.0004 407.69 55.0004 407.738 55.0004 407.787C55.0004 407.835 55.0004 407.884 55.0004 407.932C55.0004 407.981 55.0004 408.029 55.0004 408.078C55.0004 408.126 55.0004 408.175 55.0004 408.223C55.0004 408.272 55.0004 408.321 55.0004 408.369C55.0004 408.418 55.0004 408.467 55.0004 408.515C55.0004 408.564 55.0004 408.613 55.0004 408.661C55.0004 408.71 55.0004 408.759 55.0004 408.807C55.0004 408.856 55.0004 408.905 55.0004 408.954C55.0004 409.003 55.0004 409.051 55.0004 409.1C55.0004 409.149 55.0004 409.198 55.0004 409.247C55.0004 409.295 55.0004 409.344 55.0004 409.393C55.0004 409.442 55.0004 409.491 55.0004 409.54C55.0004 409.589 55.0004 409.638 55.0004 409.687C55.0004 409.736 55.0004 409.785 55.0004 409.834C55.0004 409.883 55.0004 409.932 55.0004 409.981C55.0004 410.03 55.0004 410.079 55.0004 410.128C55.0004 410.177 55.0004 410.226 55.0004 410.275C55.0004 410.324 55.0004 410.373 55.0004 410.422C55.0004 410.471 55.0004 410.52 55.0004 410.569C55.0004 410.619 55.0004 410.668 55.0004 410.717C55.0004 410.766 55.0004 410.815 55.0004 410.864C55.0004 410.914 55.0004 410.963 55.0004 411.012C55.0004 411.061 55.0004 411.11 55.0004 411.16C55.0004 411.209 55.0004 411.258 55.0004 411.307C55.0004 411.357 55.0004 411.406 55.0004 411.455C55.0004 411.505 55.0004 411.554 55.0004 411.603C55.0004 411.652 55.0004 411.702 55.0004 411.751C55.0004 411.8 55.0004 411.85 55.0004 411.899C55.0004 411.948 55.0004 411.998 55.0004 412.047C55.0004 412.097 55.0004 412.146 55.0004 412.195C55.0004 412.245 55.0004 412.294 55.0004 412.344C55.0004 412.393 55.0004 412.442 55.0004 412.492C55.0004 412.541 55.0004 412.591 55.0004 412.64C55.0004 412.69 55.0004 412.739 55.0004 412.789C55.0004 412.838 55.0004 412.888 55.0004 412.937C55.0004 412.987 55.0004 413.036 55.0004 413.086C55.0004 413.135 55.0004 413.185 55.0004 413.234C55.0004 413.284 55.0004 413.333 55.0004 413.383C55.0004 413.432 55.0004 413.482 55.0004 413.531C55.0004 413.581 55.0004 413.631 55.0004 413.68C55.0004 413.73 55.0004 413.779 55.0004 413.829C55.0004 413.878 55.0004 413.928 55.0004 413.978C55.0004 414.027 55.0004 414.077 55.0004 414.126C55.0004 414.176 55.0004 414.226 55.0004 414.275C55.0004 414.325 55.0004 414.374 55.0004 414.424C55.0004 414.474 55.0004 414.523 55.0004 414.573C55.0004 414.623 55.0004 414.672 55.0004 414.722C55.0004 414.772 55.0004 414.821 55.0004 414.871C55.0004 414.921 55.0004 414.97 55.0004 415.02C55.0004 415.069 55.0004 415.119 55.0004 415.169C55.0004 415.219 55.0004 415.268 55.0004 415.318C55.0004 415.368 55.0004 415.417 55.0004 415.467C55.0004 415.517 55.0004 415.566 55.0004 415.616C55.0004 415.666 55.0004 415.715 55.0004 415.765C55.0004 415.815 55.0004 415.864 55.0004 415.914C55.0004 415.964 55.0004 416.013 55.0004 416.063C55.0004 416.113 55.0004 416.163 55.0004 416.212C55.0004 416.262 55.0004 416.312 55.0004 416.361C55.0004 416.411 55.0004 416.461 55.0004 416.51C55.0004 416.56 55.0004 416.61 55.0004 416.66C55.0004 416.709 55.0004 416.759 55.0004 416.809C55.0004 416.858 55.0004 416.908 55.0004 416.958C55.0004 417.007 55.0004 417.057 55.0004 417.107C55.0004 417.157 55.0004 417.206 55.0004 417.256C55.0004 417.306 55.0004 417.355 55.0004 417.405C55.0004 417.455 55.0004 417.504 55.0004 417.554C55.0004 417.604 55.0004 417.653 55.0004 417.703C55.0004 417.753 55.0004 417.802 55.0004 417.852C55.0004 417.902 55.0004 417.951 55.0004 418.001C55.0004 418.051 55.0004 418.1 55.0004 418.15C55.0004 418.2 55.0004 418.249 55.0004 418.299C55.0004 418.349 55.0004 418.398 55.0004 418.448C55.0004 418.498 55.0004 418.547 55.0004 418.597C55.0004 418.647 55.0004 418.696 55.0004 418.746C55.0004 418.795 55.0004 418.845 55.0004 418.895C55.0004 418.944 55.0004 418.994 55.0004 419.044C55.0004 419.093 55.0004 419.143 55.0004 419.192C55.0004 419.242 55.0004 419.291 55.0004 419.341C55.0004 419.391 55.0004 419.44 55.0004 419.49C55.0004 419.539 55.0004 419.589 55.0004 419.638C55.0004 419.688 55.0004 419.738 55.0004 419.787C55.0004 419.837 55.0004 419.886 55.0004 419.936C55.0004 419.985 55.0004 420.035 55.0004 420.084C55.0004 420.134 55.0004 420.183 55.0004 420.233C55.0004 420.282 55.0004 420.332 55.0004 420.381C55.0004 420.431 55.0004 420.48 55.0004 420.529C55.0004 420.579 55.0004 420.628 55.0004 420.678C55.0004 420.727 55.0004 420.777 55.0004 420.826C55.0004 420.875 55.0004 420.925 55.0004 420.974C55.0004 421.024 55.0004 421.073 55.0004 421.122C55.0004 421.172 55.0004 421.221 55.0004 421.27C55.0004 421.32 55.0004 421.369 55.0004 421.418C55.0004 421.468 55.0004 421.517 55.0004 421.566C55.0004 421.616 55.0004 421.665 55.0004 421.714C55.0004 421.764 55.0004 421.813 55.0004 421.862C55.0004 421.911 55.0004 421.961 55.0004 422.01C55.0004 422.059 55.0004 422.108 55.0004 422.157C55.0004 422.207 55.0004 422.256 55.0004 422.305C55.0004 422.354 55.0004 422.403 55.0004 422.453C55.0004 422.502 55.0004 422.551 55.0004 422.6C55.0004 422.649 55.0004 422.698 55.0004 422.747C55.0004 422.796 55.0004 422.845 55.0004 422.895C55.0004 422.944 55.0004 422.993 55.0004 423.042C55.0004 423.091 55.0004 423.14 55.0004 423.189C55.0004 423.238 55.0004 423.287 55.0004 423.336C55.0004 423.385 55.0004 423.434 55.0004 423.482C55.0004 423.531 55.0004 423.58 55.0004 423.629C55.0004 423.678 55.0004 423.727 55.0004 423.776C55.0004 423.825 55.0004 423.874 55.0004 423.922C55.0004 423.971 55.0004 424.02 55.0004 424.069C55.0004 424.118 55.0004 424.167 55.0004 424.215C55.0004 424.264 55.0004 424.313 55.0004 424.362C55.0004 424.41 55.0004 424.459 55.0004 424.508C55.0004 424.556 55.0004 424.605 55.0004 424.654C55.0004 424.702 55.0004 424.751 55.0004 424.8C55.0004 424.848 55.0004 424.897 55.0004 424.945C55.0004 424.994 55.0004 425.042 55.0004 425.091C55.0004 425.14 55.0004 425.188 55.0004 425.237C55.0004 425.285 55.0004 425.333 55.0004 425.382C55.0004 425.43 55.0004 425.479 55.0004 425.527C55.0004 425.576 55.0004 425.624 55.0004 425.672C55.0004 425.721 55.0004 425.769 55.0004 425.817C55.0004 425.866 55.0004 425.914 55.0004 425.962C55.0004 426.011 55.0004 426.059 55.0004 426.107C55.0004 426.155 55.0004 426.204 55.0004 426.252C55.0004 426.3 55.0004 426.348 55.0004 426.396C55.0004 426.444 55.0004 426.493 55.0004 426.541C55.0004 426.589 55.0004 426.637 55.0004 426.685C55.0004 426.733 55.0004 426.781 55.0004 426.829C55.0004 426.877 55.0004 426.925 55.0004 426.973C55.0004 427.021 55.0004 427.069 55.0004 427.117C55.0004 427.164 55.0004 427.212 55.0004 427.26C55.0004 427.308 55.0004 427.356 55.0004 427.404C55.0004 427.451 55.0004 427.499 55.0004 427.547C55.0004 427.595 55.0004 427.642 55.0004 427.69C55.0004 427.738 55.0004 427.786 55.0004 427.833C55.0004 427.881 55.0004 427.928 55.0004 427.976C55.0004 428.024 55.0004 428.071 55.0004 428.119C55.0004 428.166 55.0004 428.214 55.0004 428.261C55.0004 428.309 55.0004 428.356 55.0004 428.404C55.0004 428.451 55.0004 428.498 55.0004 428.546C55.0004 428.593 55.0004 428.64 55.0004 428.688C55.0004 428.735 55.0004 428.782 55.0004 428.83C55.0004 428.877 55.0004 428.924 55.0004 428.971C55.0004 429.018 55.0004 429.066 55.0004 429.113C55.0004 429.16 55.0004 429.207 55.0004 429.254C55.0004 429.301 55.0004 429.348 55.0004 429.395C55.0004 429.442 55.0004 429.489 55.0004 429.536C55.0004 429.583 55.0004 429.63 55.0004 429.677C55.0004 429.724 55.0004 429.77 55.0004 429.817C55.0004 429.864 55.0004 429.911 55.0004 429.958C55.0004 430.004 55.0004 430.051 55.0004 430.098C55.0004 430.145 55.0004 430.191 55.0004 430.238C55.0004 430.284 55.0004 430.331 55.0004 430.378C55.0004 430.424 55.0004 430.471 55.0004 430.517C55.0004 430.564 55.0004 430.61 55.0004 430.657C55.0004 430.703 55.0004 430.749 55.0004 430.796C55.0004 430.842 55.0004 430.888 55.0004 430.935C55.0004 430.981 55.0004 431.027 55.0004 431.073C55.0004 431.12 55.0004 431.166 55.0004 431.212C55.0004 431.258 55.0004 431.304 55.0004 431.35C55.0004 431.396 55.0004 431.442 55.0004 431.488C55.0004 431.534 55.0004 431.58 55.0004 431.626C55.0004 431.672 55.0004 431.718 55.0004 431.764C55.0004 431.81 55.0004 431.856 55.0004 431.902C55.0004 431.947 55.0004 431.993 55.0004 432.039C55.0004 432.085 55.0004 432.13 55.0004 432.176C55.0004 432.221 55.0004 432.267 55.0004 432.313C55.0004 432.358 55.0004 432.404 55.0004 432.449C55.0004 432.495 55.0004 432.54 55.0004 432.586C55.0004 432.631 55.0004 432.676 55.0004 432.722C55.0004 432.767 55.0004 432.812 55.0004 432.858C55.0004 432.903 55.0004 432.948 55.0004 432.993C55.0004 433.038 55.0004 433.083 55.0004 433.129C55.0004 433.174 55.0004 433.219 55.0004 433.264C55.0004 433.309 55.0004 433.354 55.0004 433.399C55.0004 433.444 55.0004 433.488 55.0004 433.533C55.0004 433.578 55.0004 433.623 55.0004 433.668C55.0004 433.713 55.0004 433.757 55.0004 433.802C55.0004 433.847 55.0004 433.891 55.0004 433.936C55.0004 433.98 55.0004 434.025 55.0004 434.07C55.0004 434.114 55.0004 434.159 55.0004 434.203C55.0004 434.247 55.0004 434.292 55.0004 434.336C55.0004 434.38 55.0004 434.425 55.0004 434.469C55.0004 434.513 55.0004 434.557 55.0004 434.602C55.0004 434.646 55.0004 434.69 55.0004 434.734C55.0004 434.778 55.0004 434.822 55.0004 434.866C55.0004 434.91 55.0004 434.954 55.0004 434.998C55.0004 435.042 55.0004 435.086 55.0004 435.129C55.0004 435.173 55.0004 435.217 55.0004 435.261C55.0004 435.304 55.0004 435.348 55.0004 435.392C55.0004 435.435 55.0004 435.479 55.0004 435.523C55.0004 435.566 55.0004 435.61 55.0004 435.653C55.0004 435.696 55.0004 435.74 55.0004 435.783C55.0004 435.827 55.0004 435.87 55.0004 435.913C55.0004 435.956 55.0004 436 55.0004 436.043C55.0004 436.086 55.0004 436.129 55.0004 436.172C55.0004 436.215 55.0004 436.258 55.0004 436.301C55.0004 436.344 55.0004 436.387 55.0004 436.43C55.0004 436.473 55.0004 436.515 55.0004 436.558C55.0004 436.601 55.0004 436.644 55.0004 436.686C55.0004 436.729 55.0004 436.772 55.0004 436.814C55.0004 436.857 55.0004 436.899 55.0004 436.942C55.0004 436.984 55.0004 437.027 55.0004 437.069C55.0004 437.111 55.0004 437.154 55.0004 437.196C55.0004 437.238 55.0004 437.28 55.0004 437.323C55.0004 437.365 55.0004 437.407 55.0004 437.449C55.0004 437.491 55.0004 437.533 55.0004 437.575C55.0004 437.617 55.0004 437.659 55.0004 437.701C55.0004 437.743 55.0004 437.784 55.0004 437.826C55.0004 437.868 55.0004 437.91 55.0004 437.951C55.0004 437.993 55.0004 438.034 55.0004 438.076C55.0004 438.117 55.0004 438.159 55.0004 438.2C55.0004 438.242 55.0004 438.283 55.0004 438.325C55.0004 438.366 55.0004 438.407 55.0004 438.448C55.0004 438.49 55.0004 438.531 55.0004 438.572C55.0004 438.613 55.0004 438.654 55.0004 438.695C55.0004 438.736 55.0004 438.777 55.0004 438.818C55.0004 438.859 55.0004 438.899 55.0004 438.94C55.0004 438.981 55.0004 439.022 55.0004 439.062C55.0004 439.103 55.0004 439.144 55.0004 439.184C55.0004 439.225 55.0004 439.265 55.0004 439.306C55.0004 439.346 55.0004 439.386 55.0004 439.427C55.0004 439.467 55.0004 439.507 55.0004 439.547C55.0004 439.588 55.0004 439.628 55.0004 439.668C55.0004 439.708 55.0004 439.748 55.0004 439.788C55.0004 439.828 55.0004 439.868 55.0004 439.908C55.0004 439.948 55.0004 439.987 55.0004 440.027C55.0004 440.067 55.0004 440.107 55.0004 440.146C55.0004 440.186 55.0004 440.225 55.0004 440.265C55.0004 440.304 55.0004 440.344 55.0004 440.383C55.0004 440.422 55.0004 440.462 55.0004 440.501C55.0004 440.54 55.0004 440.58 55.0004 440.619C55.0004 440.658 55.0004 440.697 55.0004 440.736C55.0004 440.775 55.0004 440.814 55.0004 440.853C55.0004 440.892 55.0004 440.93 55.0004 440.969C55.0004 441.008 55.0004 441.047 55.0004 441.085C55.0004 441.124 55.0004 441.163 55.0004 441.201C55.0004 441.24 55.0004 441.278 55.0004 441.316C55.0004 441.355 55.0004 441.393 55.0004 441.431C55.0004 441.47 55.0004 441.508 55.0004 441.546C55.0004 441.584 55.0004 441.622 55.0004 441.66C55.0004 441.698 55.0004 441.736 55.0004 441.774C55.0004 441.812 55.0004 441.85 55.0004 441.888C55.0004 441.925 55.0004 441.963 55.0004 442.001C55.0004 442.038 55.0004 442.076 55.0004 442.113C55.0004 442.151 55.0004 442.188 55.0004 442.226C55.0004 442.263 55.0004 442.3 55.0004 442.337C55.0004 442.375 55.0004 442.412 55.0004 442.449C55.0004 442.486 55.0004 442.523 55.0004 442.56C55.0004 442.597 55.0004 442.634 55.0004 442.671C55.0004 442.708 55.0004 442.744 55.0004 442.781C55.0004 442.818 55.0004 442.854 55.0004 442.891C55.0004 442.927 55.0004 442.964 55.0004 443C55.0004 443.037 55.0004 443.073 55.0004 443.109C55.0004 443.146 55.0004 443.182 55.0004 443.218C55.0004 443.254 55.0004 443.29 55.0004 443.326C55.0004 443.362 55.0004 443.398 55.0004 443.434C55.0004 443.47 55.0004 443.506 55.0004 443.542C55.0004 443.577 55.0004 443.613 55.0004 443.649C55.0004 443.684 55.0004 443.72 55.0004 443.755C55.0004 443.791 55.0004 443.826 55.0004 443.861C55.0004 443.897 55.0004 443.932 55.0004 443.967C55.0004 444.002 55.0004 444.037 55.0004 444.072C55.0004 444.107 55.0004 444.142 55.0004 444.177C55.0004 444.212 55.0004 444.247 55.0004 444.282C55.0004 444.316 55.0004 444.351 55.0004 444.386C55.0004 444.42 55.0004 444.455 55.0004 444.489C55.0004 444.524 55.0004 444.558 55.0004 444.592C55.0004 444.627 55.0004 444.661 55.0004 444.695C55.0004 444.729 55.0004 444.763 55.0004 444.797C55.0004 444.831 55.0004 444.865 55.0004 444.899C55.0004 444.933 55.0004 444.967 55.0004 445C55.0004 445.034 55.0004 445.068 55.0004 445.101C55.0004 445.135 55.0004 445.168 55.0004 445.202C55.0004 445.235 55.0004 445.268 55.0004 445.302C55.0004 445.335 55.0004 445.368 55.0004 445.401C55.0004 445.434 55.0004 445.467 55.0004 445.5C55.0004 445.533 55.0004 445.566 55.0004 445.599C55.0004 445.632 55.0004 445.664 55.0004 445.697C55.0004 445.73 55.0004 445.762 55.0004 445.795C55.0004 445.827 55.0004 445.86 55.0004 445.892C55.0004 445.924 55.0004 445.956 55.0004 445.989C55.0004 446.021 55.0004 446.053 55.0004 446.085C55.0004 446.117 55.0004 446.149 55.0004 446.181C55.0004 446.213 55.0004 446.244 55.0004 446.276C55.0004 446.308 55.0004 446.339 55.0004 446.371C55.0004 446.403 55.0004 446.434 55.0004 446.465C55.0004 446.497 55.0004 446.528 55.0004 446.559C55.0004 446.59 55.0004 446.622 55.0004 446.653C55.0004 446.684 55.0004 446.715 55.0004 446.746C55.0004 446.777 55.0004 446.807 55.0004 446.838C55.0004 446.869 55.0004 446.899 55.0004 446.93C55.0004 446.961 55.0004 446.991 55.0004 447.022C55.0004 447.052 55.0004 447.082 55.0004 447.112C55.0004 447.143 55.0004 447.173 55.0004 447.203C55.0004 447.233 55.0004 447.263 55.0004 447.293C55.0004 447.323 55.0004 447.353 55.0004 447.382C55.0004 447.412 55.0004 447.442 55.0004 447.471C55.0004 447.501 55.0004 447.531 55.0004 447.56C55.0004 447.589 55.0004 447.619 55.0004 447.648C55.0004 447.677 55.0004 447.706 55.0004 447.735C55.0004 447.764 55.0004 447.793 55.0004 447.822C55.0004 447.851 55.0004 447.88 55.0004 447.909C55.0004 447.938 55.0004 447.966 55.0004 447.995C55.0004 448.023 55.0004 448.052 55.0004 448.08C55.0004 448.108 55.0004 448.137 55.0004 448.165C55.0004 448.193 55.0004 448.221 55.0004 448.249C55.0004 448.277 55.0004 448.305 55.0004 448.333C55.0004 448.361 55.0004 448.389 55.0004 448.417C55.0004 448.444 55.0004 448.472 55.0004 448.499C55.0004 448.527 55.0004 448.554 55.0004 448.582C55.0004 448.609 55.0004 448.636 55.0004 448.663C55.0004 448.691 55.0004 448.718 55.0004 448.745C55.0004 448.772 55.0004 448.798 55.0004 448.825C55.0004 448.852 55.0004 448.879 55.0004 448.905C55.0004 448.932 55.0004 448.959 55.0004 448.985C55.0004 449.011 55.0004 449.038 55.0004 449.064C55.0004 449.09 55.0004 449.116 55.0004 449.143C55.0004 449.169 55.0004 449.195 55.0004 449.221C55.0004 449.246 55.0004 449.272 55.0004 449.298C55.0004 449.324 55.0004 449.349 55.0004 449.375C55.0004 449.4 55.0004 449.426 55.0004 449.451C55.0004 449.476 55.0004 449.502 55.0004 449.527C55.0004 449.552 55.0004 449.577 55.0004 449.602C55.0004 449.627 55.0004 449.652 55.0004 449.677C55.0004 449.702 55.0004 449.726 55.0004 449.751C55.0004 449.775 55.0004 449.8 55.0004 449.824C55.0004 449.849 55.0004 449.873 55.0004 449.897C55.0004 449.922 55.0004 449.946 55.0004 449.97C55.0004 449.994 55.0004 450.018 55.0004 450.042C55.0004 450.065 55.0004 450.089 55.0004 450.113C55.0004 450.136 55.0004 450.16 55.0004 450.183C55.0004 450.207 55.0004 450.23 55.0004 450.254C55.0004 450.277 55.0004 450.3 55.0004 450.323C55.0004 450.346 55.0004 450.369 55.0004 450.392C55.0004 450.415 55.0004 450.438 55.0004 450.46C55.0004 450.483 55.0004 450.506 55.0004 450.528C55.0004 450.551 55.0004 450.573 55.0004 450.595C55.0004 450.618 55.0004 450.64 55.0004 450.662C55.0004 450.684 55.0004 450.706 55.0004 450.728C55.0004 450.75 55.0004 450.772 55.0004 450.793C55.0004 450.815 55.0004 450.837 55.0004 450.858C55.0004 450.88 55.0004 450.901 55.0004 450.922C55.0004 450.944 55.0004 450.965 55.0004 450.986C55.0004 451.007 55.0004 451.028 55.0004 451.049C55.0004 451.07 55.0004 451.091 55.0004 451.112C55.0004 451.132 55.0004 451.153 55.0004 451.173C55.0004 451.194 55.0004 451.214 55.0004 451.235C55.0004 451.255 55.0004 451.275 55.0004 451.295C55.0004 451.315 55.0004 451.335 55.0004 451.355C55.0004 451.375 55.0004 451.395 55.0004 451.415C55.0004 451.434 55.0004 451.454 55.0004 451.473C55.0004 451.493 55.0004 451.512 55.0004 451.532C55.0004 451.551 55.0004 451.57 55.0004 451.589C55.0004 451.608 55.0004 451.627 55.0004 451.646C55.0004 451.665 55.0004 451.684 55.0004 451.702C55.0004 451.721 55.0004 451.74 55.0004 451.758C55.0004 451.776 55.0004 451.795 55.0004 451.813C55.0004 451.831 55.0004 451.849 55.0004 451.867C55.0004 451.886 55.0004 451.903 55.0004 451.921C55.0004 451.939 55.0004 451.957 55.0004 451.974C55.0004 451.992 55.0004 452.01 55.0004 452.027C55.0004 452.044 55.0004 452.062 55.0004 452.079C55.0004 452.096 55.0004 452.113 55.0004 452.13C55.0004 452.147 55.0004 452.164 55.0004 452.181C55.0004 452.197 55.0004 452.214 55.0004 452.231C55.0004 452.247 55.0004 452.264 55.0004 452.28C55.0004 452.296 55.0004 452.312 55.0004 452.328C55.0004 452.345 55.0004 452.361 55.0004 452.376C55.0004 452.392 55.0004 452.408 55.0004 452.424C55.0004 452.44 55.0004 452.455 55.0004 452.471C55.0004 452.486 55.0004 452.501 55.0004 452.517C55.0004 452.532 55.0004 452.547 55.0004 452.562C55.0004 452.577 55.0004 452.592 55.0004 452.607C55.0004 452.621 55.0004 452.636 55.0004 452.651C55.0004 452.665 55.0004 452.68 55.0004 452.694C55.0004 452.708 55.0004 452.723 55.0004 452.737C55.0004 452.751 55.0004 452.765 55.0004 452.779C55.0004 452.793 55.0004 452.807 55.0004 452.82C55.0004 452.834 55.0004 452.847 55.0004 452.861C55.0004 452.874 55.0004 452.888 55.0004 452.901C55.0004 452.914 55.0004 452.927 55.0004 452.94C55.0004 452.953 55.0004 452.966 55.0004 452.979C55.0004 452.992 55.0004 453.004 55.0004 453.017C55.0004 453.029 55.0004 453.042 55.0004 453.054C55.0004 453.067 55.0004 453.079 55.0004 453.091C55.0004 453.103 55.0004 453.115 55.0004 453.127C55.0004 453.139 55.0004 453.15 55.0004 453.162C55.0004 453.174 55.0004 453.185 55.0004 453.197C55.0004 453.208 55.0004 453.219 55.0004 453.23C55.0004 453.242 55.0004 453.253 55.0004 453.264C55.0004 453.274 55.0004 453.285 55.0004 453.296C55.0004 453.307 55.0004 453.317 55.0004 453.328C55.0004 453.338 55.0004 453.349 55.0004 453.359C55.0004 453.369 55.0004 453.379 55.0004 453.389C55.0004 453.399 55.0004 453.409 55.0004 453.419C55.0004 453.428 55.0004 453.438 55.0004 453.448C55.0004 453.457 55.0004 453.467 55.0004 453.476C55.0004 453.485 55.0004 453.494 55.0004 453.503C55.0004 453.512 55.0004 453.521 55.0004 453.53C55.0004 453.539 55.0004 453.548 55.0004 453.556C55.0004 453.565 55.0004 453.573 55.0004 453.582C55.0004 453.59 55.0004 453.598 55.0004 453.606C55.0004 453.614 55.0004 453.622 55.0004 453.63C55.0004 453.638 55.0004 453.646 55.0004 453.653C55.0004 453.661 55.0004 453.668 55.0004 453.676C55.0004 453.683 55.0004 453.69 55.0004 453.697C55.0004 453.704 55.0004 453.711 55.0004 453.718C55.0004 453.725 55.0004 453.732 55.0004 453.739C55.0004 453.745 55.0004 453.752 55.0004 453.758C55.0004 453.764 55.0004 453.771 55.0004 453.777C55.0004 453.783 55.0004 453.789 55.0004 453.795C55.0004 453.801 55.0004 453.807 55.0004 453.812C55.0004 453.818 55.0004 453.823 55.0004 453.829C55.0004 453.834 55.0004 453.839 55.0004 453.844C55.0004 453.85 55.0004 453.855 55.0004 453.859C55.0004 453.864 55.0004 453.869 55.0004 453.874C55.0004 453.878 55.0004 453.883 55.0004 453.887C55.0004 453.892 55.0004 453.896 55.0004 453.9C55.0004 453.904 55.0004 453.908 55.0004 453.912C55.0004 453.916 55.0004 453.92 55.0004 453.923C55.0004 453.927 55.0004 453.931 55.0004 453.934C55.0004 453.937 55.0004 453.94 55.0004 453.944C55.0004 453.947 55.0004 453.95 55.0004 453.953C55.0004 453.955 55.0004 453.958 55.0004 453.961C55.0004 453.963 55.0004 453.966 55.0004 453.968C55.0004 453.971 55.0004 453.973 55.0004 453.975C55.0004 453.977 55.0004 453.979 55.0004 453.981C55.0004 453.983 55.0004 453.984 55.0004 453.986C55.0004 453.987 55.0004 453.989 55.0004 453.99C55.0004 453.991 55.0004 453.993 55.0004 453.994C55.0004 453.995 55.0004 453.996 55.0004 453.996C55.0004 453.997 55.0004 453.998 55.0004 453.998C55.0004 453.999 55.0004 453.999 55.0004 454C55.0004 454 55.0004 454 56.0004 454C57.0004 454 57.0004 454 57.0004 454C57.0004 453.999 57.0004 453.999 57.0004 453.998C57.0004 453.998 57.0004 453.997 57.0004 453.996C57.0004 453.996 57.0004 453.995 57.0004 453.994C57.0004 453.993 57.0004 453.991 57.0004 453.99C57.0004 453.989 57.0004 453.987 57.0004 453.986C57.0004 453.984 57.0004 453.983 57.0004 453.981C57.0004 453.979 57.0004 453.977 57.0004 453.975C57.0004 453.973 57.0004 453.971 57.0004 453.968C57.0004 453.966 57.0004 453.963 57.0004 453.961C57.0004 453.958 57.0004 453.955 57.0004 453.953C57.0004 453.95 57.0004 453.947 57.0004 453.944C57.0004 453.94 57.0004 453.937 57.0004 453.934C57.0004 453.931 57.0004 453.927 57.0004 453.923C57.0004 453.92 57.0004 453.916 57.0004 453.912C57.0004 453.908 57.0004 453.904 57.0004 453.9C57.0004 453.896 57.0004 453.892 57.0004 453.887C57.0004 453.883 57.0004 453.878 57.0004 453.874C57.0004 453.869 57.0004 453.864 57.0004 453.859C57.0004 453.855 57.0004 453.85 57.0004 453.844C57.0004 453.839 57.0004 453.834 57.0004 453.829C57.0004 453.823 57.0004 453.818 57.0004 453.812C57.0004 453.807 57.0004 453.801 57.0004 453.795C57.0004 453.789 57.0004 453.783 57.0004 453.777C57.0004 453.771 57.0004 453.764 57.0004 453.758C57.0004 453.752 57.0004 453.745 57.0004 453.739C57.0004 453.732 57.0004 453.725 57.0004 453.718C57.0004 453.711 57.0004 453.704 57.0004 453.697C57.0004 453.69 57.0004 453.683 57.0004 453.676C57.0004 453.668 57.0004 453.661 57.0004 453.653C57.0004 453.646 57.0004 453.638 57.0004 453.63C57.0004 453.622 57.0004 453.614 57.0004 453.606C57.0004 453.598 57.0004 453.59 57.0004 453.582C57.0004 453.573 57.0004 453.565 57.0004 453.556C57.0004 453.548 57.0004 453.539 57.0004 453.53C57.0004 453.521 57.0004 453.512 57.0004 453.503C57.0004 453.494 57.0004 453.485 57.0004 453.476C57.0004 453.467 57.0004 453.457 57.0004 453.448C57.0004 453.438 57.0004 453.428 57.0004 453.419C57.0004 453.409 57.0004 453.399 57.0004 453.389C57.0004 453.379 57.0004 453.369 57.0004 453.359C57.0004 453.349 57.0004 453.338 57.0004 453.328C57.0004 453.317 57.0004 453.307 57.0004 453.296C57.0004 453.285 57.0004 453.274 57.0004 453.264C57.0004 453.253 57.0004 453.242 57.0004 453.23C57.0004 453.219 57.0004 453.208 57.0004 453.197C57.0004 453.185 57.0004 453.174 57.0004 453.162C57.0004 453.15 57.0004 453.139 57.0004 453.127C57.0004 453.115 57.0004 453.103 57.0004 453.091C57.0004 453.079 57.0004 453.067 57.0004 453.054C57.0004 453.042 57.0004 453.029 57.0004 453.017C57.0004 453.004 57.0004 452.992 57.0004 452.979C57.0004 452.966 57.0004 452.953 57.0004 452.94C57.0004 452.927 57.0004 452.914 57.0004 452.901C57.0004 452.888 57.0004 452.874 57.0004 452.861C57.0004 452.847 57.0004 452.834 57.0004 452.82C57.0004 452.807 57.0004 452.793 57.0004 452.779C57.0004 452.765 57.0004 452.751 57.0004 452.737C57.0004 452.723 57.0004 452.708 57.0004 452.694C57.0004 452.68 57.0004 452.665 57.0004 452.651C57.0004 452.636 57.0004 452.621 57.0004 452.607C57.0004 452.592 57.0004 452.577 57.0004 452.562C57.0004 452.547 57.0004 452.532 57.0004 452.517C57.0004 452.501 57.0004 452.486 57.0004 452.471C57.0004 452.455 57.0004 452.44 57.0004 452.424C57.0004 452.408 57.0004 452.392 57.0004 452.376C57.0004 452.361 57.0004 452.345 57.0004 452.328C57.0004 452.312 57.0004 452.296 57.0004 452.28C57.0004 452.264 57.0004 452.247 57.0004 452.231C57.0004 452.214 57.0004 452.197 57.0004 452.181C57.0004 452.164 57.0004 452.147 57.0004 452.13C57.0004 452.113 57.0004 452.096 57.0004 452.079C57.0004 452.062 57.0004 452.044 57.0004 452.027C57.0004 452.01 57.0004 451.992 57.0004 451.974C57.0004 451.957 57.0004 451.939 57.0004 451.921C57.0004 451.903 57.0004 451.886 57.0004 451.867C57.0004 451.849 57.0004 451.831 57.0004 451.813C57.0004 451.795 57.0004 451.776 57.0004 451.758C57.0004 451.74 57.0004 451.721 57.0004 451.702C57.0004 451.684 57.0004 451.665 57.0004 451.646C57.0004 451.627 57.0004 451.608 57.0004 451.589C57.0004 451.57 57.0004 451.551 57.0004 451.532C57.0004 451.512 57.0004 451.493 57.0004 451.473C57.0004 451.454 57.0004 451.434 57.0004 451.415C57.0004 451.395 57.0004 451.375 57.0004 451.355C57.0004 451.335 57.0004 451.315 57.0004 451.295C57.0004 451.275 57.0004 451.255 57.0004 451.235C57.0004 451.214 57.0004 451.194 57.0004 451.173C57.0004 451.153 57.0004 451.132 57.0004 451.112C57.0004 451.091 57.0004 451.07 57.0004 451.049C57.0004 451.028 57.0004 451.007 57.0004 450.986C57.0004 450.965 57.0004 450.944 57.0004 450.922C57.0004 450.901 57.0004 450.88 57.0004 450.858C57.0004 450.837 57.0004 450.815 57.0004 450.793C57.0004 450.772 57.0004 450.75 57.0004 450.728C57.0004 450.706 57.0004 450.684 57.0004 450.662C57.0004 450.64 57.0004 450.618 57.0004 450.595C57.0004 450.573 57.0004 450.551 57.0004 450.528C57.0004 450.506 57.0004 450.483 57.0004 450.46C57.0004 450.438 57.0004 450.415 57.0004 450.392C57.0004 450.369 57.0004 450.346 57.0004 450.323C57.0004 450.3 57.0004 450.277 57.0004 450.254C57.0004 450.23 57.0004 450.207 57.0004 450.183C57.0004 450.16 57.0004 450.136 57.0004 450.113C57.0004 450.089 57.0004 450.065 57.0004 450.042C57.0004 450.018 57.0004 449.994 57.0004 449.97C57.0004 449.946 57.0004 449.922 57.0004 449.897C57.0004 449.873 57.0004 449.849 57.0004 449.824C57.0004 449.8 57.0004 449.775 57.0004 449.751C57.0004 449.726 57.0004 449.702 57.0004 449.677C57.0004 449.652 57.0004 449.627 57.0004 449.602C57.0004 449.577 57.0004 449.552 57.0004 449.527C57.0004 449.502 57.0004 449.476 57.0004 449.451C57.0004 449.426 57.0004 449.4 57.0004 449.375C57.0004 449.349 57.0004 449.324 57.0004 449.298C57.0004 449.272 57.0004 449.246 57.0004 449.221C57.0004 449.195 57.0004 449.169 57.0004 449.143C57.0004 449.116 57.0004 449.09 57.0004 449.064C57.0004 449.038 57.0004 449.011 57.0004 448.985C57.0004 448.959 57.0004 448.932 57.0004 448.905C57.0004 448.879 57.0004 448.852 57.0004 448.825C57.0004 448.798 57.0004 448.772 57.0004 448.745C57.0004 448.718 57.0004 448.691 57.0004 448.663C57.0004 448.636 57.0004 448.609 57.0004 448.582C57.0004 448.554 57.0004 448.527 57.0004 448.499C57.0004 448.472 57.0004 448.444 57.0004 448.417C57.0004 448.389 57.0004 448.361 57.0004 448.333C57.0004 448.305 57.0004 448.277 57.0004 448.249C57.0004 448.221 57.0004 448.193 57.0004 448.165C57.0004 448.137 57.0004 448.108 57.0004 448.08C57.0004 448.052 57.0004 448.023 57.0004 447.995C57.0004 447.966 57.0004 447.938 57.0004 447.909C57.0004 447.88 57.0004 447.851 57.0004 447.822C57.0004 447.793 57.0004 447.764 57.0004 447.735C57.0004 447.706 57.0004 447.677 57.0004 447.648C57.0004 447.619 57.0004 447.589 57.0004 447.56C57.0004 447.531 57.0004 447.501 57.0004 447.471C57.0004 447.442 57.0004 447.412 57.0004 447.382C57.0004 447.353 57.0004 447.323 57.0004 447.293C57.0004 447.263 57.0004 447.233 57.0004 447.203C57.0004 447.173 57.0004 447.143 57.0004 447.112C57.0004 447.082 57.0004 447.052 57.0004 447.022C57.0004 446.991 57.0004 446.961 57.0004 446.93C57.0004 446.899 57.0004 446.869 57.0004 446.838C57.0004 446.807 57.0004 446.777 57.0004 446.746C57.0004 446.715 57.0004 446.684 57.0004 446.653C57.0004 446.622 57.0004 446.59 57.0004 446.559C57.0004 446.528 57.0004 446.497 57.0004 446.465C57.0004 446.434 57.0004 446.403 57.0004 446.371C57.0004 446.339 57.0004 446.308 57.0004 446.276C57.0004 446.244 57.0004 446.213 57.0004 446.181C57.0004 446.149 57.0004 446.117 57.0004 446.085C57.0004 446.053 57.0004 446.021 57.0004 445.989C57.0004 445.956 57.0004 445.924 57.0004 445.892C57.0004 445.86 57.0004 445.827 57.0004 445.795C57.0004 445.762 57.0004 445.73 57.0004 445.697C57.0004 445.664 57.0004 445.632 57.0004 445.599C57.0004 445.566 57.0004 445.533 57.0004 445.5C57.0004 445.467 57.0004 445.434 57.0004 445.401C57.0004 445.368 57.0004 445.335 57.0004 445.302C57.0004 445.268 57.0004 445.235 57.0004 445.202C57.0004 445.168 57.0004 445.135 57.0004 445.101C57.0004 445.068 57.0004 445.034 57.0004 445C57.0004 444.967 57.0004 444.933 57.0004 444.899C57.0004 444.865 57.0004 444.831 57.0004 444.797C57.0004 444.763 57.0004 444.729 57.0004 444.695C57.0004 444.661 57.0004 444.627 57.0004 444.592C57.0004 444.558 57.0004 444.524 57.0004 444.489C57.0004 444.455 57.0004 444.42 57.0004 444.386C57.0004 444.351 57.0004 444.316 57.0004 444.282C57.0004 444.247 57.0004 444.212 57.0004 444.177C57.0004 444.142 57.0004 444.107 57.0004 444.072C57.0004 444.037 57.0004 444.002 57.0004 443.967C57.0004 443.932 57.0004 443.897 57.0004 443.861C57.0004 443.826 57.0004 443.791 57.0004 443.755C57.0004 443.72 57.0004 443.684 57.0004 443.649C57.0004 443.613 57.0004 443.577 57.0004 443.542C57.0004 443.506 57.0004 443.47 57.0004 443.434C57.0004 443.398 57.0004 443.362 57.0004 443.326C57.0004 443.29 57.0004 443.254 57.0004 443.218C57.0004 443.182 57.0004 443.146 57.0004 443.109C57.0004 443.073 57.0004 443.037 57.0004 443C57.0004 442.964 57.0004 442.927 57.0004 442.891C57.0004 442.854 57.0004 442.818 57.0004 442.781C57.0004 442.744 57.0004 442.708 57.0004 442.671C57.0004 442.634 57.0004 442.597 57.0004 442.56C57.0004 442.523 57.0004 442.486 57.0004 442.449C57.0004 442.412 57.0004 442.375 57.0004 442.337C57.0004 442.3 57.0004 442.263 57.0004 442.226C57.0004 442.188 57.0004 442.151 57.0004 442.113C57.0004 442.076 57.0004 442.038 57.0004 442.001C57.0004 441.963 57.0004 441.925 57.0004 441.888C57.0004 441.85 57.0004 441.812 57.0004 441.774C57.0004 441.736 57.0004 441.698 57.0004 441.66C57.0004 441.622 57.0004 441.584 57.0004 441.546C57.0004 441.508 57.0004 441.47 57.0004 441.431C57.0004 441.393 57.0004 441.355 57.0004 441.316C57.0004 441.278 57.0004 441.24 57.0004 441.201C57.0004 441.163 57.0004 441.124 57.0004 441.085C57.0004 441.047 57.0004 441.008 57.0004 440.969C57.0004 440.93 57.0004 440.892 57.0004 440.853C57.0004 440.814 57.0004 440.775 57.0004 440.736C57.0004 440.697 57.0004 440.658 57.0004 440.619C57.0004 440.58 57.0004 440.54 57.0004 440.501C57.0004 440.462 57.0004 440.422 57.0004 440.383C57.0004 440.344 57.0004 440.304 57.0004 440.265C57.0004 440.225 57.0004 440.186 57.0004 440.146C57.0004 440.107 57.0004 440.067 57.0004 440.027C57.0004 439.987 57.0004 439.948 57.0004 439.908C57.0004 439.868 57.0004 439.828 57.0004 439.788C57.0004 439.748 57.0004 439.708 57.0004 439.668C57.0004 439.628 57.0004 439.588 57.0004 439.547C57.0004 439.507 57.0004 439.467 57.0004 439.427C57.0004 439.386 57.0004 439.346 57.0004 439.306C57.0004 439.265 57.0004 439.225 57.0004 439.184C57.0004 439.144 57.0004 439.103 57.0004 439.062C57.0004 439.022 57.0004 438.981 57.0004 438.94C57.0004 438.899 57.0004 438.859 57.0004 438.818C57.0004 438.777 57.0004 438.736 57.0004 438.695C57.0004 438.654 57.0004 438.613 57.0004 438.572C57.0004 438.531 57.0004 438.49 57.0004 438.448C57.0004 438.407 57.0004 438.366 57.0004 438.325C57.0004 438.283 57.0004 438.242 57.0004 438.2C57.0004 438.159 57.0004 438.117 57.0004 438.076C57.0004 438.034 57.0004 437.993 57.0004 437.951C57.0004 437.91 57.0004 437.868 57.0004 437.826C57.0004 437.784 57.0004 437.743 57.0004 437.701C57.0004 437.659 57.0004 437.617 57.0004 437.575C57.0004 437.533 57.0004 437.491 57.0004 437.449C57.0004 437.407 57.0004 437.365 57.0004 437.323C57.0004 437.28 57.0004 437.238 57.0004 437.196C57.0004 437.154 57.0004 437.111 57.0004 437.069C57.0004 437.027 57.0004 436.984 57.0004 436.942C57.0004 436.899 57.0004 436.857 57.0004 436.814C57.0004 436.772 57.0004 436.729 57.0004 436.686C57.0004 436.644 57.0004 436.601 57.0004 436.558C57.0004 436.515 57.0004 436.473 57.0004 436.43C57.0004 436.387 57.0004 436.344 57.0004 436.301C57.0004 436.258 57.0004 436.215 57.0004 436.172C57.0004 436.129 57.0004 436.086 57.0004 436.043C57.0004 436 57.0004 435.956 57.0004 435.913C57.0004 435.87 57.0004 435.827 57.0004 435.783C57.0004 435.74 57.0004 435.696 57.0004 435.653C57.0004 435.61 57.0004 435.566 57.0004 435.523C57.0004 435.479 57.0004 435.435 57.0004 435.392C57.0004 435.348 57.0004 435.304 57.0004 435.261C57.0004 435.217 57.0004 435.173 57.0004 435.129C57.0004 435.086 57.0004 435.042 57.0004 434.998C57.0004 434.954 57.0004 434.91 57.0004 434.866C57.0004 434.822 57.0004 434.778 57.0004 434.734C57.0004 434.69 57.0004 434.646 57.0004 434.602C57.0004 434.557 57.0004 434.513 57.0004 434.469C57.0004 434.425 57.0004 434.38 57.0004 434.336C57.0004 434.292 57.0004 434.247 57.0004 434.203C57.0004 434.159 57.0004 434.114 57.0004 434.07C57.0004 434.025 57.0004 433.98 57.0004 433.936C57.0004 433.891 57.0004 433.847 57.0004 433.802C57.0004 433.757 57.0004 433.713 57.0004 433.668C57.0004 433.623 57.0004 433.578 57.0004 433.533C57.0004 433.488 57.0004 433.444 57.0004 433.399C57.0004 433.354 57.0004 433.309 57.0004 433.264C57.0004 433.219 57.0004 433.174 57.0004 433.129C57.0004 433.083 57.0004 433.038 57.0004 432.993C57.0004 432.948 57.0004 432.903 57.0004 432.858C57.0004 432.812 57.0004 432.767 57.0004 432.722C57.0004 432.676 57.0004 432.631 57.0004 432.586C57.0004 432.54 57.0004 432.495 57.0004 432.449C57.0004 432.404 57.0004 432.358 57.0004 432.313C57.0004 432.267 57.0004 432.221 57.0004 432.176C57.0004 432.13 57.0004 432.085 57.0004 432.039C57.0004 431.993 57.0004 431.947 57.0004 431.902C57.0004 431.856 57.0004 431.81 57.0004 431.764C57.0004 431.718 57.0004 431.672 57.0004 431.626C57.0004 431.58 57.0004 431.534 57.0004 431.488C57.0004 431.442 57.0004 431.396 57.0004 431.35C57.0004 431.304 57.0004 431.258 57.0004 431.212C57.0004 431.166 57.0004 431.12 57.0004 431.073C57.0004 431.027 57.0004 430.981 57.0004 430.935C57.0004 430.888 57.0004 430.842 57.0004 430.796C57.0004 430.749 57.0004 430.703 57.0004 430.657C57.0004 430.61 57.0004 430.564 57.0004 430.517C57.0004 430.471 57.0004 430.424 57.0004 430.378C57.0004 430.331 57.0004 430.284 57.0004 430.238C57.0004 430.191 57.0004 430.145 57.0004 430.098C57.0004 430.051 57.0004 430.004 57.0004 429.958C57.0004 429.911 57.0004 429.864 57.0004 429.817C57.0004 429.77 57.0004 429.724 57.0004 429.677C57.0004 429.63 57.0004 429.583 57.0004 429.536C57.0004 429.489 57.0004 429.442 57.0004 429.395C57.0004 429.348 57.0004 429.301 57.0004 429.254C57.0004 429.207 57.0004 429.16 57.0004 429.113C57.0004 429.066 57.0004 429.018 57.0004 428.971C57.0004 428.924 57.0004 428.877 57.0004 428.83C57.0004 428.782 57.0004 428.735 57.0004 428.688C57.0004 428.64 57.0004 428.593 57.0004 428.546C57.0004 428.498 57.0004 428.451 57.0004 428.404C57.0004 428.356 57.0004 428.309 57.0004 428.261C57.0004 428.214 57.0004 428.166 57.0004 428.119C57.0004 428.071 57.0004 428.024 57.0004 427.976C57.0004 427.928 57.0004 427.881 57.0004 427.833C57.0004 427.786 57.0004 427.738 57.0004 427.69C57.0004 427.642 57.0004 427.595 57.0004 427.547C57.0004 427.499 57.0004 427.451 57.0004 427.404C57.0004 427.356 57.0004 427.308 57.0004 427.26C57.0004 427.212 57.0004 427.164 57.0004 427.117C57.0004 427.069 57.0004 427.021 57.0004 426.973C57.0004 426.925 57.0004 426.877 57.0004 426.829C57.0004 426.781 57.0004 426.733 57.0004 426.685C57.0004 426.637 57.0004 426.589 57.0004 426.541C57.0004 426.493 57.0004 426.444 57.0004 426.396C57.0004 426.348 57.0004 426.3 57.0004 426.252C57.0004 426.204 57.0004 426.155 57.0004 426.107C57.0004 426.059 57.0004 426.011 57.0004 425.962C57.0004 425.914 57.0004 425.866 57.0004 425.817C57.0004 425.769 57.0004 425.721 57.0004 425.672C57.0004 425.624 57.0004 425.576 57.0004 425.527C57.0004 425.479 57.0004 425.43 57.0004 425.382C57.0004 425.333 57.0004 425.285 57.0004 425.237C57.0004 425.188 57.0004 425.14 57.0004 425.091C57.0004 425.042 57.0004 424.994 57.0004 424.945C57.0004 424.897 57.0004 424.848 57.0004 424.8C57.0004 424.751 57.0004 424.702 57.0004 424.654C57.0004 424.605 57.0004 424.556 57.0004 424.508C57.0004 424.459 57.0004 424.41 57.0004 424.362C57.0004 424.313 57.0004 424.264 57.0004 424.215C57.0004 424.167 57.0004 424.118 57.0004 424.069C57.0004 424.02 57.0004 423.971 57.0004 423.922C57.0004 423.874 57.0004 423.825 57.0004 423.776C57.0004 423.727 57.0004 423.678 57.0004 423.629C57.0004 423.58 57.0004 423.531 57.0004 423.482C57.0004 423.434 57.0004 423.385 57.0004 423.336C57.0004 423.287 57.0004 423.238 57.0004 423.189C57.0004 423.14 57.0004 423.091 57.0004 423.042C57.0004 422.993 57.0004 422.944 57.0004 422.895C57.0004 422.845 57.0004 422.796 57.0004 422.747C57.0004 422.698 57.0004 422.649 57.0004 422.6C57.0004 422.551 57.0004 422.502 57.0004 422.453C57.0004 422.403 57.0004 422.354 57.0004 422.305C57.0004 422.256 57.0004 422.207 57.0004 422.157C57.0004 422.108 57.0004 422.059 57.0004 422.01C57.0004 421.961 57.0004 421.911 57.0004 421.862C57.0004 421.813 57.0004 421.764 57.0004 421.714C57.0004 421.665 57.0004 421.616 57.0004 421.566C57.0004 421.517 57.0004 421.468 57.0004 421.418C57.0004 421.369 57.0004 421.32 57.0004 421.27C57.0004 421.221 57.0004 421.172 57.0004 421.122C57.0004 421.073 57.0004 421.024 57.0004 420.974C57.0004 420.925 57.0004 420.875 57.0004 420.826C57.0004 420.777 57.0004 420.727 57.0004 420.678C57.0004 420.628 57.0004 420.579 57.0004 420.529C57.0004 420.48 57.0004 420.431 57.0004 420.381C57.0004 420.332 57.0004 420.282 57.0004 420.233C57.0004 420.183 57.0004 420.134 57.0004 420.084C57.0004 420.035 57.0004 419.985 57.0004 419.936C57.0004 419.886 57.0004 419.837 57.0004 419.787C57.0004 419.738 57.0004 419.688 57.0004 419.638C57.0004 419.589 57.0004 419.539 57.0004 419.49C57.0004 419.44 57.0004 419.391 57.0004 419.341C57.0004 419.291 57.0004 419.242 57.0004 419.192C57.0004 419.143 57.0004 419.093 57.0004 419.044C57.0004 418.994 57.0004 418.944 57.0004 418.895C57.0004 418.845 57.0004 418.795 57.0004 418.746C57.0004 418.696 57.0004 418.647 57.0004 418.597C57.0004 418.547 57.0004 418.498 57.0004 418.448C57.0004 418.398 57.0004 418.349 57.0004 418.299C57.0004 418.249 57.0004 418.2 57.0004 418.15C57.0004 418.1 57.0004 418.051 57.0004 418.001C57.0004 417.951 57.0004 417.902 57.0004 417.852C57.0004 417.802 57.0004 417.753 57.0004 417.703C57.0004 417.653 57.0004 417.604 57.0004 417.554C57.0004 417.504 57.0004 417.455 57.0004 417.405C57.0004 417.355 57.0004 417.306 57.0004 417.256C57.0004 417.206 57.0004 417.157 57.0004 417.107C57.0004 417.057 57.0004 417.007 57.0004 416.958C57.0004 416.908 57.0004 416.858 57.0004 416.809C57.0004 416.759 57.0004 416.709 57.0004 416.66C57.0004 416.61 57.0004 416.56 57.0004 416.51C57.0004 416.461 57.0004 416.411 57.0004 416.361C57.0004 416.312 57.0004 416.262 57.0004 416.212C57.0004 416.163 57.0004 416.113 57.0004 416.063C57.0004 416.013 57.0004 415.964 57.0004 415.914C57.0004 415.864 57.0004 415.815 57.0004 415.765C57.0004 415.715 57.0004 415.666 57.0004 415.616C57.0004 415.566 57.0004 415.517 57.0004 415.467C57.0004 415.417 57.0004 415.368 57.0004 415.318C57.0004 415.268 57.0004 415.219 57.0004 415.169C57.0004 415.119 57.0004 415.069 57.0004 415.02C57.0004 414.97 57.0004 414.921 57.0004 414.871C57.0004 414.821 57.0004 414.772 57.0004 414.722C57.0004 414.672 57.0004 414.623 57.0004 414.573C57.0004 414.523 57.0004 414.474 57.0004 414.424C57.0004 414.374 57.0004 414.325 57.0004 414.275C57.0004 414.226 57.0004 414.176 57.0004 414.126C57.0004 414.077 57.0004 414.027 57.0004 413.978C57.0004 413.928 57.0004 413.878 57.0004 413.829C57.0004 413.779 57.0004 413.73 57.0004 413.68C57.0004 413.631 57.0004 413.581 57.0004 413.531C57.0004 413.482 57.0004 413.432 57.0004 413.383C57.0004 413.333 57.0004 413.284 57.0004 413.234C57.0004 413.185 57.0004 413.135 57.0004 413.086C57.0004 413.036 57.0004 412.987 57.0004 412.937C57.0004 412.888 57.0004 412.838 57.0004 412.789C57.0004 412.739 57.0004 412.69 57.0004 412.64C57.0004 412.591 57.0004 412.541 57.0004 412.492C57.0004 412.442 57.0004 412.393 57.0004 412.344C57.0004 412.294 57.0004 412.245 57.0004 412.195C57.0004 412.146 57.0004 412.097 57.0004 412.047C57.0004 411.998 57.0004 411.948 57.0004 411.899C57.0004 411.85 57.0004 411.8 57.0004 411.751C57.0004 411.702 57.0004 411.652 57.0004 411.603C57.0004 411.554 57.0004 411.505 57.0004 411.455C57.0004 411.406 57.0004 411.357 57.0004 411.307C57.0004 411.258 57.0004 411.209 57.0004 411.16C57.0004 411.11 57.0004 411.061 57.0004 411.012C57.0004 410.963 57.0004 410.914 57.0004 410.864C57.0004 410.815 57.0004 410.766 57.0004 410.717C57.0004 410.668 57.0004 410.619 57.0004 410.569C57.0004 410.52 57.0004 410.471 57.0004 410.422C57.0004 410.373 57.0004 410.324 57.0004 410.275C57.0004 410.226 57.0004 410.177 57.0004 410.128C57.0004 410.079 57.0004 410.03 57.0004 409.981C57.0004 409.932 57.0004 409.883 57.0004 409.834C57.0004 409.785 57.0004 409.736 57.0004 409.687C57.0004 409.638 57.0004 409.589 57.0004 409.54C57.0004 409.491 57.0004 409.442 57.0004 409.393C57.0004 409.344 57.0004 409.295 57.0004 409.247C57.0004 409.198 57.0004 409.149 57.0004 409.1C57.0004 409.051 57.0004 409.003 57.0004 408.954C57.0004 408.905 57.0004 408.856 57.0004 408.807C57.0004 408.759 57.0004 408.71 57.0004 408.661C57.0004 408.613 57.0004 408.564 57.0004 408.515C57.0004 408.467 57.0004 408.418 57.0004 408.369C57.0004 408.321 57.0004 408.272 57.0004 408.223C57.0004 408.175 57.0004 408.126 57.0004 408.078C57.0004 408.029 57.0004 407.981 57.0004 407.932C57.0004 407.884 57.0004 407.835 57.0004 407.787C57.0004 407.738 57.0004 407.69 57.0004 407.641C57.0004 407.593 57.0004 407.545 57.0004 407.496C57.0004 407.448 57.0004 407.399 57.0004 407.351C57.0004 407.303 57.0004 407.254 57.0004 407.206C57.0004 407.158 57.0004 407.11 57.0004 407.061C57.0004 407.013 57.0004 406.965 57.0004 406.917C57.0004 406.868 57.0004 406.82 57.0004 406.772C57.0004 406.724 57.0004 406.676 57.0004 406.628C57.0004 406.58 57.0004 406.531 57.0004 406.483C57.0004 406.435 57.0004 406.387 57.0004 406.339C57.0004 406.291 57.0004 406.243 57.0004 406.195C57.0004 406.147 57.0004 406.099 57.0004 406.051C57.0004 406.004 57.0004 405.956 57.0004 405.908C57.0004 405.86 57.0004 405.812 57.0004 405.764C57.0004 405.716 57.0004 405.669 57.0004 405.621C57.0004 405.573 57.0004 405.525 57.0004 405.478C57.0004 405.43 57.0004 405.382 57.0004 405.335C57.0004 405.287 57.0004 405.239 57.0004 405.192C57.0004 405.144 57.0004 405.097 57.0004 405.049C57.0004 405.001 57.0004 404.954 57.0004 404.906C57.0004 404.859 57.0004 404.811 57.0004 404.764C57.0004 404.717 57.0004 404.669 57.0004 404.622C57.0004 404.574 57.0004 404.527 57.0004 404.48C57.0004 404.432 57.0004 404.385 57.0004 404.338C57.0004 404.291 57.0004 404.243 57.0004 404.196C57.0004 404.149 57.0004 404.102 57.0004 404.055C57.0004 404.007 57.0004 403.96 57.0004 403.913C57.0004 403.866 57.0004 403.819 57.0004 403.772C57.0004 403.725 57.0004 403.678 57.0004 403.631C57.0004 403.584 57.0004 403.537 57.0004 403.49C57.0004 403.443 57.0004 403.396 57.0004 403.35C57.0004 403.303 57.0004 403.256 57.0004 403.209C57.0004 403.162 57.0004 403.116 57.0004 403.069C57.0004 403.022 57.0004 402.976 57.0004 402.929C57.0004 402.882 57.0004 402.836 57.0004 402.789C57.0004 402.742 57.0004 402.696 57.0004 402.649C57.0004 402.603 57.0004 402.556 57.0004 402.51C57.0004 402.463 57.0004 402.417 57.0004 402.371C57.0004 402.324 57.0004 402.278 57.0004 402.232C57.0004 402.185 57.0004 402.139 57.0004 402.093C57.0004 402.047 57.0004 402 57.0004 401.954C57.0004 401.908 57.0004 401.862 57.0004 401.816C57.0004 401.77 57.0004 401.724 57.0004 401.678C57.0004 401.632 57.0004 401.586 57.0004 401.54C57.0004 401.494 57.0004 401.448 57.0004 401.402C57.0004 401.356 57.0004 401.31 57.0004 401.264C57.0004 401.218 57.0004 401.173 57.0004 401.127C57.0004 401.081 57.0004 401.035 57.0004 400.99C57.0004 400.944 57.0004 400.899 57.0004 400.853C57.0004 400.807 57.0004 400.762 57.0004 400.716C57.0004 400.671 57.0004 400.625 57.0004 400.58C57.0004 400.534 57.0004 400.489 57.0004 400.444C57.0004 400.398 57.0004 400.353 57.0004 400.308C57.0004 400.262 57.0004 400.217 57.0004 400.172C57.0004 400.127 57.0004 400.082 57.0004 400.036C57.0004 399.991 57.0004 399.946 57.0004 399.901C57.0004 399.856 57.0004 399.811 57.0004 399.766C57.0004 399.721 57.0004 399.676 57.0004 399.631C57.0004 399.587 57.0004 399.542 57.0004 399.497C57.0004 399.452 57.0004 399.407 57.0004 399.363C57.0004 399.318 57.0004 399.273 57.0004 399.229C57.0004 399.184 57.0004 399.139 57.0004 399.095C57.0004 399.05 57.0004 399.006 57.0004 398.961C57.0004 398.917 57.0004 398.873 57.0004 398.828C57.0004 398.784 57.0004 398.739 57.0004 398.695C57.0004 398.651 57.0004 398.607 57.0004 398.562C57.0004 398.518 57.0004 398.474 57.0004 398.43C57.0004 398.386 57.0004 398.342 57.0004 398.298C57.0004 398.254 57.0004 398.21 57.0004 398.166C57.0004 398.122 57.0004 398.078 57.0004 398.034C57.0004 397.99 57.0004 397.947 57.0004 397.903C57.0004 397.859 57.0004 397.815 57.0004 397.772C57.0004 397.728 57.0004 397.684 57.0004 397.641C57.0004 397.597 57.0004 397.554 57.0004 397.51C57.0004 397.467 57.0004 397.423 57.0004 397.38C57.0004 397.337 57.0004 397.293 57.0004 397.25L55.0004 397.25Z"
    fill="white"
    fill-opacity="0.15"
  />
</svg>
