<svg width="285" height="118" viewBox="0 0 285 118" fill="none" xmlns="http://www.w3.org/2000/svg">
<path d="M1.71734e-05 0L268.66 51L284.16 117.238L0 117.238L1.71734e-05 0Z" fill="#1572B6"/>
<path d="M107.835 55L111.87 100.246L129.973 105.271L148.126 100.24L152.165 55H107.835ZM142.44 80.244L141.265 91.19L141.27 92.1275L130 95.275V95.2755L129.991 95.283L118.632 92.1705L117.863 83.5H123.434L123.829 87.883L130.002 89.5305L130 89.538V89.522L136.197 87.7745L136.851 80.5H123.898L123.787 79.3225L123.534 76.499L123.401 75H137.344L137.851 69.5H116.615L116.503 68.2055L116.25 65.1905L116.118 63.5H143.916L143.783 65.167L142.44 80.244ZM142.5 49.187L138.926 45H142.5V42.5H134.5V44.6815L138.695 48.5H134.5V51H142.5V49.187ZM133 49.187L129.597 45H133V42.5H125.5V44.6815L129.367 48.5H125.5V51H133V49.187ZM124 48.5H120V45H124V42.5H117V51H124V48.5Z" fill="white"/>
</svg>
