<svg width="189" height="74" viewBox="0 0 189 74" fill="none" xmlns="http://www.w3.org/2000/svg">
<path d="M169.5 74L18 39.9131L0 6H189L169.5 74Z" fill="#019BC6"/>
<path d="M139.4 26.05C137.25 24.8 134.4 24.65 132 25.35C131.7 22.75 130 20.5 128 18.9L127.2 18.25L126.5 19.05C125.15 20.6 124.75 23.2 124.95 25.2C125.1 26.65 125.55 28.15 126.45 29.35C125.75 29.75 125 30.3 124.3 30.55C122.9 31.05 121.35 31.55 119.85 31.55H116.5V24.5H110V12H102.5V18H90V24.5H83.5V31.5H77.9L77.8 32.25C77.55 35.45 77.95 38.55 79.3 41.5L79.85 42.6L79.9 42.7C83.85 49.4 90.75 52.2 98.3 52.2C112.9 52.2 124.95 45.65 130.45 31.9C134.15 32.1 137.95 31 139.75 27.45L140.2 26.55L139.4 26.05V26.05ZM91 19.5H96V25H91V19.5ZM97.55 41.6C97.55 42.45 96.85 43.15 96 43.15C95.15 43.15 94.45 42.45 94.45 41.6C94.45 40.75 95.15 40.05 96 40.05C96.85 40.1 97.55 40.75 97.55 41.6ZM91 26H96V31.5H91V26ZM84.5 26H90V31.5H84.5V26ZM98.35 51.1C90.45 51.05 86.2 48.4 82.7 44.9C83.75 44.95 84.75 45 85.65 45C86.45 45 87.25 45 88 44.95C89.95 44.85 91.65 44.6 93.05 44.2C94.2 46.85 96.3 49.3 100.05 51.1H98.35ZM102.5 31.5H97V26H102.5V31.5ZM102.5 25H97V19.5H102.5V25ZM109 31.5H103.5V26H109V31.5ZM109 25H103.5V19.5H109V25ZM109 18.5H103.5V13H109V18.5ZM115.5 31.5H110V26H115.5V31.5ZM96.4 40.6C96.3 40.55 96.15 40.5 96 40.5C95.4 40.5 94.9 41 94.9 41.6C94.9 42.2 95.4 42.7 96 42.7C96.6 42.7 97.1 42.2 97.1 41.6C97.1 41.45 97.05 41.3 97 41.2C96.9 41.35 96.8 41.45 96.6 41.45C96.35 41.45 96.15 41.25 96.15 41C96.2 40.8 96.3 40.65 96.4 40.6V40.6Z" fill="white"/>
</svg>
