<svg width="215" height="203" viewBox="0 0 215 203" fill="none" xmlns="http://www.w3.org/2000/svg">
<path d="M169 198.5H0V65.5L214.5 0.5L169 198.5Z" fill="#47848F"/>
<path d="M46.7969 130.9H55.0055C55.1201 130.9 55.2299 130.855 55.311 130.774C55.392 130.693 55.4375 130.583 55.4375 130.468C55.4375 130.354 55.392 130.244 55.311 130.163C55.2299 130.082 55.1201 130.036 55.0055 130.036H47.2783V124.988H54.1291C54.2436 124.988 54.3535 124.942 54.4346 124.861C54.5156 124.78 54.5611 124.67 54.5611 124.556C54.5611 124.441 54.5156 124.331 54.4346 124.25C54.3535 124.169 54.2436 124.124 54.1291 124.124H47.2783V119.186H54.9314C55.046 119.186 55.1559 119.141 55.2369 119.06C55.3179 118.978 55.3634 118.869 55.3634 118.754C55.3634 118.639 55.3179 118.53 55.2369 118.449C55.1559 118.368 55.046 118.322 54.9314 118.322H46.7969C46.6735 118.325 46.556 118.376 46.4687 118.463C46.3814 118.55 46.3309 118.668 46.3278 118.791V130.431C46.3309 130.555 46.3814 130.672 46.4687 130.759C46.556 130.847 46.6735 130.897 46.7969 130.9V130.9ZM61.1403 130.431C61.1434 130.555 61.1939 130.672 61.2812 130.759C61.3685 130.847 61.486 130.897 61.6094 130.9H69.102C69.2166 130.9 69.3265 130.855 69.4075 130.774C69.4885 130.693 69.5341 130.583 69.5341 130.468C69.5341 130.354 69.4885 130.244 69.4075 130.163C69.3265 130.082 69.2166 130.036 69.102 130.036H62.0908V118.717C62.0908 118.593 62.0414 118.473 61.9534 118.385C61.8654 118.297 61.7461 118.248 61.6217 118.248C61.4973 118.248 61.378 118.297 61.29 118.385C61.2021 118.473 61.1527 118.593 61.1527 118.717L61.1403 130.431ZM75.5084 130.9H83.717C83.8316 130.9 83.9415 130.855 84.0225 130.774C84.1035 130.693 84.1491 130.583 84.1491 130.468C84.1491 130.354 84.1035 130.244 84.0225 130.163C83.9415 130.082 83.8316 130.036 83.717 130.036H75.9775V124.988H82.8283C82.9429 124.988 83.0528 124.942 83.1338 124.861C83.2148 124.78 83.2603 124.67 83.2603 124.556C83.2603 124.441 83.2148 124.331 83.1338 124.25C83.0528 124.169 82.9429 124.124 82.8283 124.124H75.9775V119.186H83.6306C83.7452 119.186 83.8551 119.141 83.9361 119.06C84.0171 118.978 84.0627 118.869 84.0627 118.754C84.0627 118.639 84.0171 118.53 83.9361 118.449C83.8551 118.368 83.7452 118.322 83.6306 118.322H75.5084C75.385 118.325 75.2675 118.376 75.1802 118.463C75.0929 118.55 75.0425 118.668 75.0394 118.791V130.431C75.0425 130.555 75.0929 130.672 75.1802 130.759C75.2675 130.847 75.385 130.897 75.5084 130.9V130.9ZM95.5547 131.11C96.4406 131.124 97.32 130.957 98.1392 130.62C98.9585 130.282 99.7003 129.781 100.319 129.147C100.364 129.106 100.4 129.057 100.426 129.002C100.451 128.947 100.465 128.887 100.468 128.827C100.462 128.711 100.413 128.601 100.331 128.519C100.249 128.437 100.139 128.388 100.023 128.382C99.9625 128.384 99.9029 128.398 99.8478 128.424C99.7927 128.449 99.7432 128.485 99.7022 128.53C99.1766 129.088 98.541 129.531 97.8356 129.83C97.1302 130.13 96.3704 130.28 95.6041 130.271C94.8795 130.258 94.1649 130.101 93.5023 129.807C92.8398 129.514 92.2428 129.09 91.7468 128.562C91.2508 128.034 90.8657 127.411 90.6145 126.732C90.3632 126.052 90.2508 125.329 90.2839 124.605C90.2508 123.885 90.3626 123.166 90.6128 122.49C90.8629 121.814 91.2463 121.195 91.7403 120.67C92.2342 120.145 92.8285 119.724 93.488 119.433C94.1475 119.142 94.8587 118.987 95.5794 118.976C96.3226 118.969 97.0599 119.109 97.7486 119.389C98.4372 119.668 99.0635 120.082 99.5911 120.606C99.6792 120.685 99.7935 120.729 99.912 120.729C100.037 120.726 100.156 120.676 100.245 120.589C100.334 120.502 100.387 120.384 100.393 120.26C100.39 120.187 100.372 120.116 100.34 120.05C100.308 119.984 100.263 119.925 100.208 119.877C98.958 118.71 97.3017 118.077 95.5917 118.112C94.7491 118.117 93.9159 118.29 93.1411 118.621C92.3663 118.952 91.6656 119.435 91.0802 120.041C90.4948 120.648 90.0365 121.365 89.7323 122.15C89.428 122.936 89.2841 123.775 89.3088 124.617C89.2789 125.457 89.4187 126.294 89.72 127.079C90.0212 127.863 90.4777 128.579 91.062 129.183C91.6463 129.787 92.3465 130.266 93.1205 130.593C93.8946 130.92 94.7267 131.088 95.567 131.085L95.5547 131.11ZM109.38 130.505C109.38 130.63 109.429 130.749 109.517 130.837C109.605 130.925 109.724 130.974 109.849 130.974C109.973 130.974 110.092 130.925 110.18 130.837C110.268 130.749 110.318 130.63 110.318 130.505V119.186H114.342C114.456 119.186 114.566 119.141 114.647 119.06C114.728 118.978 114.774 118.869 114.774 118.754C114.774 118.639 114.728 118.53 114.647 118.449C114.566 118.368 114.456 118.322 114.342 118.322H105.356C105.241 118.322 105.131 118.368 105.05 118.449C104.969 118.53 104.924 118.639 104.924 118.754C104.924 118.869 104.969 118.978 105.05 119.06C105.131 119.141 105.241 119.186 105.356 119.186H109.38V130.505ZM120.304 130.505C120.304 130.63 120.353 130.749 120.441 130.837C120.529 130.925 120.649 130.974 120.773 130.974C120.897 130.974 121.017 130.925 121.105 130.837C121.193 130.749 121.242 130.63 121.242 130.505V125.691H125.353L129.216 130.727C129.259 130.798 129.319 130.857 129.39 130.9C129.461 130.943 129.541 130.969 129.623 130.974C129.749 130.968 129.868 130.916 129.957 130.827C130.046 130.738 130.099 130.619 130.105 130.493C130.095 130.372 130.042 130.258 129.957 130.172L126.377 125.531C128.5 125.247 130.08 124.037 130.08 121.939C130.082 121.066 129.741 120.228 129.13 119.606C128.157 118.744 126.884 118.301 125.587 118.371H120.773C120.65 118.374 120.532 118.425 120.445 118.512C120.357 118.6 120.307 118.717 120.304 118.84V130.505ZM121.242 124.839V119.186H125.538C127.821 119.186 129.154 120.248 129.154 121.939C129.154 123.753 127.587 124.815 125.451 124.815L121.242 124.839ZM141.844 131.11C142.691 131.112 143.53 130.944 144.311 130.616C145.093 130.287 145.8 129.806 146.392 129.199C146.983 128.593 147.447 127.873 147.756 127.084C148.064 126.295 148.212 125.452 148.188 124.605C148.226 123.751 148.091 122.898 147.79 122.097C147.489 121.297 147.029 120.566 146.438 119.948C145.847 119.33 145.136 118.838 144.35 118.502C143.564 118.166 142.717 117.993 141.862 117.993C141.007 117.993 140.161 118.166 139.375 118.502C138.588 118.838 137.878 119.33 137.287 119.948C136.696 120.566 136.236 121.297 135.935 122.097C135.634 122.898 135.498 123.751 135.536 124.605C135.504 125.451 135.644 126.295 135.948 127.085C136.251 127.876 136.711 128.597 137.301 129.205C137.89 129.813 138.596 130.295 139.377 130.622C140.158 130.95 140.997 131.116 141.844 131.11ZM141.844 130.271C141.116 130.261 140.398 130.106 139.731 129.815C139.064 129.523 138.463 129.1 137.962 128.572C137.462 128.044 137.072 127.421 136.816 126.739C136.561 126.058 136.444 125.332 136.474 124.605C136.437 123.877 136.549 123.149 136.802 122.465C137.055 121.781 137.445 121.156 137.947 120.627C138.449 120.098 139.053 119.677 139.723 119.389C140.393 119.101 141.115 118.952 141.844 118.952C142.571 118.961 143.29 119.116 143.957 119.408C144.623 119.699 145.225 120.122 145.725 120.65C146.226 121.178 146.616 121.802 146.871 122.483C147.127 123.164 147.243 123.89 147.213 124.617C147.25 125.346 147.139 126.074 146.885 126.757C146.632 127.441 146.243 128.066 145.741 128.595C145.238 129.124 144.634 129.545 143.964 129.833C143.294 130.121 142.573 130.27 141.844 130.271ZM154.101 130.518C154.101 130.637 154.149 130.752 154.233 130.836C154.318 130.921 154.432 130.968 154.552 130.968C154.671 130.968 154.786 130.921 154.87 130.836C154.955 130.752 155.002 130.637 155.002 130.518V119.68L163.643 130.641C163.693 130.725 163.761 130.796 163.842 130.849C163.923 130.903 164.015 130.937 164.112 130.95H164.186C164.237 130.95 164.288 130.939 164.335 130.919C164.383 130.899 164.425 130.87 164.461 130.833C164.497 130.796 164.525 130.753 164.543 130.705C164.562 130.657 164.57 130.606 164.569 130.555V118.692C164.569 118.573 164.521 118.458 164.437 118.374C164.352 118.289 164.238 118.242 164.118 118.242C163.999 118.242 163.884 118.289 163.799 118.374C163.715 118.458 163.668 118.573 163.668 118.692V129.296L155.187 118.532C155.137 118.452 155.068 118.385 154.986 118.338C154.905 118.291 154.813 118.264 154.718 118.26H154.57C154.447 118.263 154.329 118.314 154.242 118.401C154.155 118.488 154.104 118.606 154.101 118.729V130.518ZM22.8253 117.52C19.8505 116.977 17.5052 117.52 16.567 119.161C16.24 119.892 16.1123 120.696 16.1969 121.491C16.2814 122.287 16.5752 123.046 17.0484 123.692C17.0934 123.753 17.1596 123.796 17.2344 123.812C17.3091 123.828 17.3871 123.815 17.4531 123.777C17.5192 123.738 17.5686 123.677 17.5919 123.604C17.6152 123.531 17.6107 123.453 17.5792 123.383C17.1622 122.828 16.8983 122.174 16.8138 121.485C16.7293 120.796 16.8272 120.097 17.0978 119.458C17.8755 118.112 19.9739 117.606 22.7142 118.112C22.7912 118.12 22.8681 118.098 22.9298 118.051C22.9916 118.005 23.0336 117.937 23.0475 117.861C23.0615 117.785 23.0464 117.706 23.0053 117.641C22.9641 117.575 22.8999 117.528 22.8253 117.507V117.52ZM18.5914 125.778C19.9147 127.195 21.4465 128.402 23.1339 129.357C27.4419 131.826 32.0337 132.505 34.2433 130.974C34.3002 130.925 34.3369 130.856 34.3464 130.781C34.356 130.706 34.3377 130.63 34.2952 130.568C34.2526 130.505 34.1886 130.461 34.1153 130.443C34.0421 130.424 33.9646 130.433 33.8977 130.468C31.8733 131.851 27.5159 131.221 23.3931 128.839C21.761 127.912 20.2793 126.743 18.9987 125.37C18.9412 125.33 18.8716 125.31 18.8014 125.315C18.7312 125.319 18.6646 125.348 18.6128 125.395C18.5609 125.443 18.5268 125.507 18.5162 125.576C18.5056 125.646 18.5191 125.717 18.5544 125.778H18.5914Z" fill="white"/>
<path d="M33.5767 125.407C35.527 123.111 36.2059 120.803 35.2678 119.235C34.8092 118.599 34.1916 118.094 33.4768 117.772C32.7619 117.449 31.9749 117.32 31.1944 117.396C31.1246 117.41 31.0619 117.448 31.0168 117.503C30.9718 117.559 30.9472 117.628 30.9472 117.699C30.9472 117.77 30.9718 117.839 31.0168 117.894C31.0619 117.949 31.1246 117.987 31.1944 118.001C31.8699 117.927 32.553 118.031 33.1763 118.302C33.7997 118.572 34.3418 119 34.7494 119.544C35.527 120.89 34.9222 122.951 33.12 125.074C33.0884 125.104 33.0635 125.14 33.0469 125.18C33.0303 125.22 33.0223 125.264 33.0236 125.307C33.0248 125.351 33.0352 125.393 33.0541 125.432C33.0731 125.472 33.1 125.506 33.1333 125.534C33.1665 125.562 33.2053 125.583 33.2471 125.595C33.2889 125.607 33.3327 125.61 33.3758 125.604C33.4188 125.598 33.4601 125.582 33.4968 125.559C33.5336 125.536 33.565 125.505 33.5891 125.469L33.5767 125.407ZM28.6392 117.618C26.729 118.051 24.897 118.775 23.208 119.766C18.7642 122.334 15.8017 126.123 16.2584 128.864C16.2792 128.935 16.3251 128.996 16.3875 129.037C16.4499 129.077 16.5248 129.093 16.5983 129.083C16.6719 129.072 16.7391 129.036 16.7878 128.979C16.8365 128.923 16.8633 128.851 16.8633 128.777C16.4436 126.345 19.1962 122.766 23.4548 120.297C25.0859 119.336 26.8554 118.633 28.7009 118.211C28.7466 118.211 28.7916 118.2 28.8327 118.18C28.8738 118.16 28.91 118.132 28.9386 118.096C28.9673 118.061 28.9877 118.019 28.9984 117.975C29.0091 117.93 29.0098 117.884 29.0005 117.839C28.9912 117.795 28.9721 117.753 28.9446 117.716C28.917 117.68 28.8818 117.65 28.8413 117.629C28.8008 117.608 28.7562 117.596 28.7106 117.594C28.6649 117.592 28.6195 117.601 28.5775 117.618H28.6392Z" fill="white"/>
<path d="M21.3688 130.777C22.3809 133.616 24.0473 135.369 25.9236 135.369C26.6938 135.29 27.4301 135.011 28.06 134.561C28.6898 134.111 29.1915 133.504 29.5156 132.801C29.547 132.767 29.5704 132.727 29.5842 132.683C29.5979 132.639 29.6017 132.593 29.5951 132.547C29.5886 132.502 29.572 132.458 29.5464 132.42C29.5209 132.382 29.4871 132.349 29.4475 132.326C29.4079 132.302 29.3636 132.288 29.3178 132.284C29.2719 132.28 29.2257 132.286 29.1825 132.302C29.1393 132.318 29.1003 132.343 29.0682 132.376C29.0361 132.409 29.0119 132.449 28.9972 132.493C28.7227 133.105 28.2942 133.637 27.7534 134.035C27.2126 134.433 26.578 134.684 25.9113 134.764C24.3559 134.764 22.8747 133.209 21.9366 130.579C21.8992 130.518 21.8419 130.472 21.7745 130.449C21.707 130.426 21.6335 130.426 21.5665 130.451C21.4996 130.476 21.4432 130.523 21.4072 130.585C21.3711 130.646 21.3575 130.719 21.3688 130.789V130.777ZM30.6513 130.172C31.2031 128.343 31.4777 126.441 31.4659 124.531C31.4659 119.482 29.7008 115.137 27.1827 114.014C27.1122 113.996 27.0379 114.004 26.9727 114.036C26.9075 114.068 26.8555 114.122 26.8261 114.188C26.7966 114.254 26.7914 114.329 26.8115 114.399C26.8316 114.469 26.8756 114.529 26.9358 114.57C29.1824 115.569 30.8611 119.692 30.8611 124.519C30.8767 126.37 30.6146 128.213 30.0834 129.987C30.0728 130.059 30.0883 130.133 30.127 130.195C30.1657 130.257 30.2253 130.303 30.2949 130.326C30.3646 130.348 30.44 130.345 30.5075 130.316C30.575 130.288 30.6303 130.237 30.6636 130.172H30.6513ZM36.3911 129.925C36.3862 129.638 36.2967 129.359 36.1337 129.123C35.9707 128.886 35.7416 128.704 35.4751 128.597C35.2085 128.491 34.9164 128.465 34.6355 128.524C34.3546 128.583 34.0974 128.724 33.8962 128.929C33.6949 129.133 33.5587 129.393 33.5044 129.675C33.4502 129.956 33.4804 130.248 33.5914 130.513C33.7023 130.777 33.889 131.004 34.1279 131.163C34.3669 131.321 34.6475 131.406 34.9345 131.406C35.3208 131.406 35.6913 131.253 35.9645 130.98C36.2376 130.707 36.3911 130.336 36.3911 129.95V129.925ZM35.7863 129.925C35.7863 130.094 35.7363 130.258 35.6427 130.398C35.5491 130.538 35.4161 130.648 35.2605 130.712C35.1048 130.776 34.9336 130.793 34.7684 130.76C34.6032 130.728 34.4514 130.646 34.3323 130.527C34.2132 130.408 34.1321 130.257 34.0992 130.091C34.0663 129.926 34.0832 129.755 34.1477 129.599C34.2121 129.444 34.3213 129.311 34.4614 129.217C34.6014 129.123 34.7661 129.073 34.9345 129.073C35.0464 129.073 35.1571 129.095 35.2605 129.138C35.3638 129.181 35.4577 129.244 35.5368 129.323C35.6159 129.402 35.6786 129.496 35.7214 129.599C35.7642 129.703 35.7863 129.813 35.7863 129.925V129.925ZM16.888 131.406C17.175 131.406 17.4556 131.321 17.6946 131.163C17.9335 131.004 18.1202 130.777 18.2311 130.513C18.3421 130.248 18.3723 129.956 18.3181 129.675C18.2639 129.393 18.1276 129.133 17.9263 128.929C17.7251 128.724 17.4679 128.583 17.187 128.524C16.9061 128.465 16.614 128.491 16.3475 128.597C16.0809 128.704 15.8518 128.886 15.6888 129.123C15.5258 129.359 15.4363 129.638 15.4314 129.925C15.4281 130.118 15.4634 130.311 15.5351 130.49C15.6068 130.67 15.7136 130.833 15.8492 130.971C15.9848 131.109 16.1465 131.218 16.3248 131.293C16.5032 131.368 16.6946 131.406 16.888 131.406V131.406ZM16.888 130.802C16.7195 130.802 16.5548 130.752 16.4148 130.658C16.2747 130.564 16.1655 130.431 16.1011 130.276C16.0366 130.12 16.0198 129.949 16.0526 129.784C16.0855 129.618 16.1666 129.467 16.2857 129.348C16.4048 129.228 16.5566 129.147 16.7218 129.114C16.887 129.082 17.0583 129.098 17.2139 129.163C17.3695 129.227 17.5026 129.337 17.5961 129.477C17.6897 129.617 17.7397 129.781 17.7397 129.95C17.7397 130.176 17.65 130.392 17.4902 130.552C17.3305 130.712 17.1139 130.802 16.888 130.802V130.802Z" fill="white"/>
<path d="M25.9236 115.557C26.2127 115.557 26.4953 115.471 26.7353 115.31C26.9754 115.148 27.162 114.92 27.2715 114.652C27.381 114.384 27.4083 114.09 27.3501 113.807C27.2919 113.524 27.1507 113.264 26.9445 113.062C26.7383 112.859 26.4765 112.722 26.1923 112.669C25.9082 112.615 25.6146 112.648 25.3489 112.762C25.0832 112.876 24.8575 113.066 24.7004 113.309C24.5434 113.552 24.4621 113.836 24.467 114.125C24.467 114.511 24.6205 114.882 24.8936 115.155C25.1668 115.428 25.5373 115.582 25.9236 115.582V115.557ZM25.9236 114.952C25.7551 114.952 25.5905 114.902 25.4504 114.809C25.3103 114.715 25.2012 114.582 25.1367 114.426C25.0722 114.271 25.0554 114.099 25.0882 113.934C25.1211 113.769 25.2022 113.617 25.3213 113.498C25.4405 113.379 25.5922 113.298 25.7574 113.265C25.9226 113.232 26.0939 113.249 26.2495 113.313C26.4052 113.378 26.5382 113.487 26.6318 113.627C26.7254 113.767 26.7753 113.932 26.7753 114.1C26.7753 114.326 26.6856 114.543 26.5258 114.703C26.3661 114.862 26.1495 114.952 25.9236 114.952ZM26.1458 125.605C25.9424 125.65 25.7304 125.633 25.5366 125.557C25.3428 125.481 25.176 125.349 25.0575 125.177C24.9389 125.006 24.874 124.804 24.871 124.595C24.8679 124.387 24.9269 124.183 25.0404 124.008C25.1538 123.834 25.3167 123.697 25.5082 123.615C25.6997 123.533 25.9112 123.51 26.1157 123.549C26.3203 123.588 26.5087 123.687 26.6569 123.833C26.8051 123.979 26.9065 124.166 26.9481 124.37C27.0032 124.64 26.9499 124.921 26.7998 125.152C26.6497 125.383 26.4148 125.545 26.1458 125.605V125.605Z" fill="white"/>
</svg>
