<svg width="301" height="161" viewBox="0 0 301 161" fill="none" xmlns="http://www.w3.org/2000/svg">
<path d="M300.161 0L0.5 92.5L16 160.238L300.161 160.238V0Z" fill="url(#paint0_linear_39_134)"/>
<path fill-rule="evenodd" clip-rule="evenodd" d="M240 53.8506C226.785 53.8506 216.068 64.5645 216.068 77.7821C216.068 88.3555 222.925 97.3262 232.434 100.49C233.63 100.712 234.07 99.9711 234.07 99.3388C234.07 98.7685 234.047 96.883 234.037 94.8838C227.379 96.3311 225.974 92.0601 225.974 92.0601C224.886 89.2937 223.317 88.558 223.317 88.558C221.146 87.073 223.48 87.1033 223.48 87.1033C225.883 87.2721 227.149 89.5699 227.149 89.5699C229.283 93.2284 232.748 92.1703 234.113 91.5589C234.328 90.012 234.948 88.9556 235.633 88.3583C230.317 87.7536 224.729 85.701 224.729 76.5311C224.729 73.9183 225.664 71.7836 227.195 70.1074C226.947 69.5044 226.128 67.0699 227.427 63.7736C227.427 63.7736 229.436 63.1313 234.008 66.2278C235.918 65.6974 237.965 65.4313 239.999 65.4223C242.033 65.4319 244.081 65.698 245.994 66.2278C250.561 63.1318 252.568 63.7742 252.568 63.7742C253.871 67.0705 253.052 69.5044 252.804 70.108C254.338 71.7831 255.266 73.9183 255.266 76.5317C255.266 85.723 249.668 87.7468 244.339 88.3386C245.197 89.0811 245.962 90.538 245.962 92.7711C245.962 95.9728 245.935 98.5496 245.935 99.3377C245.935 99.9733 246.366 100.72 247.579 100.485C257.083 97.3172 263.93 88.3498 263.93 77.7799C263.932 64.5651 253.217 53.8506 240 53.8506Z" fill="white"/>
<path d="M225.133 88.2102C225.08 88.3295 224.892 88.3649 224.722 88.2833C224.548 88.2046 224.451 88.0431 224.508 87.9233C224.558 87.8018 224.746 87.7675 224.92 87.8491C225.094 87.9278 225.193 88.091 225.134 88.2102H225.133ZM226.102 89.2925C225.988 89.3976 225.765 89.3487 225.613 89.1811C225.457 89.014 225.427 88.7907 225.543 88.6838C225.66 88.5781 225.877 88.6276 226.033 88.7946C226.19 88.9634 226.221 89.1845 226.102 89.2919L226.102 89.2925ZM227.046 90.6695C226.899 90.7718 226.659 90.6762 226.511 90.463C226.364 90.251 226.364 89.9961 226.514 89.8932C226.663 89.7908 226.899 89.8831 227.048 90.094C227.196 90.3106 227.196 90.5665 227.046 90.67V90.6695ZM228.338 92.0015C228.207 92.146 227.928 92.1072 227.723 91.9098C227.514 91.7168 227.456 91.4429 227.587 91.2983C227.721 91.1538 228.001 91.1943 228.207 91.39C228.415 91.5824 228.478 91.8569 228.338 92.0009V92.0015ZM230.122 92.7743C230.064 92.9622 229.795 93.0471 229.524 92.9678C229.253 92.8857 229.076 92.6663 229.13 92.4773C229.186 92.2883 229.458 92.2 229.73 92.285C230 92.366 230.178 92.5831 230.122 92.7743H230.122ZM232.08 92.9178C232.087 93.1146 231.857 93.2789 231.573 93.2823C231.287 93.289 231.055 93.1293 231.052 92.9347C231.052 92.7355 231.277 92.5735 231.562 92.569C231.847 92.5634 232.08 92.722 232.08 92.9178ZM233.902 92.6078C233.936 92.8002 233.739 92.9982 233.456 93.0505C233.179 93.1023 232.922 92.983 232.886 92.7918C232.852 92.5949 233.053 92.398 233.33 92.3463C233.613 92.2968 233.866 92.4126 233.902 92.6084V92.6078Z" fill="white"/>
<path d="M217.981 113.92H211.962C211.888 113.92 211.816 113.95 211.763 114.002C211.711 114.055 211.681 114.127 211.681 114.201V117.144C211.681 117.219 211.711 117.29 211.763 117.343C211.816 117.396 211.888 117.425 211.962 117.425H214.309V121.082C214.309 121.082 213.782 121.262 212.324 121.262C210.605 121.262 208.202 120.634 208.202 115.351C208.202 110.067 210.704 109.372 213.053 109.372C215.086 109.372 215.962 109.729 216.52 109.902C216.694 109.955 216.857 109.78 216.857 109.625L217.528 106.782C217.529 106.739 217.52 106.697 217.501 106.659C217.482 106.621 217.455 106.588 217.42 106.562C217.193 106.4 215.813 105.629 212.325 105.629C208.306 105.629 204.184 107.338 204.184 115.557C204.184 123.775 208.904 124.999 212.881 124.999C216.174 124.999 218.171 123.592 218.171 123.592C218.253 123.547 218.262 123.432 218.262 123.378V114.201C218.262 114.126 218.233 114.054 218.18 114.002C218.127 113.949 218.056 113.919 217.981 113.919V113.92ZM248.722 106.331H245.332C245.296 106.331 245.259 106.338 245.225 106.353C245.191 106.367 245.16 106.388 245.134 106.414C245.108 106.44 245.087 106.471 245.073 106.506C245.059 106.54 245.052 106.577 245.052 106.614L245.053 113.163H239.77V106.614C239.771 106.577 239.764 106.54 239.75 106.506C239.736 106.472 239.715 106.441 239.689 106.414C239.663 106.388 239.632 106.367 239.598 106.353C239.564 106.338 239.528 106.331 239.491 106.331H236.102C236.065 106.331 236.028 106.338 235.994 106.353C235.96 106.367 235.929 106.388 235.903 106.414C235.877 106.44 235.857 106.471 235.843 106.506C235.829 106.54 235.822 106.577 235.822 106.614V124.349C235.822 124.505 235.948 124.632 236.102 124.632H239.491C239.528 124.632 239.564 124.624 239.599 124.61C239.633 124.596 239.664 124.575 239.69 124.548C239.715 124.522 239.736 124.491 239.75 124.457C239.764 124.422 239.771 124.386 239.77 124.349V116.763H245.053L245.044 124.349C245.044 124.505 245.17 124.632 245.326 124.632H248.722C248.759 124.632 248.796 124.624 248.83 124.61C248.864 124.596 248.895 124.575 248.921 124.548C248.947 124.522 248.967 124.491 248.981 124.457C248.995 124.422 249.002 124.386 249.002 124.349V106.613C249.002 106.576 248.995 106.539 248.981 106.505C248.967 106.471 248.947 106.44 248.921 106.414C248.895 106.387 248.864 106.366 248.83 106.352C248.796 106.338 248.759 106.331 248.722 106.331V106.331ZM222.191 106.734C220.985 106.734 220.006 107.72 220.006 108.941C220.006 110.16 220.985 111.148 222.191 111.148C223.398 111.148 224.377 110.16 224.377 108.941C224.377 107.72 223.398 106.734 222.191 106.734ZM223.854 112.138H220.476C220.32 112.138 220.182 112.298 220.182 112.453V124.183C220.182 124.528 220.397 124.63 220.675 124.63H223.718C224.053 124.63 224.134 124.466 224.134 124.177V112.421C224.134 112.384 224.127 112.348 224.113 112.314C224.099 112.28 224.079 112.248 224.053 112.222C224.027 112.196 223.996 112.175 223.962 112.161C223.927 112.147 223.891 112.139 223.854 112.139V112.138ZM261.882 112.165H258.519C258.482 112.165 258.445 112.173 258.411 112.187C258.377 112.202 258.346 112.223 258.32 112.249C258.294 112.275 258.274 112.306 258.26 112.341C258.246 112.375 258.239 112.411 258.24 112.448V121.145C258.24 121.145 257.385 121.769 256.172 121.769C254.96 121.769 254.638 121.219 254.638 120.032V112.448C254.639 112.411 254.632 112.375 254.618 112.34C254.604 112.306 254.583 112.275 254.558 112.249C254.532 112.222 254.501 112.201 254.467 112.187C254.432 112.173 254.396 112.165 254.359 112.165H250.946C250.871 112.166 250.8 112.196 250.747 112.249C250.695 112.302 250.665 112.374 250.666 112.448V120.606C250.666 124.133 252.631 124.996 255.335 124.996C257.554 124.996 259.343 123.769 259.343 123.769C259.343 123.769 259.427 124.416 259.466 124.492C259.506 124.569 259.605 124.646 259.714 124.646L261.885 124.636C261.922 124.636 261.959 124.629 261.993 124.614C262.027 124.6 262.058 124.579 262.085 124.553C262.111 124.526 262.131 124.495 262.145 124.461C262.159 124.426 262.167 124.39 262.166 124.353L262.165 112.447C262.164 112.372 262.135 112.301 262.082 112.248C262.029 112.195 261.958 112.165 261.883 112.164L261.882 112.165ZM271.075 111.767C269.164 111.767 267.865 112.619 267.865 112.619V106.613C267.865 106.576 267.858 106.539 267.844 106.505C267.83 106.471 267.81 106.44 267.784 106.414C267.758 106.387 267.727 106.366 267.693 106.352C267.659 106.338 267.622 106.33 267.586 106.33H264.187C264.15 106.33 264.114 106.337 264.079 106.352C264.045 106.366 264.014 106.387 263.988 106.413C263.962 106.439 263.941 106.471 263.927 106.505C263.913 106.539 263.906 106.576 263.906 106.613V124.349C263.906 124.386 263.913 124.422 263.927 124.457C263.941 124.491 263.962 124.522 263.988 124.549C264.014 124.575 264.045 124.596 264.079 124.61C264.114 124.624 264.15 124.632 264.187 124.632H266.545C266.652 124.632 266.732 124.577 266.791 124.481C266.849 124.385 266.934 123.663 266.934 123.663C266.934 123.663 268.324 124.979 270.955 124.979C274.043 124.979 275.815 123.413 275.815 117.947C275.815 112.48 272.986 111.766 271.074 111.766L271.075 111.767ZM269.747 121.759C268.581 121.723 267.79 121.194 267.79 121.194V115.578C267.79 115.578 268.57 115.099 269.528 115.013C270.739 114.904 271.906 115.27 271.906 118.159C271.906 121.207 271.38 121.808 269.748 121.758L269.747 121.759ZM233.922 121.693C233.774 121.693 233.395 121.753 233.005 121.753C231.757 121.753 231.333 121.172 231.333 120.421V115.434H233.875C233.913 115.434 233.949 115.426 233.984 115.412C234.018 115.398 234.049 115.377 234.075 115.35C234.101 115.324 234.122 115.293 234.136 115.258C234.15 115.224 234.157 115.187 234.157 115.15V112.419C234.157 112.382 234.15 112.345 234.136 112.311C234.122 112.276 234.101 112.245 234.075 112.219C234.049 112.193 234.018 112.172 233.983 112.158C233.949 112.144 233.913 112.136 233.875 112.136H231.333L231.329 108.778C231.329 108.65 231.264 108.587 231.116 108.587H227.651C227.518 108.587 227.445 108.646 227.445 108.775V112.246C227.445 112.246 225.709 112.665 225.592 112.699C225.533 112.716 225.482 112.751 225.445 112.8C225.409 112.849 225.389 112.908 225.389 112.969V115.15C225.389 115.186 225.396 115.223 225.41 115.257C225.424 115.292 225.444 115.323 225.47 115.349C225.496 115.375 225.527 115.396 225.561 115.41C225.595 115.425 225.632 115.432 225.669 115.432H227.445V120.679C227.445 124.578 230.179 124.96 232.024 124.96C232.866 124.96 233.874 124.69 234.041 124.628C234.142 124.591 234.2 124.486 234.2 124.373L234.202 121.974C234.201 121.9 234.171 121.829 234.119 121.776C234.066 121.724 233.995 121.693 233.921 121.692L233.922 121.693Z" fill="white"/>
<path d="M64.5367 104.753C64.6566 104.92 64.8045 105.069 64.9766 105.195L90 123.375L115.023 105.195C115.359 104.951 115.61 104.606 115.739 104.21C115.867 103.815 115.867 103.388 115.738 102.993L112.847 94.094L107.117 76.4602C107.117 76.4568 107.115 76.4546 107.113 76.4517C106.906 75.833 106.24 75.6513 105.748 75.8892C105.526 75.9961 105.335 76.1941 105.244 76.4742L99.5141 94.1249H80.4864L76.3031 81.2364L74.7562 76.4664C74.5352 75.7857 73.7578 75.6125 73.2583 75.9528C73.0793 76.0751 72.9469 76.2543 72.8826 76.4613L67.1512 94.0957L66.1939 97.0432L64.2606 102.993C64.1648 103.288 64.1399 103.601 64.1878 103.907C64.2356 104.213 64.355 104.503 64.5362 104.754L64.5367 104.753ZM90.7802 127.875H88.2546L88.2636 146.437H98.4375V144.187H90.7875L90.7802 127.875ZM105.663 131.968C103.694 131.965 101.784 132.645 100.259 133.893L101.134 135.438C102.166 134.836 103.318 134.233 105.126 134.233C107.192 134.233 108 135.295 108 137.074V137.991C108 137.905 106.868 137.848 106.352 137.848C101.932 137.848 99.7459 139.398 99.7459 142.639C99.7459 145.536 101.55 147 104.248 147C106.064 147 107.818 146.059 108.42 144.711L108.893 146.437H110.812V137.045C110.812 134.004 109.423 131.968 105.663 131.968V131.968ZM108 143.357C107.437 144.016 106.409 144.676 104.975 144.676C103.052 144.676 102.329 143.729 102.329 142.495C102.329 140.631 103.544 139.741 106.298 139.741C106.814 139.741 108 139.799 108 139.885V143.355V143.357ZM119.895 131.968C117.638 131.968 116.437 133.503 116.437 133.503V131.079L116.4 127.875H113.933L113.941 146.201C115.175 146.718 116.868 147.002 118.704 147.002C123.409 147.002 125.683 143.989 125.683 138.796C125.684 134.694 123.596 131.968 119.895 131.968H119.895ZM118.833 144.762C117.886 144.762 116.999 144.648 116.437 144.361V135.669C116.999 134.952 118.345 134.435 119.694 134.435C122.133 134.435 123.08 136.157 123.08 138.939C123.08 142.898 121.558 144.762 118.833 144.762V144.762ZM63.333 129.902C65.5717 129.902 67.0061 130.648 67.9528 131.394L69.0384 129.515C67.5591 128.218 65.5695 127.521 63.4472 127.521C58.0821 127.521 54.3234 130.792 54.3234 137.39C54.3234 144.303 58.3791 147 63.0169 147C65.3417 147 67.3537 146.454 68.6452 145.91L68.625 138.523V136.312H61.875V138.562H66.0634L66.1162 144.151C65.5425 144.438 64.5384 144.657 63.1896 144.657C59.4602 144.657 56.9627 142.306 56.9627 137.365C56.9627 132.346 59.5457 129.902 63.333 129.902V129.902ZM81.09 127.875H78.6223L78.75 131.021V141.922C78.75 144.963 80.145 147 83.9042 147C84.4234 147 84.9375 146.953 85.5 146.863V144.647C84.9375 144.702 84.5775 144.734 84.168 144.734C82.1019 144.734 81 143.673 81 141.894V134.625H85.5V132.375H81.0984L81.09 127.875ZM72.5625 132.375H74.8125V146.437H72.5625V132.375ZM72.5625 127.875H74.8125V130.125H72.5625V127.875Z" fill="white"/>
<defs>
<linearGradient id="paint0_linear_39_134" x1="300" y1="83.5" x2="-4" y2="91" gradientUnits="userSpaceOnUse">
<stop offset="0.41115" stop-color="#181616"/>
<stop offset="0.624427" stop-color="#E24329"/>
</linearGradient>
</defs>
</svg>
