<svg width="231" height="262" viewBox="0 0 231 262" fill="none" xmlns="http://www.w3.org/2000/svg">
<path d="M230.367 141.562L0.173279 261.413L128.632 0L230.367 141.562Z" fill="#E44D26"/>
<path d="M107.008 99.1876L111.557 149.767L131.969 155.213L152.438 149.87L156.992 99.1876H107.008ZM147.531 110.703L147.245 113.984L147.12 115.5H123.175L123.747 122.25H146.551L146.398 123.505L144.927 139.766L144.819 140.717L132 144.167V144.165L131.985 144.171L119.173 140.844L118.303 131.25H124.585L125.03 136.009L131.997 137.775L132 137.643V137.65L138.982 136.16L139.711 128.438H118.024L116.486 111.092L116.336 109.313H147.68L147.531 110.703V110.703ZM111.725 84.9153H114.888V88.0405H117.781V84.9153H120.944V94.3777H117.781V91.2091H114.888V94.3777H111.725V84.9153ZM125.103 88.0535H122.318V84.9153H131.051V88.0535H128.266V94.3777H125.103V88.0535V88.0535ZM132.437 84.9153H135.734L137.763 88.2402L139.79 84.9153H143.089V94.3777H139.939V89.6875L137.763 93.0518H137.708L135.531 89.6875V94.3777H132.437V84.9153H132.437ZM144.664 84.9153H147.827V91.2502H152.275V94.3782H144.664V84.9153V84.9153Z" fill="white"/>
</svg>
