<svg width="189" height="283" viewBox="0 0 189 283" fill="none" xmlns="http://www.w3.org/2000/svg">
<path d="M6.58185e-06 73.238L136.66 0L188.16 282.5L0 247.738L6.58185e-06 73.238Z" fill="#F0DB4F"/>
<path d="M44.125 116.562V186.875H114.438V116.562H44.125ZM81.3169 176.476C80.2791 178.585 78.298 179.97 76.0024 180.639C72.475 181.449 69.1011 180.987 66.5912 179.481C64.9116 178.45 63.5999 176.864 62.7094 175.037L68.0644 171.757C68.1111 171.777 68.2518 172.031 68.4396 172.36C69.1225 173.504 69.7114 174.314 70.8691 174.883C72.0064 175.271 74.5034 175.519 75.4675 173.517C76.0564 172.499 75.8691 169.227 75.8691 165.606C75.8686 159.916 75.895 154.25 75.895 148.625H82.4813C82.4813 154.812 82.5151 160.673 82.4813 166.711C82.4954 170.412 82.8166 173.711 81.3169 176.476ZM108.64 174.615C106.35 182.446 93.5862 182.701 88.4854 177.527C87.4077 176.309 86.7321 175.673 86.0892 174.267C88.7999 172.708 88.7999 172.708 91.4374 171.182C92.8701 173.384 94.1948 174.595 96.5781 175.091C99.8114 175.486 103.064 174.375 102.335 170.94C101.585 168.136 95.7141 167.454 91.7187 164.454C87.6625 161.73 86.7119 155.111 90.0453 151.328C91.1562 149.929 93.0507 148.885 95.0386 148.384L97.1131 148.115C101.096 148.035 103.586 149.087 105.413 151.128C105.922 151.643 106.337 152.199 107.113 153.403C104.991 154.755 104.998 154.742 101.959 156.71C101.31 155.311 100.233 154.434 99.0942 154.053C97.3268 153.517 95.0982 154.099 94.6358 155.967C94.4755 156.542 94.5087 157.078 94.7635 158.028C95.4796 159.661 97.8826 160.371 100.038 161.362C106.243 163.878 108.338 166.577 108.854 169.789C109.35 172.554 108.734 174.348 108.64 174.615V174.615Z" fill="white"/>
</svg>
