<svg width="248" height="163" viewBox="0 0 248 163" fill="none" xmlns="http://www.w3.org/2000/svg">
<path d="M247.983 111.491L0 162.5L76.5 0H247.983V111.491Z" fill="white"/>
<path fill-rule="evenodd" clip-rule="evenodd" d="M119.467 30.8596C118.904 30.9036 118.35 30.8966 117.805 31.0461C116.611 31.3736 115.551 31.8971 114.615 32.7041C114.065 33.1781 113.585 33.6891 113.178 34.2911C112.549 35.2206 112.12 36.2196 111.905 37.3441C111.991 37.4946 112.082 37.6526 112.178 37.8131C112.787 38.8321 113.397 39.8441 114.008 40.8621L115.614 43.5326C116.108 44.3556 116.601 45.1791 117.094 46.0021L119.398 49.8461L120.969 52.4681C121.733 53.7406 122.498 55.0121 123.261 56.2851L126.066 60.9706C126.874 62.3201 127.684 63.6686 128.494 65.0171L128.602 65.1741C128.719 65.2116 128.813 65.1796 128.91 65.1566C129.977 64.9006 131.044 64.6461 132.111 64.3911C133.842 63.9776 135.572 63.5656 137.302 63.1516L140.013 62.5031C141.763 62.0851 143.513 61.6681 145.262 61.2491C147.031 60.8261 148.799 60.4011 150.568 59.9776C151.462 59.7631 152.355 59.5496 153.25 59.3361C154.98 58.9231 156.711 58.5111 158.442 58.0991L164.096 56.7526L164.401 56.6701L164.318 56.5046L162.775 54.3236L161.25 52.1661L159.62 49.8641L158.062 47.6576L156.519 45.4771L154.924 43.2236C154.404 42.4886 153.882 41.7546 153.361 41.0201L152.538 39.8571C152.411 39.68 152.312 39.4846 152.244 39.2776C152.081 38.7721 152.268 38.4356 152.562 38.1871C152.753 38.0256 152.973 37.9071 153.211 37.8371C153.542 37.7355 153.877 37.6504 154.216 37.5821C154.896 37.4536 155.58 37.3446 156.262 37.2311L158.574 36.8541C159.062 36.7736 159.548 36.6891 160.036 36.6066C160.698 36.4946 161.361 36.3821 162.024 36.2716C162.667 36.1636 163.311 36.0566 163.954 35.9506L166.061 35.6061L167.523 35.3606C168.079 35.2676 168.634 35.1751 169.19 35.0841C169.883 34.9711 170.576 34.8571 171.269 34.7486C171.682 34.6841 172.095 34.6616 172.505 34.7796C172.809 34.8697 173.095 35.0105 173.353 35.1961L173.713 35.4476C173.749 35.3646 173.697 35.3196 173.673 35.2721C173.161 34.2289 172.436 33.3051 171.543 32.5611C170.715 31.8653 169.757 31.3402 168.725 31.0161C168.11 30.8216 167.479 30.9121 166.836 30.8636M138.844 93.5001C138.813 93.5001 138.786 93.2751 138.751 93.2156C138.001 91.9356 137.243 90.5616 136.502 89.2771C135.569 87.6577 134.643 86.0343 133.723 84.4071C132.741 82.6681 131.767 80.9241 130.792 79.1811C129.866 77.524 128.941 75.866 128.017 74.2071C127.46 73.2046 126.906 72.2001 126.349 71.1971L126.201 70.9676L125.93 71.0211C125.394 71.1596 124.859 71.2991 124.324 71.4401C123.579 71.6361 122.834 71.8356 122.089 72.0301C120.415 72.4656 118.742 72.8986 117.069 73.3326C115.367 73.7746 113.593 74.2176 111.891 74.6576C111.787 74.6841 112 74.6931 111.5 74.7106V85.2831C111.706 85.6111 111.687 85.4566 111.7 85.5646C111.739 85.8776 111.803 86.1931 111.858 86.5031C112.064 87.6581 112.527 88.7156 113.197 89.6786C114.18 91.0916 115.488 92.1016 117.091 92.7196C117.664 92.9396 118.261 93.0946 118.872 93.1696L119.493 93.3336" fill="#FD4F31"/>
<path fill-rule="evenodd" clip-rule="evenodd" d="M113.488 68.871C115.457 68.4025 117.428 67.9345 119.397 67.467C120.262 67.262 121.128 67.0595 121.993 66.8535C122.425 66.7505 122.859 66.6525 123.288 66.5365C123.67 66.4335 123.717 66.307 123.52 65.9625C123.236 65.4645 122.947 64.9695 122.66 64.473L120.127 60.113L117.596 55.7525C116.738 54.2735 115.878 52.7945 115.019 51.316L112.814 47.521C112.496 46.974 112.11 46.4255 111.79 45.879C111.731 45.7795 112 45.6605 111.5 45.6075V69.3055C111.5 69.2895 111.726 69.276 111.803 69.2575L113.488 68.871V68.871ZM174.112 85.81C173.34 86.0845 172.568 86.361 171.796 86.6375L166.523 88.528C165.547 88.8785 164.573 89.233 163.596 89.582C161.605 90.2925 159.612 91.0005 157.621 91.7095C156.467 92.1205 155.313 92.6285 154.159 93.0415C153.843 93.155 153.531 93.5 153.218 93.5H166.464L166.749 93.3365C167.086 93.322 167.417 93.222 167.748 93.1615C169.108 92.913 170.325 92.325 171.403 91.4655C172.232 90.805 172.906 89.9975 173.434 89.0765C173.977 88.1285 174.299 87.103 174.454 86.026C174.468 85.933 174.497 85.8275 174.419 85.7315C174.309 85.723 174.212 85.7745 174.112 85.81V85.81ZM172.974 68.0245C172.39 67.2255 171.805 66.428 171.222 65.6285C170.418 64.525 169.615 63.4205 168.811 62.3165C168.485 61.8685 168.153 61.424 167.835 60.971C167.739 60.8345 167.629 60.798 167.48 60.8385L167.395 60.863C165.916 61.2225 164.436 61.581 162.957 61.9395L160.306 62.583L155.119 63.8425C153.41 64.258 151.701 64.674 149.991 65.0885L144.66 66.3795C142.911 66.804 141.164 67.23 139.416 67.655L134.344 68.886C133.451 69.103 132.558 69.319 131.665 69.537C131.534 69.569 131.392 69.577 131.252 69.683L131.372 69.9105C132.967 72.6679 134.566 75.4227 136.17 78.175C137.107 79.7815 138.047 81.387 138.986 82.993C139.525 83.9155 140.061 84.839 140.605 85.759C141.208 86.7815 141.817 87.8006 142.431 88.8165C142.616 89.12 142.825 89.41 143.036 89.696C143.178 89.8883 143.355 90.0508 143.56 90.1745C143.773 90.303 144.002 90.3435 144.244 90.289C144.369 90.2605 144.491 90.2195 144.612 90.1775L145.057 90.0125C146.676 89.459 148.294 88.9055 149.913 88.354C151.176 87.924 152.44 87.496 153.704 87.0685C154.959 86.643 156.215 86.2195 157.47 85.796L161.207 84.534C162.481 84.1035 163.754 83.673 165.028 83.2415C166.591 82.711 168.153 82.1785 169.717 81.649C171.224 81.139 172.734 80.632 174.242 80.123C174.334 80.092 174.436 80.079 174.513 79.9775L174.522 79.758C174.522 76.6305 174.522 73.5025 174.525 70.375C174.528 70.2173 174.477 70.0632 174.381 69.9385C173.907 69.304 173.442 68.663 172.974 68.0245V68.0245ZM172.715 38.5555C172.364 38.111 171.917 37.97 171.369 38.113C171.13 38.1755 170.886 38.215 170.643 38.2595C169.846 38.4055 169.047 38.549 168.25 38.6935C167.083 38.9055 165.917 39.1195 164.75 39.3295C163.826 39.4955 162.902 39.659 161.977 39.821L158.268 40.47C158.113 40.497 157.956 40.524 157.806 40.572C157.587 40.642 157.524 40.779 157.624 40.9845C157.706 41.1525 157.807 41.313 157.917 41.464C158.684 42.521 159.454 43.5755 160.225 44.6305C161.287 46.085 162.349 47.539 163.412 48.9925C164.311 50.2225 165.211 51.4525 166.111 52.682C166.818 53.648 167.524 54.614 168.232 55.5795L168.372 55.7485L174.507 54.232L174.522 53.914C174.522 49.6585 174.522 45.403 174.525 41.147C174.525 40.959 174.48 40.808 174.361 40.659C173.845 40.0075 173.338 39.3485 172.828 38.6925L172.715 38.5555V38.5555ZM174.366 59.176C173.438 59.399 172.506 59.611 171.556 59.8625C171.656 60.041 174.263 63.56 174.415 63.727L174.509 63.7795L174.52 63.565L174.521 62.0835C174.521 61.224 174.523 60.3645 174.521 59.505C174.521 59.4005 174.551 59.288 174.479 59.182L174.366 59.176V59.176Z" fill="#FD4F31"/>
</svg>
