<svg width="260" height="153" viewBox="0 0 260 153" fill="none" xmlns="http://www.w3.org/2000/svg">
<path d="M186 153H0.5L140 0.5H260L186 153Z" fill="url(#paint0_linear_39_152)"/>
<path d="M106.126 86.8827H108.436V77.7573L112.014 85.7127C112.436 86.6757 113.013 87.016 114.147 87.016C115.28 87.016 115.836 86.6757 116.258 85.7127L119.835 77.7573V86.8827H122.146V77.7724C122.146 76.8837 121.791 76.4534 121.057 76.2318C119.302 75.6839 118.124 76.1581 117.59 77.3433L114.08 85.1946L110.681 77.3427C110.169 76.1581 108.97 75.6839 107.214 76.2312C106.481 76.4534 106.125 76.8831 106.125 77.7719V86.8827H106.126ZM124.068 79.4543H126.378V84.4819C126.357 84.7548 126.466 85.396 127.732 85.4163C128.377 85.4264 132.717 85.4163 132.757 85.4163V79.4296H135.073C135.084 79.4296 135.071 87.5937 135.071 87.6274C135.083 89.6412 132.573 90.0783 131.415 90.112H124.118V88.5573C124.131 88.5573 131.41 88.5589 131.428 88.5567C132.916 88.3998 132.74 87.6606 132.739 87.412V86.8056H127.828C125.543 86.7848 124.087 85.7875 124.069 84.64C124.068 84.5348 124.119 79.5049 124.068 79.4543V79.4543Z" fill="white"/>
<path d="M136.854 86.8826H143.499C144.277 86.8826 145.033 86.72 145.632 86.4388C146.632 85.9798 147.121 85.3577 147.121 84.542V82.8534C147.121 82.1869 146.565 81.5642 145.476 81.1502C144.899 80.9274 144.187 80.8099 143.498 80.8099H140.698C139.765 80.8099 139.32 80.5286 139.21 79.9065C139.188 79.8322 139.188 79.7732 139.188 79.6989V78.647C139.188 78.588 139.188 78.5284 139.21 78.4547C139.32 77.9805 139.565 77.8472 140.387 77.7729L140.61 77.7583H147.209V76.2182H140.721C139.788 76.2182 139.299 76.2772 138.855 76.4105C137.477 76.8403 136.876 77.5215 136.876 78.7067V80.0544C136.876 81.0917 138.055 81.9804 140.032 82.188C140.255 82.202 140.476 82.2178 140.698 82.2178H143.099C143.188 82.2178 143.276 82.2178 143.343 82.2319C144.077 82.2909 144.387 82.4248 144.61 82.6909C144.667 82.7436 144.712 82.8077 144.743 82.8792C144.774 82.9506 144.789 83.0277 144.787 83.1054V84.4537C144.787 84.6163 144.676 84.8239 144.454 85.0016C144.255 85.1794 143.921 85.298 143.477 85.3279L143.232 85.3425H136.854V86.8826ZM161.537 84.2017C161.537 85.7863 162.715 86.675 165.092 86.8534C165.315 86.868 165.537 86.8826 165.759 86.8826H171.781V85.3425H165.715C164.359 85.3425 163.849 85.0016 163.849 84.1865V76.217H161.538V84.2017H161.537ZM148.595 84.2816V78.7888C148.595 77.3938 149.575 76.5472 151.513 76.28C151.719 76.2504 151.927 76.2356 152.136 76.2356H156.523C156.745 76.2356 156.946 76.2502 157.168 76.28C159.105 76.5472 160.086 77.3932 160.086 78.7888V84.2816C160.086 85.4145 159.669 86.0197 158.71 86.4146L160.987 88.4694H158.304L156.462 86.8067L154.608 86.9242H152.136C151.677 86.9213 151.22 86.8564 150.778 86.7313C149.308 86.3308 148.595 85.5585 148.595 84.2816V84.2816ZM151.09 84.1483C151.09 84.2225 151.111 84.2973 151.134 84.3862C151.267 85.0247 151.869 85.3807 152.782 85.3807H154.881L152.953 83.6398H155.636L157.318 85.1585C157.628 84.9926 157.832 84.7406 157.903 84.416C157.925 84.3418 157.925 84.2675 157.925 84.1933V78.9238C157.925 78.8647 157.925 78.7899 157.903 78.7157C157.769 78.1217 157.168 77.7808 156.277 77.7808H152.781C151.757 77.7808 151.089 78.2263 151.089 78.9238V84.1483H151.09Z" fill="white"/>
<path d="M173.814 73.6604C172.394 73.6216 171.309 73.7538 170.381 74.1447C170.117 74.2561 169.697 74.2589 169.654 74.5891C169.798 74.7415 169.821 74.9682 169.936 75.155C170.158 75.5133 170.532 75.9936 170.865 76.2451C171.229 76.5201 171.605 76.8149 171.997 77.0534C172.691 77.4775 173.468 77.7194 174.137 78.1435C174.532 78.3944 174.923 78.7094 175.309 78.9923C175.499 79.1313 175.626 79.349 175.874 79.4361V79.3962C175.745 79.2308 175.711 79.0036 175.592 78.8303L175.066 78.305C174.553 77.6232 173.901 77.0253 173.208 76.528C172.655 76.1315 171.419 75.5954 171.188 74.9525L171.148 74.9125C171.539 74.8681 171.998 74.7263 172.359 74.6296C172.967 74.4665 173.51 74.5086 174.137 74.3466L174.985 74.1036V73.9428C174.668 73.6177 174.442 73.1868 174.096 72.8926C173.192 72.1225 172.205 71.353 171.188 70.7106C170.625 70.3551 169.928 70.124 169.33 69.8225C169.13 69.7207 168.776 69.6683 168.643 69.499C168.329 69.0991 168.158 68.5923 167.916 68.126C167.398 67.1186 166.913 66.0947 166.462 65.0558C166.156 64.3555 165.955 63.6648 165.573 63.0365C163.739 60.0209 161.765 58.2006 158.706 56.4119C158.056 56.0311 157.272 55.8815 156.445 55.6851L155.111 55.6042C154.841 55.4911 154.559 55.1592 154.304 54.9983C153.29 54.3582 150.691 52.966 149.941 54.797C149.467 55.9523 150.65 57.0796 151.072 57.6652C151.369 58.0758 151.749 58.5359 151.961 58.9977C152.1 59.3015 152.124 59.6058 152.244 59.927C152.537 60.7178 152.793 61.579 153.173 62.3097C153.364 62.6798 153.576 63.0697 153.819 63.4004C153.967 63.6029 154.223 63.6929 154.263 64.0062C154.013 64.355 153.999 64.8972 153.859 65.3388C153.228 67.3295 153.466 69.8039 154.384 71.2771C154.666 71.7299 155.33 72.6996 156.242 72.3273C157.04 72.0021 156.863 70.9947 157.091 70.1054C157.143 69.9046 157.111 69.7561 157.212 69.6211V69.6616L157.939 71.1157C158.477 71.9825 159.432 72.8875 160.241 73.499C160.661 73.8156 160.992 74.3641 161.534 74.5491V74.5081H161.494C161.388 74.3444 161.225 74.2769 161.09 74.1447C160.774 73.8348 160.422 73.45 160.161 73.0945C159.425 72.0955 158.774 71.0015 158.182 69.863C157.899 69.3196 157.653 68.72 157.414 68.1665C157.322 67.9533 157.323 67.6304 157.132 67.5207C156.87 67.9257 156.486 68.2537 156.283 68.7323C155.96 69.4973 155.919 70.4305 155.799 71.398L155.718 71.438C155.155 71.3024 154.957 70.723 154.748 70.2263C154.219 68.9703 154.121 66.947 154.587 65.5008C154.707 65.1261 155.251 63.9477 155.03 63.6018C154.925 63.257 154.578 63.0578 154.385 62.7935C154.131 62.4397 153.914 62.0606 153.738 61.6623C153.305 60.683 153.103 59.5833 152.648 58.5927C152.43 58.1191 152.062 57.6404 151.76 57.2197C151.425 56.7528 151.05 56.4097 150.79 55.846C150.698 55.6458 150.572 55.3246 150.709 55.1187C150.752 54.9798 150.815 54.9218 150.952 54.8763C151.186 54.6957 151.838 54.9365 152.082 55.0377C152.73 55.3072 153.271 55.5631 153.82 55.9265C154.083 56.1014 154.349 56.4389 154.668 56.5323H155.032C155.6 56.6628 156.238 56.5722 156.769 56.7337C157.708 57.0194 158.549 57.4632 159.313 57.9458C161.642 59.4162 163.544 61.5087 164.847 64.0051C165.056 64.4073 165.148 64.7903 165.332 65.2167C165.704 66.0762 166.173 66.961 166.543 67.802C166.913 68.6406 167.273 69.4872 167.796 70.1853C168.07 70.552 169.131 70.7489 169.613 70.9525C169.951 71.0954 170.505 71.2445 170.825 71.4368C171.436 71.8058 172.029 72.2451 172.602 72.649C172.889 72.8526 173.77 73.2953 173.814 73.6604V73.6604ZM155.758 58.271C155.513 58.2669 155.269 58.2942 155.031 58.352V58.3919H155.072C155.213 58.6827 155.462 58.8695 155.637 59.1192L156.041 59.9675L156.081 59.9275C156.332 59.7515 156.446 59.4697 156.445 59.0388C156.344 58.933 156.329 58.8008 156.243 58.6754C156.128 58.5067 155.904 58.4121 155.758 58.271V58.271Z" fill="white"/>
<defs>
<linearGradient id="paint0_linear_39_152" x1="71.5" y1="77" x2="222" y2="77" gradientUnits="userSpaceOnUse">
<stop stop-color="#00618A"/>
<stop offset="1" stop-color="#E48E00"/>
</linearGradient>
</defs>
</svg>
