<svg width="261" height="144" viewBox="0 0 261 144" fill="none" xmlns="http://www.w3.org/2000/svg">
<path d="M260.61 85L65 144L0.967499 131.999L260.611 0L260.61 85Z" fill="black"/>
<path d="M144.988 75.8188H158.544V76.8876H146.225V84.9876H157.812V86.0563H146.225V94.9438H158.712V96.0126H144.988V75.8188ZM159.781 75.8188H161.244L167.656 84.7063L174.125 75.8188L183.013 64.5688L168.388 85.6626L175.925 96.0126H174.406L167.6 86.5626L160.738 96.0126H159.275L166.869 85.6626L159.781 75.8188V75.8188ZM176.487 76.8876V75.8188H191.956V76.8876H184.812V96.0126H183.575V76.8876H176.487ZM128 75.8188H129.519L151.006 107.769L142.119 96.0126L129.294 77.3376L129.238 96.0126H128V75.8188ZM191.844 94.6063C192.125 94.6063 192.294 94.4376 192.294 94.1563C192.294 93.8751 192.125 93.7063 191.844 93.7063C191.562 93.7063 191.394 93.8751 191.394 94.1563C191.394 94.4376 191.619 94.6063 191.844 94.6063ZM193.081 93.4251C193.081 94.1563 193.644 94.6626 194.431 94.6626C195.275 94.6626 195.781 94.1563 195.781 93.2563V90.1626H195.106V93.2563C195.106 93.7626 194.881 93.9876 194.431 93.9876C194.037 93.9876 193.756 93.7626 193.756 93.3688H193.081V93.4251ZM196.625 93.3688C196.681 94.1563 197.3 94.6626 198.312 94.6626C199.325 94.6626 200 94.1563 200 93.3126C200 92.6376 199.606 92.3001 198.763 92.0751L198.256 91.9626C197.694 91.8501 197.469 91.6251 197.469 91.3438C197.469 90.9501 197.806 90.6688 198.369 90.6688C198.875 90.6688 199.212 90.8938 199.269 91.3438H199.944C199.888 90.6126 199.269 90.1063 198.369 90.1063C197.412 90.1063 196.794 90.6126 196.794 91.4001C196.794 92.0188 197.131 92.4126 197.919 92.5813L198.481 92.6938C199.044 92.8063 199.325 93.0313 199.325 93.3688C199.325 93.7626 198.931 94.0438 198.369 94.0438C197.806 94.0438 197.356 93.7626 197.3 93.3688H196.625V93.3688Z" fill="white"/>
</svg>
