<svg width="258" height="306" viewBox="0 0 258 306" fill="none" xmlns="http://www.w3.org/2000/svg">
<path d="M258 163L0.5 306L81.5 0.5L258 163Z" fill="#009900"/>
<path d="M87.5859 148.555C86.2031 148.555 85.2812 149.661 85.2812 151.044V164.042L70.6234 149.292C69.8859 148.555 68.5953 148.37 67.6734 148.739C66.7516 149.108 65.9219 150.03 65.9219 151.044V170.127C65.9219 171.509 67.3047 172.616 68.6875 172.616C70.0703 172.616 71.4531 171.509 71.4531 170.127V157.128L86.2953 171.878C86.7563 172.339 87.4016 172.616 88.0469 172.616C88.3234 172.616 88.4156 172.523 88.6922 172.431C89.6141 172.063 89.8906 171.141 89.8906 170.127V151.136C89.8906 149.753 88.9688 148.555 87.5859 148.555ZM105.747 159.433C104.456 159.433 103.258 160.723 103.258 162.014C103.258 163.305 104.456 164.595 105.747 164.595L111.831 164.964L110.448 168.375H102.612L98.7406 161.092L102.705 153.625H111.094L113.03 157.312H118.1L114.781 150.03L114.044 149.016H99.6625L99.0172 150.122L93.5781 159.617L92.9328 160.816L93.5781 162.014L98.925 171.509L99.6625 172.984H113.583L114.228 171.417L118.192 163.12L119.944 159.156H115.888L105.747 159.433V159.433ZM124.922 148.555C123.631 148.555 122.156 149.753 122.156 151.044V157.312H127.688V151.136C127.688 149.753 126.212 148.555 124.922 148.555ZM152.947 148.831C152.025 148.462 150.734 148.647 150.089 149.384L135.062 164.134V151.136C135.062 149.753 134.141 148.647 132.758 148.647C131.375 148.647 130.453 149.753 130.453 151.136V170.219C130.453 171.233 131.098 172.155 132.02 172.523C132.297 172.616 132.666 172.708 132.942 172.708C133.587 172.708 134.417 172.431 134.878 171.97L149.812 157.22V170.219C149.812 171.602 150.734 172.708 152.117 172.708C153.5 172.708 154.422 171.602 154.422 170.219V151.136C154.422 150.122 153.869 149.2 152.947 148.831ZM173.044 160.631L180.787 152.888C181.802 151.873 181.802 150.306 180.787 149.384C179.773 148.37 178.206 148.37 177.284 149.384L169.541 157.128L161.797 149.384C160.783 148.37 159.216 148.37 158.294 149.384C157.28 150.398 157.28 151.966 158.294 152.888L166.037 160.631L158.294 168.375C157.28 169.389 157.28 170.956 158.294 171.878C158.755 172.339 159.4 172.616 160.045 172.616C160.691 172.616 161.336 172.339 161.797 171.878L169.541 164.134L177.284 171.878C177.745 172.339 178.391 172.616 179.036 172.616C179.681 172.616 180.327 172.339 180.787 171.878C181.802 170.864 181.802 169.297 180.787 168.375L173.044 160.631V160.631ZM122.156 170.127C122.156 171.417 123.539 172.616 124.922 172.616C126.212 172.616 127.688 171.417 127.688 170.127V159.156H122.156V170.127Z" fill="white"/>
</svg>
