<svg width="177" height="112" viewBox="0 0 177 112" fill="none" xmlns="http://www.w3.org/2000/svg">
<path d="M176.5 30L0.908813 111.913L69 7.5L176.5 30Z" fill="#83CD29"/>
<path d="M124.308 45.4214C124.145 45.4214 123.983 45.3786 123.84 45.2954L122.349 44.4134C122.126 44.2891 122.235 44.2446 122.309 44.2193C122.606 44.1158 122.666 44.0916 122.983 43.9127C123.016 43.8942 123.059 43.9009 123.093 43.9212L124.238 44.6012C124.259 44.6126 124.283 44.6186 124.307 44.6186C124.331 44.6186 124.355 44.6126 124.376 44.6012L128.841 42.0244C128.862 42.012 128.879 41.9943 128.891 41.9731C128.903 41.9519 128.91 41.9279 128.91 41.9035V36.751C128.91 36.7262 128.903 36.7019 128.891 36.6803C128.879 36.6588 128.862 36.6407 128.84 36.6278L124.378 34.0532C124.356 34.0416 124.333 34.0355 124.309 34.0355C124.285 34.0355 124.261 34.0416 124.24 34.0532L119.777 36.6284C119.756 36.6412 119.739 36.6591 119.726 36.6806C119.714 36.702 119.707 36.7263 119.707 36.751V41.9035C119.707 41.953 119.735 41.9997 119.777 42.0227L121 42.7298C121.664 43.0611 122.071 42.6707 122.071 42.2781V37.1903C122.071 37.1189 122.129 37.0621 122.2 37.0621H122.767C122.837 37.0621 122.895 37.1189 122.895 37.1903V42.2781C122.895 43.1635 122.413 43.6714 121.573 43.6714C121.315 43.6714 121.112 43.6714 120.545 43.3924L119.375 42.7186C119.232 42.6355 119.114 42.5167 119.032 42.3737C118.95 42.2308 118.907 42.0689 118.907 41.9041V36.7516C118.907 36.4169 119.085 36.1047 119.375 35.9382L123.839 33.358C123.983 33.2797 124.144 33.2386 124.308 33.2386C124.472 33.2386 124.633 33.2797 124.777 33.358L129.241 35.9382C129.531 36.1052 129.71 36.4174 129.71 36.7516V41.9041C129.71 42.0689 129.666 42.2308 129.584 42.3737C129.502 42.5165 129.384 42.6354 129.241 42.7186L124.777 45.2959C124.634 45.3786 124.473 45.4219 124.308 45.4214ZM125.688 41.8714C123.733 41.8714 123.324 40.9742 123.324 40.2222C123.324 40.188 123.338 40.1552 123.362 40.1311C123.386 40.1069 123.419 40.0934 123.453 40.0934H124.03C124.061 40.0933 124.091 40.1042 124.115 40.1242C124.138 40.1442 124.154 40.172 124.159 40.2025C124.245 40.7903 124.506 41.0867 125.688 41.0867C126.628 41.0867 127.028 40.8741 127.028 40.3746C127.028 40.0866 126.914 39.8734 125.453 39.73C124.231 39.609 123.476 39.3396 123.476 38.3614C123.476 37.4609 124.235 36.9231 125.508 36.9231C126.938 36.9231 127.646 37.4198 127.735 38.4852C127.737 38.5031 127.734 38.5211 127.728 38.5382C127.723 38.5552 127.713 38.5708 127.701 38.5842C127.689 38.597 127.674 38.6072 127.658 38.6142C127.642 38.6213 127.625 38.625 127.607 38.6252H127.027C126.998 38.6253 126.969 38.6153 126.946 38.597C126.924 38.5787 126.908 38.5531 126.901 38.5246C126.762 37.9058 126.424 37.7084 125.507 37.7084C124.48 37.7084 124.361 38.0667 124.361 38.3339C124.361 38.6584 124.502 38.7529 125.888 38.9363C127.26 39.118 127.912 39.3745 127.912 40.3392C127.913 41.314 127.102 41.8714 125.688 41.8714M115.115 38.4919C115.291 38.389 115.399 38.2011 115.399 37.9969V36.6728C115.399 36.4692 115.291 36.2813 115.115 36.1784L110.41 33.4469C110.323 33.3963 110.224 33.3695 110.124 33.3693C110.023 33.3691 109.924 33.3955 109.837 33.4457L105.103 36.1789C105.016 36.2292 104.944 36.3014 104.894 36.3882C104.844 36.4751 104.817 36.5736 104.817 36.6739V42.1392C104.817 42.3445 104.927 42.5346 105.106 42.6364L109.81 45.3167C109.984 45.4163 110.196 45.4169 110.371 45.3201L113.216 43.7384C113.261 43.7138 113.298 43.6779 113.324 43.6343C113.349 43.5907 113.363 43.5411 113.364 43.4904C113.364 43.4398 113.351 43.39 113.325 43.346C113.3 43.3021 113.264 43.2657 113.22 43.2406L108.457 40.5068C108.413 40.4819 108.377 40.4459 108.351 40.4024C108.326 40.359 108.313 40.3096 108.313 40.2593V38.5459C108.313 38.4436 108.367 38.3496 108.455 38.299L109.939 37.444C109.982 37.4188 110.031 37.4056 110.081 37.4056C110.131 37.4056 110.181 37.4188 110.224 37.444L111.707 38.299C111.751 38.3239 111.787 38.3599 111.812 38.4032C111.837 38.4466 111.851 38.4958 111.851 38.5459V39.8937C111.85 39.9441 111.863 39.9936 111.889 40.0374C111.914 40.0811 111.95 40.1173 111.994 40.1425C112.037 40.1676 112.087 40.1808 112.137 40.1805C112.188 40.1803 112.237 40.1667 112.28 40.1412L115.115 38.4919M110.053 38.2354C110.07 38.2261 110.089 38.2212 110.108 38.2212C110.128 38.2212 110.146 38.2261 110.163 38.2354L111.072 38.7602C111.105 38.7799 111.126 38.8165 111.126 38.8553V39.9044C111.126 39.9437 111.105 39.9797 111.072 39.9994L110.163 40.5237C110.147 40.5334 110.128 40.5385 110.108 40.5385C110.089 40.5385 110.07 40.5334 110.053 40.5237L109.146 39.9994C109.129 39.9899 109.115 39.976 109.105 39.9593C109.096 39.9426 109.09 39.9237 109.09 39.9044V38.8553C109.09 38.8165 109.111 38.7799 109.146 38.7602L110.053 38.2354ZM97.7342 40.4179C97.7342 40.4685 97.7072 40.5158 97.6627 40.5417L96.0371 41.4788C96.0155 41.4915 95.9908 41.4982 95.9657 41.4982C95.9406 41.4982 95.9159 41.4915 95.8942 41.4788L94.2686 40.5417C94.2469 40.5291 94.2289 40.511 94.2164 40.4893C94.2039 40.4676 94.1972 40.443 94.1972 40.4179V38.5403C94.1972 38.4897 94.2247 38.4419 94.2686 38.416L95.8942 37.4777C95.9159 37.4648 95.9407 37.4579 95.966 37.4579C95.9912 37.4579 96.016 37.4648 96.0377 37.4777L97.6639 38.416C97.6854 38.4288 97.7033 38.447 97.7157 38.4688C97.7281 38.4906 97.7347 38.5152 97.7347 38.5403V40.4179H97.7342ZM98.1735 26.5152C98.1299 26.4914 98.0809 26.4792 98.0312 26.48C97.9816 26.4808 97.9329 26.4944 97.8901 26.5196C97.8473 26.5447 97.8117 26.5805 97.7868 26.6235C97.762 26.6665 97.7487 26.7153 97.7482 26.7649V34.0296C97.7481 34.0646 97.7389 34.099 97.7214 34.1294C97.7039 34.1598 97.6789 34.1851 97.6487 34.2029C97.6182 34.2203 97.5837 34.2294 97.5486 34.2294C97.5134 34.2294 97.4789 34.2203 97.4484 34.2029L96.2627 33.5194C96.1759 33.4694 96.0774 33.4431 95.9772 33.4431C95.877 33.4431 95.7786 33.4694 95.6917 33.5194L90.9566 36.2521C90.8696 36.3023 90.7974 36.3745 90.7471 36.4615C90.6969 36.5485 90.6704 36.6472 90.6703 36.7476V42.2145C90.6703 42.4187 90.7794 42.6072 90.9561 42.7101L95.6912 45.4444C95.8678 45.5468 96.0861 45.5468 96.2632 45.4444L100.999 42.7101C101.086 42.6597 101.158 42.5874 101.209 42.5005C101.259 42.4135 101.285 42.3149 101.285 42.2145V28.5869C101.285 28.3799 101.173 28.1886 100.992 28.0874L98.1735 26.5152M81.5089 33.4165C81.5957 33.3662 81.6943 33.3397 81.7946 33.3397C81.895 33.3397 81.9935 33.3662 82.0804 33.4165L86.8155 36.1486C86.9921 36.2509 87.1012 36.4399 87.1012 36.6441V42.1127C87.1012 42.3169 86.9921 42.5059 86.8155 42.6083L82.0809 45.3426C81.9939 45.3927 81.8953 45.419 81.7949 45.419C81.6945 45.419 81.5959 45.3927 81.5089 45.3426L76.7754 42.6083C76.6886 42.5579 76.6165 42.4856 76.5664 42.3987C76.5163 42.3117 76.4898 42.2131 76.4897 42.1127V36.6435C76.4897 36.4399 76.5988 36.2509 76.7754 36.1486L81.5089 33.4165M72.8981 36.5986C72.8981 36.3927 72.7901 36.2037 72.6124 36.1019L67.8789 33.3777C67.7994 33.3316 67.7098 33.3059 67.6179 33.3029H67.569C67.4772 33.306 67.3875 33.3317 67.308 33.3777L62.574 36.1019C62.4869 36.1523 62.4146 36.2247 62.3644 36.3119C62.3141 36.3991 62.2877 36.4979 62.2877 36.5986L62.2978 43.9335C62.2978 44.0359 62.3513 44.131 62.4407 44.1805C62.4835 44.2065 62.5326 44.2202 62.5827 44.2202C62.6328 44.2202 62.6819 44.2065 62.7248 44.1805L65.5373 42.5695C65.715 42.4637 65.8236 42.2775 65.8236 42.0734V38.6466C65.8236 38.4419 65.9316 38.2534 66.1088 38.151L67.3069 37.4614C67.3935 37.4105 67.4922 37.3839 67.5926 37.3844C67.6905 37.3844 67.7906 37.4091 67.8778 37.4614L69.0748 38.151C69.252 38.2534 69.3611 38.4419 69.3611 38.6466V42.0734C69.3611 42.2775 69.4708 42.4649 69.6474 42.5695L72.4599 44.1805C72.5033 44.2053 72.5524 44.2182 72.6024 44.2181C72.6523 44.218 72.7014 44.2048 72.7446 44.1798C72.7879 44.1548 72.8238 44.1189 72.8489 44.0757C72.8739 44.0325 72.8872 43.9835 72.8874 43.9335L72.8981 36.5986" fill="white"/>
</svg>
