<svg width="324" height="180" viewBox="0 0 324 180" fill="none" xmlns="http://www.w3.org/2000/svg">
<path d="M323.983 174.491L0 177.862L322.167 0L323.983 174.491Z" fill="url(#paint0_linear_39_204)"/>
<path d="M141.438 143.927C141.042 145.338 140.324 146.638 139.339 147.724V139.342C139.33 139.188 139.289 139.037 139.218 138.899C139.148 138.761 139.049 138.639 138.929 138.54C138.81 138.442 138.671 138.37 138.521 138.328C138.372 138.286 138.216 138.275 138.063 138.296C137.731 138.296 137.444 138.465 137.444 138.701C137.482 138.954 137.5 139.21 137.5 139.466V143.308C137.213 144.996 136.499 146.531 135.543 146.531C134.851 146.531 134.418 145.839 134.418 144.551C134.42 142.92 134.653 141.297 135.109 139.731C135.205 139.371 135.897 138.42 134.727 138.42C133.461 138.42 133.602 138.898 133.461 139.303C132.987 141.056 132.719 142.859 132.663 144.675C132.663 146.751 133.534 148.112 135.132 148.112C136.156 148.112 136.898 147.42 137.472 146.464V149.496C135.897 150.879 134.513 152.1 134.513 154.507C134.513 156.037 135.469 157.252 136.803 157.252C138.018 157.252 139.283 156.369 139.283 153.877V149.732C140.971 148.374 142.191 146.521 142.771 144.433C142.779 144.355 142.779 144.275 142.771 144.197C142.764 143.972 142.686 143.755 142.547 143.578C142.409 143.401 142.217 143.273 142 143.212C141.764 143.212 141.573 143.426 141.438 143.927V143.927ZM136.853 155.739C136.471 155.739 136.234 155.177 136.234 154.429C136.217 153.85 136.321 153.274 136.539 152.737C136.757 152.201 137.084 151.715 137.5 151.312V153.866C137.5 154.322 137.596 155.751 136.831 155.751L136.853 155.739Z" fill="white"/>
<path d="M148.278 146.509C147.715 146.509 147.467 145.946 147.467 145.384V141.446C147.459 141.29 147.418 141.137 147.347 140.997C147.276 140.858 147.177 140.735 147.056 140.636C146.934 140.537 146.794 140.464 146.643 140.423C146.492 140.381 146.334 140.371 146.179 140.394C145.847 140.394 145.561 140.563 145.561 140.799C145.612 141.052 145.644 141.307 145.656 141.564V145.243C145.392 145.912 144.964 146.486 144.317 146.486C143.479 146.486 142.956 145.772 142.956 144.529C142.956 141.092 145.082 139.539 146.894 139.539C147.13 139.539 147.372 139.584 147.586 139.584C147.799 139.584 147.895 139.444 147.895 139.022C147.898 138.879 147.87 138.737 147.813 138.605C147.755 138.474 147.67 138.357 147.563 138.262C147.456 138.167 147.33 138.096 147.193 138.054C147.056 138.012 146.912 138.001 146.77 138.021C143.856 138.021 141.089 140.456 141.089 144.444C141.089 146.475 142.067 148.05 143.929 148.05C144.323 148.049 144.711 147.961 145.066 147.791C145.421 147.622 145.734 147.376 145.982 147.071C146.178 147.38 146.45 147.632 146.773 147.803C147.095 147.975 147.457 148.06 147.822 148.05C149.875 148.05 150.831 145.901 151.236 144.326C151.244 144.27 151.244 144.213 151.236 144.157C151.22 143.936 151.134 143.725 150.991 143.555C150.847 143.385 150.653 143.265 150.437 143.212C150.201 143.212 149.959 143.426 149.875 143.927C149.661 144.979 149.228 146.503 148.278 146.503V146.509Z" fill="white"/>
<path d="M155.179 148.084C157.232 148.084 158.166 145.935 158.594 144.36V144.191C158.582 143.958 158.494 143.736 158.342 143.558C158.19 143.381 157.984 143.26 157.756 143.212C157.519 143.212 157.278 143.426 157.193 143.927C156.979 144.979 156.574 146.503 155.472 146.503C154.825 146.503 154.516 145.884 154.516 145.215C154.516 142.83 155.59 140.012 155.59 139.725C155.686 139.162 154.729 138.386 154.465 138.386H153.222C152.798 138.385 152.375 138.353 151.956 138.291C151.896 137.934 151.709 137.61 151.431 137.379C151.152 137.148 150.8 137.024 150.437 137.031C150.284 137.021 150.131 137.044 149.986 137.096C149.842 137.148 149.71 137.23 149.598 137.335C149.486 137.441 149.397 137.568 149.337 137.709C149.276 137.85 149.245 138.002 149.245 138.156C149.257 138.48 149.359 138.795 149.54 139.066C149.721 139.336 149.973 139.55 150.269 139.686C150.266 141.069 150.135 142.45 149.875 143.809C149.661 144.619 150.899 145.496 151.214 144.478C151.593 143.036 151.803 141.554 151.838 140.062H153.914C153.21 141.738 152.806 143.524 152.721 145.339C152.721 147.437 154.06 148.061 155.179 148.061V148.084Z" fill="white"/>
<path d="M157.306 147.032C157.297 147.179 157.321 147.325 157.375 147.462C157.43 147.598 157.514 147.721 157.621 147.822C157.729 147.922 157.857 147.998 157.997 148.043C158.137 148.088 158.285 148.102 158.431 148.084C159.123 148.084 159.1 147.521 159.1 147.06V143.572C159.269 141.688 160.748 139.635 161.44 139.635C161.896 139.635 161.941 140.254 161.941 140.996V145.845C161.941 147.06 162.683 148.095 163.949 148.095C166.002 148.095 167.014 145.946 167.425 144.371C167.433 144.315 167.433 144.258 167.425 144.202C167.414 143.969 167.325 143.747 167.173 143.57C167.022 143.393 166.815 143.271 166.587 143.224C166.351 143.224 166.109 143.437 166.024 143.938C165.811 144.99 165.321 146.514 164.365 146.514C163.746 146.514 163.746 145.631 163.746 145.389V140.467C163.746 139.342 163.364 138.054 161.766 138.054C160.596 138.054 159.736 139.078 159.094 140.417V139.342C159.086 139.186 159.045 139.033 158.974 138.894C158.903 138.754 158.804 138.631 158.683 138.532C158.561 138.433 158.421 138.36 158.27 138.319C158.119 138.277 157.961 138.268 157.806 138.291C157.474 138.291 157.188 138.459 157.188 138.696C157.238 138.948 157.27 139.204 157.283 139.461V147.032H157.306ZM122.509 148.095C121.505 148.184 120.544 148.545 119.731 149.141C118.257 150.052 117.526 149.991 117.526 149.991V149.951C117.424 149.788 117.993 148.314 117.357 146.576C116.665 144.658 115.568 144.197 115.669 144.051C116.479 143.014 117.055 141.815 117.357 140.535C117.582 139.41 117.52 137.526 117.019 136.547C116.924 136.367 116.091 136.851 116.091 136.851C115.816 136.196 115.483 135.567 115.096 134.972C114.393 134.522 113.628 136.839 113.628 136.839C113.095 136.79 112.558 136.866 112.06 137.061C111.561 137.256 111.116 137.566 110.759 137.964C110.492 138.224 110.169 138.416 109.814 138.527C109.713 138.561 109.589 138.555 109.285 139.376C108.818 140.631 110.078 142.026 110.078 142.026C109.215 142.647 108.51 143.462 108.019 144.405C107.648 145.311 107.501 146.293 107.592 147.268C107.592 147.268 106.523 148.196 106.467 149.152C106.403 149.822 106.555 150.494 106.9 151.071C106.926 151.129 106.964 151.181 107.012 151.224C107.059 151.268 107.115 151.301 107.175 151.322C107.236 151.343 107.3 151.351 107.364 151.347C107.428 151.342 107.49 151.325 107.547 151.296C107.547 151.296 106.838 152.122 107.502 152.477C108.166 152.831 109.128 152.977 109.668 152.432C110.061 152.038 110.134 151.166 110.281 150.806C110.314 150.722 110.433 150.947 110.545 151.059C110.648 151.151 110.759 151.234 110.877 151.307C110.75 151.357 110.635 151.433 110.538 151.528C110.441 151.624 110.364 151.738 110.312 151.864C110.26 151.989 110.233 152.124 110.233 152.26C110.234 152.397 110.261 152.531 110.314 152.657C110.444 152.966 110.905 153.169 111.664 153.163C113.067 153.11 114.466 152.984 115.855 152.786C116.105 152.746 116.332 152.619 116.496 152.426C117.832 152.028 119.107 151.451 120.288 150.711C121.054 150.139 121.931 149.734 122.864 149.524C122.958 149.5 123.046 149.459 123.124 149.401C123.201 149.344 123.267 149.272 123.317 149.189C123.367 149.106 123.4 149.015 123.414 148.919C123.429 148.823 123.424 148.726 123.401 148.632C123.378 148.538 123.336 148.45 123.279 148.372C123.221 148.294 123.149 148.229 123.066 148.179C122.984 148.129 122.892 148.096 122.796 148.081C122.701 148.067 122.603 148.072 122.509 148.095V148.095Z" fill="white"/>
<path d="M113.875 128.812C110.871 128.812 107.935 129.703 105.437 131.372C102.94 133.041 100.993 135.413 99.8436 138.188C98.6941 140.963 98.3933 144.017 98.9793 146.963C99.5653 149.909 101.012 152.615 103.136 154.739C105.26 156.863 107.966 158.31 110.912 158.896C113.858 159.482 116.912 159.181 119.687 158.031C122.462 156.882 124.834 154.935 126.503 152.438C128.172 149.94 129.063 147.004 129.063 144C129.063 139.972 127.462 136.109 124.614 133.261C121.766 130.413 117.903 128.812 113.875 128.812ZM123.01 150.328C122.175 150.518 121.389 150.882 120.704 151.397C119.513 152.145 118.231 152.736 116.89 153.157C116.632 153.37 116.327 153.518 116.001 153.591C114.548 153.808 113.083 153.941 111.614 153.99H111.558C111.225 154.019 110.89 153.979 110.575 153.871C110.259 153.764 109.969 153.592 109.724 153.366C109.293 153.543 108.828 153.62 108.363 153.591C107.898 153.562 107.446 153.427 107.041 153.197C106.855 153.104 106.693 152.969 106.567 152.803C106.441 152.637 106.355 152.445 106.315 152.241C106.286 152.073 106.286 151.902 106.315 151.734C106.243 151.658 106.179 151.575 106.124 151.487C105.676 150.748 105.479 149.884 105.561 149.023C105.692 148.198 106.087 147.438 106.686 146.858C106.645 145.882 106.807 144.909 107.164 144C107.564 143.155 108.139 142.405 108.852 141.801C108.576 141.393 108.395 140.929 108.323 140.442C108.25 139.955 108.289 139.458 108.436 138.988C108.723 138.223 108.959 137.801 109.476 137.621C109.701 137.556 109.91 137.445 110.089 137.295C110.843 136.472 111.885 135.973 112.998 135.9C113.043 135.782 113.099 135.664 113.155 135.54C113.377 134.906 113.837 134.384 114.438 134.083C114.615 134.017 114.805 133.994 114.992 134.015C115.18 134.037 115.36 134.103 115.518 134.207C115.675 134.314 115.883 134.443 116.474 135.669C116.7 135.595 116.945 135.595 117.171 135.669C117.292 135.706 117.404 135.767 117.501 135.848C117.598 135.929 117.677 136.029 117.734 136.142C118.336 137.301 118.42 139.371 118.156 140.704C117.922 141.882 117.434 142.995 116.727 143.966C117.362 144.616 117.849 145.395 118.156 146.25C118.448 147.066 118.567 147.934 118.504 148.798C118.768 148.675 119.023 148.536 119.269 148.382C120.218 147.701 121.334 147.292 122.498 147.201C122.903 147.18 123.301 147.312 123.613 147.57C123.926 147.828 124.13 148.194 124.186 148.596C124.24 148.979 124.149 149.369 123.932 149.689C123.715 150.009 123.386 150.237 123.01 150.328V150.328Z" fill="white"/>
<path d="M232.125 94.6562H301.875V119.243H267V123.344H251.497V119.243H232.125V94.6562ZM236.001 115.148H243.752V102.852H247.627V115.148H251.503V98.7569H236.001V115.148ZM255.373 98.7569V119.243H263.124V115.148H270.876V98.7569H255.373ZM263.124 102.858H267V111.047H263.124V102.858ZM274.751 98.7569V115.148H282.502V102.852H286.378V115.148H290.254V102.852H294.129V115.148H298.005V98.7569H274.751Z" fill="white"/>
<defs>
<linearGradient id="paint0_linear_39_204" x1="324" y1="89" x2="-25" y2="178" gradientUnits="userSpaceOnUse">
<stop offset="0.223958" stop-color="#CB3837"/>
<stop offset="0.567708" stop-color="#2C8EBB"/>
</linearGradient>
</defs>
</svg>
