<svg width="244" height="213" viewBox="0 0 244 213" fill="none" xmlns="http://www.w3.org/2000/svg">
<path d="M243.983 174.491L175 212.5L0 50.5L242.167 0L243.983 174.491Z" fill="#6181B6"/>
<path d="M167 87.5845C148.021 87.5845 132.635 95.3818 132.635 105C132.635 114.618 148.021 122.416 167 122.416C185.979 122.416 201.365 114.618 201.365 105C201.365 95.3818 185.979 87.5845 167 87.5845ZM158.058 108.393C157.238 109.16 156.327 109.477 155.324 109.803C154.321 110.13 153.045 110.063 151.493 110.063H147.976L147.001 115.688H142.894L146.559 96.5625H154.456C156.832 96.5625 158.565 97.246 159.655 98.493C160.744 99.7401 161.072 101.51 160.638 103.745C160.458 104.666 160.156 105.522 159.73 106.285C159.288 107.072 158.724 107.783 158.058 108.393V108.393ZM170.045 110.063L171.666 101.951C171.85 101.002 171.783 100.296 171.463 99.9516C171.142 99.6062 170.46 99.375 169.418 99.375H166.161L164.063 110.063H159.988L163.653 91.5H167.727L166.753 96.5625H170.383C172.667 96.5625 174.242 97.021 175.109 97.8175C175.976 98.614 176.236 99.7052 175.889 101.489L174.184 110.063H170.045ZM192.691 103.775C192.512 104.696 192.21 105.537 191.784 106.299C191.357 107.063 190.8 107.761 190.113 108.393C189.292 109.16 188.381 109.477 187.379 109.803C186.376 110.13 185.099 110.063 183.547 110.063H180.03L179.055 115.688H174.949L178.613 96.5625H186.511C188.887 96.5625 190.62 97.246 191.709 98.493C192.797 99.7401 193.125 101.541 192.691 103.775V103.775ZM184.954 99.375H182.141L180.607 107.25H183.106C184.761 107.25 185.995 107.087 186.805 106.463C187.616 105.839 188.162 104.872 188.446 103.413C188.719 102.012 188.595 100.919 188.075 100.343C187.555 99.7671 186.515 99.375 184.954 99.375V99.375ZM152.9 99.375H150.087L148.553 107.25H151.051C152.706 107.25 153.94 107.087 154.75 106.463C155.561 105.839 156.108 104.872 156.391 103.413C156.663 102.012 156.54 100.919 156.02 100.343C155.5 99.7671 154.461 99.375 152.9 99.375Z" fill="white"/>
</svg>
