<svg width="254" height="156" viewBox="0 0 254 156" fill="none" xmlns="http://www.w3.org/2000/svg">
<path d="M173.5 155.5L0.5 127.5L68.5 0H254L173.5 155.5Z" fill="#61DAFB"/>
<path d="M119 72.7001C122.148 72.7001 124.7 70.1481 124.7 67C124.7 63.852 122.148 61.3 119 61.3C115.852 61.3 113.3 63.852 113.3 67C113.3 70.1481 115.852 72.7001 119 72.7001Z" fill="white"/>
<path d="M140.65 57.6C139.55 57.2 138.4 56.8001 137.2 56.4501C137.5 55.2501 137.75 54.05 137.95 52.9C139 46.3 137.85 41.65 134.65 39.85C133.7 39.3 132.65 39.05 131.45 39.05C127.95 39.05 123.5 41.65 119 46C114.5 41.65 110.05 39.05 106.55 39.05C105.35 39.05 104.3 39.3 103.35 39.85C100.15 41.7 99 46.35 100.05 52.9C100.25 54.05 100.5 55.2501 100.8 56.4501C99.6 56.8001 98.45 57.15 97.35 57.6C91.1 60 87.7 63.3 87.7 67C87.7 70.7 91.15 74.0001 97.35 76.4001C98.45 76.8001 99.6 77.2 100.8 77.55C100.5 78.75 100.25 79.95 100.05 81.1C99 87.7 100.15 92.3501 103.35 94.1501C104.3 94.7001 105.35 94.9501 106.55 94.9501C110.1 94.9501 114.55 92.35 119 88C123.5 92.35 127.95 94.9501 131.45 94.9501C132.65 94.9501 133.7 94.7001 134.65 94.1501C137.85 92.3001 139 87.65 137.95 81.1C137.75 79.95 137.5 78.75 137.2 77.55C138.4 77.2 139.55 76.8501 140.65 76.4001C146.9 74.0001 150.3 70.7 150.3 67C150.3 63.3 146.9 60 140.65 57.6V57.6ZM133.25 42.35C135.3 43.55 136 47.25 135.15 52.5C135 53.55 134.75 54.65 134.45 55.8C131.85 55.2 129.1 54.8 126.2 54.55C124.5 52.15 122.75 50 121 48.05C124.7 44.4 128.45 41.9 131.5 41.9C132.15 41.9 132.75 42.05 133.25 42.35V42.35ZM127.65 72C126.75 73.6 125.7 75.2 124.6 76.8C122.75 76.95 120.9 77 119 77C117.05 77 115.2 76.95 113.4 76.8C112.3 75.2 111.3 73.6 110.4 72C109.45 70.35 108.55 68.65 107.75 67C108.55 65.35 109.45 63.65 110.4 62C111.3 60.4 112.35 58.8001 113.45 57.2001C115.3 57.0501 117.15 57 119.05 57C121 57 122.85 57.0501 124.65 57.2001C125.75 58.8001 126.75 60.4 127.65 62C128.6 63.65 129.5 65.35 130.3 67C129.45 68.65 128.6 70.3 127.65 72ZM131.8 70.35C132.55 72.1 133.15 73.8 133.7 75.5C132 75.9 130.2 76.2001 128.3 76.4501C128.9 75.5001 129.55 74.5001 130.1 73.4501C130.7 72.4001 131.25 71.35 131.8 70.35ZM119 83.9001C117.8 82.6001 116.65 81.2 115.55 79.75C116.7 79.8 117.85 79.85 119 79.85C120.15 79.85 121.3 79.8 122.45 79.75C121.35 81.2 120.2 82.6001 119 83.9001ZM109.7 76.4001C107.8 76.1501 106 75.8501 104.3 75.4501C104.85 73.8001 105.45 72.05 106.2 70.3C106.75 71.3 107.3 72.35 107.9 73.35C108.5 74.45 109.1 75.4001 109.7 76.4001V76.4001ZM106.2 63.65C105.45 61.9 104.85 60.2 104.3 58.5C106 58.1 107.8 57.8 109.7 57.55C109.1 58.5 108.45 59.5 107.9 60.55C107.3 61.6 106.75 62.65 106.2 63.65V63.65ZM119 50.1C120.2 51.4 121.35 52.8 122.45 54.25C121.3 54.2 120.15 54.15 119 54.15C117.85 54.15 116.7 54.2 115.55 54.25C116.65 52.8 117.8 51.4 119 50.1ZM130.1 60.6L128.3 57.6C130.2 57.85 132 58.15 133.7 58.55C133.15 60.2 132.55 61.9501 131.8 63.7001C131.25 62.6501 130.7 61.6 130.1 60.6ZM102.85 52.5C102 47.25 102.7 43.55 104.75 42.35C105.25 42.05 105.85 41.9 106.5 41.9C109.5 41.9 113.25 44.35 117 48.05C115.25 49.95 113.5 52.15 111.8 54.55C108.9 54.8 106.15 55.25 103.55 55.8C103.25 54.65 103.05 53.55 102.85 52.5V52.5ZM90.5 67C90.5 64.65 93.35 62.15 98.35 60.3C99.35 59.9 100.45 59.55 101.55 59.25C102.35 61.75 103.35 64.4 104.55 67.05C103.35 69.7 102.3 72.3 101.55 74.8C94.65 72.8 90.5 69.8 90.5 67ZM104.75 91.6501C102.7 90.4501 102 86.75 102.85 81.5C103 80.45 103.25 79.3501 103.55 78.2001C106.15 78.8001 108.9 79.2001 111.8 79.4501C113.5 81.8501 115.25 84.0001 117 85.9501C113.3 89.6001 109.55 92.1 106.5 92.1C105.85 92.1 105.25 91.9501 104.75 91.6501ZM135.15 81.5C136 86.75 135.3 90.4501 133.25 91.6501C132.75 91.9501 132.15 92.1 131.5 92.1C128.5 92.1 124.75 89.6501 121 85.9501C122.75 84.0501 124.5 81.8501 126.2 79.4501C129.1 79.2001 131.85 78.7501 134.45 78.2001C134.75 79.3501 134.95 80.45 135.15 81.5V81.5ZM139.65 73.7001C138.65 74.1001 137.55 74.45 136.45 74.75C135.65 72.25 134.65 69.6001 133.45 66.9501C134.65 64.3001 135.7 61.7001 136.45 59.2001C143.35 61.2001 147.5 64.2 147.5 67C147.5 69.35 144.6 71.8501 139.65 73.7001Z" fill="white"/>
</svg>
