<svg width="213" height="242" viewBox="0 0 213 242" fill="none" xmlns="http://www.w3.org/2000/svg">
<path d="M149 241.5H0L38 81.5L213 0L149 241.5Z" fill="#282C34"/>
<path d="M54.525 180.063C54.525 180.544 54.42 180.964 54.21 181.323C54.0047 181.682 53.7247 181.979 53.37 182.212C53.0153 182.445 52.6163 182.616 52.173 182.723L55.029 187H53.573L50.941 182.863H49.639V187H48.421V177.361H50.899C52.089 177.361 52.9897 177.59 53.601 178.047C54.217 178.5 54.525 179.172 54.525 180.063ZM53.223 180.063C53.223 179.442 53.0457 178.999 52.691 178.733C52.3363 178.462 51.7857 178.327 51.039 178.327H49.639V181.911H51.039C51.7297 181.911 52.2663 181.771 52.649 181.491C53.0317 181.206 53.223 180.73 53.223 180.063ZM58.3695 178.355V181.603H61.9395V182.604H58.3695V186.027H62.7515V187H57.1515V177.361H62.6255L62.4855 178.355H58.3695ZM69.8581 184.543H66.0431L65.2731 187H64.0761L67.2121 177.361H68.7661L71.9021 187H70.6281L69.8581 184.543ZM66.3581 183.535H69.5431L67.9611 178.383L66.3581 183.535ZM77.1956 177.207C77.8256 177.207 78.3529 177.286 78.7776 177.445C79.2023 177.604 79.6059 177.837 79.9886 178.145L79.3096 178.936C79.0063 178.679 78.6843 178.497 78.3436 178.39C78.0076 178.278 77.6553 178.222 77.2866 178.222C76.7593 178.222 76.2716 178.348 75.8236 178.6C75.3756 178.847 75.0139 179.26 74.7386 179.839C74.4679 180.413 74.3326 181.192 74.3326 182.177C74.3326 183.134 74.4609 183.901 74.7176 184.48C74.9789 185.059 75.3313 185.476 75.7746 185.733C76.2179 185.99 76.7126 186.118 77.2586 186.118C77.7999 186.118 78.2433 186.036 78.5886 185.873C78.9386 185.71 79.2419 185.523 79.4986 185.313L80.1286 186.111C79.8346 186.396 79.4519 186.643 78.9806 186.853C78.5093 187.058 77.9306 187.161 77.2446 187.161C76.4653 187.161 75.7583 186.97 75.1236 186.587C74.4936 186.204 73.9943 185.644 73.6256 184.907C73.2569 184.165 73.0726 183.255 73.0726 182.177C73.0726 181.094 73.2593 180.184 73.6326 179.447C74.0106 178.71 74.5123 178.152 75.1376 177.774C75.7676 177.396 76.4536 177.207 77.1956 177.207ZM85.3591 178.404V187H84.1481V178.404H81.1381V177.361H88.4111L88.2851 178.404H85.3591ZM102.897 187L99.5022 178.523C99.5069 178.63 99.5162 178.81 99.5302 179.062C99.5489 179.309 99.5675 179.606 99.5862 179.951C99.6095 180.292 99.6282 180.653 99.6422 181.036C99.6562 181.419 99.6632 181.797 99.6632 182.17V187H98.5362V177.361H100.181L103.632 185.873C103.628 185.738 103.611 185.49 103.583 185.131C103.555 184.767 103.53 184.328 103.506 183.815C103.483 183.302 103.471 182.758 103.471 182.184V177.361H104.598V187H102.897ZM111.831 184.543H108.016L107.246 187H106.049L109.185 177.361H110.739L113.875 187H112.601L111.831 184.543ZM108.331 183.535H111.516L109.934 178.383L108.331 183.535ZM118.937 178.404V187H117.726V178.404H114.716V177.361H121.989L121.863 178.404H118.937ZM129.509 177.361V178.334H127.367V186.027H129.509V187H123.993V186.027H126.135V178.334H123.993V177.361H129.509ZM135.173 185.621L137.777 177.361H139.002L135.775 187H134.515L131.288 177.361H132.597L135.173 185.621ZM142.315 178.355V181.603H145.885V182.604H142.315V186.027H146.697V187H141.097V177.361H146.571L146.431 178.355H142.315Z" fill="white"/>
<path d="M98 143.412C101.542 143.412 104.413 140.541 104.413 137C104.413 133.458 101.542 130.587 98 130.587C94.4585 130.587 91.5875 133.458 91.5875 137C91.5875 140.541 94.4585 143.412 98 143.412Z" fill="white"/>
<path d="M122.356 126.425C121.119 125.975 119.825 125.525 118.475 125.131C118.813 123.781 119.094 122.431 119.319 121.137C120.5 113.712 119.206 108.481 115.606 106.456C114.538 105.837 113.356 105.556 112.006 105.556C108.069 105.556 103.063 108.481 98 113.375C92.9375 108.481 87.9313 105.556 83.9938 105.556C82.6438 105.556 81.4625 105.837 80.3938 106.456C76.7938 108.537 75.5 113.769 76.6813 121.137C76.9063 122.431 77.1875 123.781 77.525 125.131C76.175 125.525 74.8813 125.919 73.6438 126.425C66.6125 129.125 62.7875 132.837 62.7875 137C62.7875 141.162 66.6688 144.875 73.6438 147.575C74.8813 148.025 76.175 148.475 77.525 148.869C77.1875 150.219 76.9063 151.569 76.6813 152.862C75.5 160.287 76.7938 165.519 80.3938 167.544C81.4625 168.162 82.6438 168.444 83.9938 168.444C87.9875 168.444 92.9938 165.519 98 160.625C103.063 165.519 108.069 168.444 112.006 168.444C113.356 168.444 114.538 168.162 115.606 167.544C119.206 165.462 120.5 160.231 119.319 152.862C119.094 151.569 118.813 150.219 118.475 148.869C119.825 148.475 121.119 148.081 122.356 147.575C129.388 144.875 133.213 141.162 133.213 137C133.213 132.837 129.388 129.125 122.356 126.425V126.425ZM114.031 109.269C116.338 110.619 117.125 114.781 116.169 120.687C116 121.869 115.719 123.106 115.381 124.4C112.456 123.725 109.363 123.275 106.1 122.994C104.188 120.294 102.219 117.875 100.25 115.681C104.413 111.575 108.631 108.762 112.063 108.762C112.794 108.762 113.469 108.931 114.031 109.269V109.269ZM107.731 142.625C106.719 144.425 105.538 146.225 104.3 148.025C102.219 148.194 100.138 148.25 98 148.25C95.8063 148.25 93.725 148.194 91.7 148.025C90.4625 146.225 89.3375 144.425 88.325 142.625C87.2563 140.769 86.2438 138.856 85.3438 137C86.2438 135.144 87.2563 133.231 88.325 131.375C89.3375 129.575 90.5188 127.775 91.7563 125.975C93.8375 125.806 95.9188 125.75 98.0563 125.75C100.25 125.75 102.331 125.806 104.356 125.975C105.594 127.775 106.719 129.575 107.731 131.375C108.8 133.231 109.813 135.144 110.713 137C109.756 138.856 108.8 140.712 107.731 142.625ZM112.4 140.769C113.244 142.737 113.919 144.65 114.538 146.562C112.625 147.012 110.6 147.35 108.463 147.631C109.138 146.562 109.869 145.437 110.488 144.256C111.163 143.075 111.781 141.894 112.4 140.769ZM98 156.012C96.65 154.55 95.3563 152.975 94.1188 151.344C95.4125 151.4 96.7063 151.456 98 151.456C99.2938 151.456 100.588 151.4 101.881 151.344C100.644 152.975 99.35 154.55 98 156.012ZM87.5375 147.575C85.4 147.294 83.375 146.956 81.4625 146.506C82.0813 144.65 82.7563 142.681 83.6 140.712C84.2188 141.837 84.8375 143.019 85.5125 144.144C86.1875 145.381 86.8625 146.45 87.5375 147.575V147.575ZM83.6 133.231C82.7563 131.262 82.0813 129.35 81.4625 127.437C83.375 126.987 85.4 126.65 87.5375 126.369C86.8625 127.437 86.1313 128.562 85.5125 129.744C84.8375 130.925 84.2188 132.106 83.6 133.231V133.231ZM98 117.987C99.35 119.45 100.644 121.025 101.881 122.656C100.588 122.6 99.2938 122.544 98 122.544C96.7063 122.544 95.4125 122.6 94.1188 122.656C95.3563 121.025 96.65 119.45 98 117.987ZM110.488 129.8L108.463 126.425C110.6 126.706 112.625 127.044 114.538 127.494C113.919 129.35 113.244 131.319 112.4 133.287C111.781 132.106 111.163 130.925 110.488 129.8ZM79.8313 120.687C78.875 114.781 79.6625 110.619 81.9688 109.269C82.5313 108.931 83.2063 108.762 83.9375 108.762C87.3125 108.762 91.5313 111.519 95.75 115.681C93.7813 117.819 91.8125 120.294 89.9 122.994C86.6375 123.275 83.5438 123.781 80.6188 124.4C80.2813 123.106 80.0563 121.869 79.8313 120.687V120.687ZM65.9375 137C65.9375 134.356 69.1438 131.544 74.7688 129.462C75.8938 129.012 77.1313 128.619 78.3688 128.281C79.2688 131.094 80.3938 134.075 81.7438 137.056C80.3938 140.037 79.2125 142.962 78.3688 145.775C70.6063 143.525 65.9375 140.15 65.9375 137ZM81.9688 164.731C79.6625 163.381 78.875 159.219 79.8313 153.312C80 152.131 80.2813 150.894 80.6188 149.6C83.5438 150.275 86.6375 150.725 89.9 151.006C91.8125 153.706 93.7813 156.125 95.75 158.319C91.5875 162.425 87.3688 165.237 83.9375 165.237C83.2063 165.237 82.5313 165.069 81.9688 164.731ZM116.169 153.312C117.125 159.219 116.338 163.381 114.031 164.731C113.469 165.069 112.794 165.237 112.063 165.237C108.688 165.237 104.469 162.481 100.25 158.319C102.219 156.181 104.188 153.706 106.1 151.006C109.363 150.725 112.456 150.219 115.381 149.6C115.719 150.894 115.944 152.131 116.169 153.312V153.312ZM121.231 144.537C120.106 144.987 118.869 145.381 117.631 145.719C116.731 142.906 115.606 139.925 114.256 136.944C115.606 133.962 116.788 131.037 117.631 128.225C125.394 130.475 130.063 133.85 130.063 137C130.063 139.644 126.8 142.456 121.231 144.537Z" fill="white"/>
</svg>
