<svg width="243" height="153" viewBox="0 0 243 153" fill="none" xmlns="http://www.w3.org/2000/svg">
<path d="M163 153L0.5 101.5L189 0H242.5L163 153Z" fill="#764ABC"/>
<path d="M150.345 91.0551C145.845 100.255 137.965 106.445 127.54 108.48C125.942 108.872 124.301 109.063 122.655 109.05C116.655 109.05 111.155 106.55 108.485 102.455C104.9 97.0001 103.68 85.4351 115.5 76.8801C115.74 78.1851 116.23 79.9751 116.555 81.0351C114.235 82.759 112.335 84.9865 111 87.5501C108.8 91.8701 109.045 96.1851 111.65 100.175C113.45 102.865 116.3 104.5 119.965 105C124.543 105.58 129.187 104.705 133.24 102.5C139.595 99.1601 143.83 95.1701 146.6 89.7151C145.817 88.9057 145.353 87.84 145.295 86.7151C145.253 85.5081 145.692 84.3337 146.515 83.4497C147.338 82.5658 148.478 82.0444 149.685 82.0001H149.855C151.029 81.9942 152.16 82.4399 153.015 83.2449C153.869 84.0498 154.382 85.1525 154.446 86.3248C154.51 87.497 154.121 88.6491 153.36 89.5426C152.598 90.4361 151.523 91.0027 150.355 91.1251L150.345 91.0551ZM164.68 80.9551C170.785 87.8751 170.95 96.0201 168.59 100.745C166.39 105.06 160.59 109.38 152.79 109.38C149.149 109.306 145.567 108.444 142.29 106.855C143.435 106.04 145.06 104.735 145.955 103.92C148.482 105.015 151.201 105.596 153.955 105.63C159.005 105.63 162.83 103.27 165.11 98.9551C166.575 96.1051 166.66 92.7651 165.275 89.3451C163.576 85.042 160.551 81.391 156.64 78.9201C151.508 75.4608 145.459 73.6167 139.27 73.6251H137.805C137.463 74.4142 136.908 75.092 136.201 75.5815C135.494 76.0711 134.664 76.3529 133.805 76.3951H133.65C132.462 76.3805 131.327 75.9034 130.485 75.0651C129.643 74.2268 129.161 73.0933 129.142 71.9055C129.122 70.7176 129.567 69.569 130.38 68.7035C131.194 67.8379 132.313 67.3238 133.5 67.2701H133.665C134.492 67.2707 135.303 67.4993 136.009 67.9306C136.714 68.3619 137.287 68.9794 137.665 69.7151H138.97C149.37 69.7151 158.5 73.7051 164.68 80.9551V80.9551ZM123.305 92.4551C123.219 91.6248 123.421 90.7902 123.875 90.0901C119.315 82.1901 116.875 72.1751 120.62 61.7501C123.305 53.9151 130.065 48.6201 137.395 48.6201C145.215 48.6201 153.36 55.4651 154.335 68.6551C153.115 68.2501 151.335 67.6551 150.265 67.4351C150 63.1201 146.355 52.3701 137.72 52.5301C134.625 52.6151 130.065 54.0801 127.72 57.0901C124.819 60.6832 123.132 65.1031 122.9 69.7151C122.35 76.039 123.834 82.3732 127.135 87.7951C127.317 87.7285 127.511 87.7013 127.705 87.7151H127.865C129.074 87.6932 130.243 88.1527 131.114 88.9924C131.984 89.8321 132.486 90.9832 132.507 92.1926C132.529 93.402 132.07 94.5706 131.23 95.4412C130.391 96.3118 129.239 96.8132 128.03 96.8351H127.865C126.685 96.8309 125.552 96.3716 124.703 95.5528C123.853 94.734 123.353 93.619 123.305 92.4401V92.4551Z" fill="white"/>
</svg>
