<svg width="167" height="287" viewBox="0 0 167 287" fill="none" xmlns="http://www.w3.org/2000/svg">
<path d="M166.035 53.6266L52.5 287L3.05176e-05 0.500244L166.035 53.6266Z" fill="#CB6699"/>
<path fill-rule="evenodd" clip-rule="evenodd" d="M41.6857 102.588C41.6857 102.983 41.8021 103.244 41.8674 103.498C42.2926 105.148 43.2067 106.563 44.2912 107.855C45.8358 109.695 47.7275 111.177 49.6653 112.57C51.3461 113.779 53.0611 114.96 54.7486 116.159C55.0383 116.365 55.3123 116.602 55.6267 116.854C55.3561 117.001 55.1311 117.13 54.8971 117.248C52.6702 118.378 50.5276 119.644 48.5527 121.178C47.3625 122.103 46.2116 123.085 45.3988 124.369C44.0909 126.435 43.628 128.635 44.6028 130.985C44.8874 131.671 45.3217 132.264 45.9343 132.702C46.1328 132.844 46.3556 132.985 46.5879 133.04C47.183 133.18 47.7894 133.272 48.3918 133.382L50.0979 133.381C51.9845 133.213 53.7018 132.567 55.2538 131.496C57.6793 129.822 59.3133 127.577 60.0159 124.697C60.5266 122.603 60.5475 120.507 59.9456 118.423C59.888 118.23 59.8215 118.04 59.7465 117.853C59.6733 117.666 59.5873 117.483 59.486 117.25L63.3538 115.026L63.4117 115.075C63.3414 115.305 63.2666 115.535 63.203 115.767C62.7435 117.446 62.438 119.153 62.5477 120.895C62.6647 122.752 63.1828 124.489 64.2695 126.04C65.1481 127.294 67.2418 127.341 68.1755 126.082C68.5068 125.635 68.828 125.168 69.0693 124.669C69.6999 123.367 70.2838 122.041 70.8862 120.725L70.9914 120.484C70.9481 121.108 70.8975 121.655 70.8744 122.203C70.8384 123.058 70.8885 123.909 71.181 124.723C71.4313 125.419 71.8571 125.939 72.6547 126.031C73.2003 126.094 73.6351 125.844 74.0362 125.527C74.6575 125.036 75.1725 124.424 75.5499 123.728C76.6192 121.764 77.7172 119.812 78.6864 117.799C79.7349 115.621 80.6518 113.38 81.6255 111.166L81.7863 110.773C82.0164 111.677 82.1767 112.563 82.472 113.401C82.8151 114.373 83.2398 115.323 83.7022 116.246C83.921 116.682 83.8957 116.965 83.5925 117.33C82.3235 118.86 81.0765 120.409 79.8283 121.956C79.5521 122.297 79.277 122.645 79.047 123.018C78.9074 123.253 78.8156 123.514 78.777 123.785C78.7382 124.035 78.7976 124.289 78.9427 124.496C79.0877 124.703 79.3071 124.845 79.5549 124.894C80.055 125.001 80.5678 125.038 81.0781 125.002C82.8202 124.874 84.402 124.263 85.8003 123.226C87.6121 121.884 88.1938 120.053 87.755 117.882C87.6363 117.293 87.4265 116.721 87.2223 116.153C87.1306 115.897 87.1245 115.718 87.2915 115.479C88.74 113.411 89.9775 111.216 91.1283 108.972C91.1739 108.883 91.2206 108.795 91.3005 108.7C91.6734 110.641 92.2348 112.511 93.2405 114.208C92.7275 114.703 92.2196 115.151 91.76 115.645C90.7481 116.733 89.8706 117.914 89.4127 119.355C89.2158 119.976 89.0645 120.607 89.1523 121.27C89.2884 122.3 90.1321 122.969 91.1452 122.735C93.3131 122.233 95.1845 121.212 96.552 119.402C97.4722 118.184 97.556 116.825 97.1707 115.401C97.065 115.014 96.9395 114.633 96.8045 114.189C97.3395 114.023 97.8609 113.824 98.4003 113.701C101.201 113.062 103.971 113.173 106.67 114.185C108.246 114.775 109.519 115.764 110.274 117.319C111.196 119.219 110.686 121.023 108.894 122.224C108.727 122.336 108.536 122.424 108.398 122.564C108.353 122.616 108.32 122.676 108.3 122.741C108.28 122.806 108.274 122.874 108.282 122.941C108.294 123.01 108.477 123.097 108.582 123.096C109.171 123.091 109.649 122.783 110.107 122.465C111.256 121.671 112.094 120.601 112.274 119.193L112.31 119.088L112.267 118.171C112.249 118.118 112.279 118.065 112.276 118.026C112.031 115.975 110.936 114.385 109.343 113.139C107.498 111.696 105.32 111.102 103.016 111.008C101.147 110.927 99.2808 111.215 97.5228 111.853C97.0183 112.036 96.5182 112.253 96.0108 112.457C95.9428 112.334 95.8696 112.216 95.8095 112.093C95.2886 111.027 94.6575 110.008 94.518 108.785C94.419 107.916 94.2975 107.049 94.5039 106.19C94.7025 105.364 94.9612 104.551 95.2048 103.736C95.3302 103.317 95.2419 103.082 94.8414 102.893C94.7018 102.823 94.5529 102.774 94.3993 102.747C93.4149 102.605 92.444 102.686 91.4906 102.964C91.1531 103.062 90.9078 103.251 90.833 103.624C90.7903 103.839 90.7031 104.044 90.6423 104.256C90.3931 105.135 90.2165 106.031 89.8138 106.868C88.8046 108.969 87.6526 110.991 86.4736 112.998C86.346 113.215 86.2115 113.427 86.0506 113.69C85.6366 112.824 85.1951 112.046 85.0612 111.135C84.9099 110.104 84.7906 109.076 85.0471 108.053C85.2378 107.29 85.487 106.542 85.7165 105.789C85.8251 105.431 85.775 105.243 85.451 105.055C85.2873 104.96 85.1023 104.875 84.9178 104.848C83.9084 104.694 82.8771 104.778 81.9061 105.094C81.6007 105.193 81.4404 105.391 81.347 105.706C81.0725 106.635 80.8385 107.587 80.4532 108.47C78.8928 112.048 77.2875 115.607 75.6838 119.165C75.3491 119.908 74.957 120.625 74.5796 121.349C74.484 121.532 74.3445 121.694 74.2252 121.866C74.1296 121.753 74.0925 121.675 74.093 121.597C74.0958 121.14 74.0413 120.669 74.1285 120.227C74.3962 118.89 74.6921 117.559 75.0161 116.234C75.2805 115.139 75.5881 114.055 75.8812 112.968C75.9796 112.604 75.9813 112.263 75.7198 111.957C75.2805 111.445 74.3625 111.332 73.818 111.727L73.5772 111.863L73.6239 111.475C73.7386 110.643 73.7617 109.814 73.5333 108.995C73.2487 107.973 72.5197 107.385 71.46 107.418C70.9661 107.433 70.4475 107.517 69.9901 107.697C68.067 108.451 66.5881 109.786 65.3293 111.392C65.2126 111.541 65.0679 111.666 64.9035 111.76C63.2761 112.662 61.6438 113.553 60.012 114.447L58.1956 115.443C57.7085 114.978 57.2658 114.496 56.7635 114.087C55.2296 112.836 53.6709 111.616 52.1263 110.379C50.7571 109.283 49.4308 108.141 48.416 106.689C47.6611 105.609 47.1746 104.427 47.1279 103.092C47.0688 101.39 47.5515 99.8354 48.4177 98.3881C49.5258 96.5364 51.0373 95.0502 52.6989 93.7042C54.4567 92.2811 56.358 91.0728 58.3284 89.9697C61.0852 88.4268 63.9208 87.0611 66.9611 86.1594C70.0785 85.2346 73.2414 84.7053 76.5039 85.0743C77.7864 85.2194 79.0318 85.5131 80.1753 86.1403C81.0511 86.6201 81.7695 87.2484 82.1036 88.2305C82.4332 89.1969 82.4231 90.1762 82.1947 91.1577C81.7306 93.1456 80.6422 94.7842 79.2725 96.2484C77.0259 98.6486 74.2854 100.283 71.2001 101.362C69.4261 101.984 67.5804 102.377 65.7073 102.534C64.1722 102.663 62.6692 102.526 61.2157 101.993C60.2533 101.639 59.4151 101.098 58.7413 100.312C58.6209 100.172 58.4668 100.019 58.2423 100.151C58.0224 100.28 57.9836 100.49 58.0573 100.702C58.1805 101.054 58.2941 101.421 58.4859 101.736C58.968 102.526 59.6711 103.099 60.4451 103.591C61.9318 104.536 63.5934 104.854 65.3163 104.928C67.9308 105.041 70.4818 104.65 72.9967 103.949C76.5871 102.948 79.709 101.179 82.2127 98.3893C84.2973 96.0661 85.7863 93.4443 86.1052 90.2786C86.261 88.7334 86.0951 87.2197 85.3717 85.8101C84.587 84.2829 83.3394 83.1472 81.8476 82.3648C79.6753 81.2257 77.3308 80.5625 74.9109 80.5625H72.4865C69.5559 80.5625 66.7226 81.4023 63.9686 82.4041C61.884 83.1629 59.8398 84.0584 57.8553 85.0496C53.5336 87.209 49.509 89.8128 46.2031 93.3931C44.5561 95.1768 43.1617 97.145 42.3596 99.4625C42.1175 100.154 41.9089 100.858 41.7346 101.57M57.3941 121.827C57.2068 124.335 56.07 126.369 54.212 128.016C53.1669 128.941 51.9682 129.601 50.5721 129.832C50.0658 129.916 49.5478 129.936 49.0567 129.727C48.3564 129.427 48.1995 128.806 48.186 128.144C48.1651 127.089 48.5347 126.135 49.0415 125.227C49.703 124.043 50.6728 123.141 51.7083 122.298C53.3396 120.97 55.1092 119.846 56.9216 118.786L57.0583 118.729C57.3384 119.764 57.4717 120.786 57.3941 121.827V121.827ZM71.5455 110.926C71.4133 111.727 71.2479 112.529 71.0139 113.305C70.205 115.992 69.1661 118.596 68.0428 121.165C67.8352 121.64 67.5331 122.074 67.2705 122.524C67.2258 122.594 67.1723 122.657 67.1113 122.712C66.7861 123.033 66.4779 123.017 66.3136 122.596C66.1224 122.108 66.0048 121.586 65.9036 121.069C65.8355 120.722 65.8518 120.357 65.8305 120.002C65.8524 117.474 66.6236 115.177 67.932 113.038C68.4714 112.156 69.0586 111.316 69.9558 110.758C70.2349 110.584 70.5369 110.45 70.853 110.36C71.3311 110.226 71.6248 110.447 71.5455 110.926V110.926ZM81.2002 123.227L84.6703 119.175C84.8148 120.68 82.2571 123.684 81.2002 123.227ZM92.2831 120.501C92.0379 120.641 91.7707 120.742 91.5193 120.872C91.2892 120.992 91.2133 120.871 91.2065 120.673C91.2031 120.536 91.2208 120.399 91.2588 120.268C91.7274 118.615 92.5897 117.204 93.8728 116.057L93.9628 116.011C94.5731 117.718 93.8677 119.593 92.2831 120.501Z" fill="white"/>
</svg>
