<svg width="325" height="175" viewBox="0 0 325 175" fill="none" xmlns="http://www.w3.org/2000/svg">
<path d="M0.499946 3.72066e-05L324.5 0L0.499939 174.5L0.499946 3.72066e-05Z" fill="#007ACC"/>
<g style="mix-blend-mode:lighten">
<path d="M29 54.9551V86.2051H91.5V23.7051H29V54.9551ZM79.365 52.4551C80.8619 52.8025 82.2225 53.5854 83.275 54.7051C83.8544 55.3083 84.3581 55.9799 84.775 56.7051C84.775 56.7851 82.075 58.6101 80.43 59.6301C80.37 59.6701 80.13 59.4101 79.865 59.0151C79.5647 58.4969 79.138 58.0633 78.6248 57.7546C78.1115 57.446 77.5285 57.2724 76.93 57.2501C75.035 57.1201 73.815 58.1151 73.825 59.7501C73.8093 60.1571 73.9025 60.561 74.095 60.9201C74.51 61.7851 75.285 62.3001 77.715 63.3501C82.19 65.2751 84.105 66.5451 85.295 68.3501C86.625 70.3501 86.92 73.5801 86.02 75.9701C85.02 78.5701 82.57 80.3351 79.105 80.9201C77.5224 81.1013 75.9234 81.0845 74.345 80.8701C71.9361 80.4793 69.7139 79.3323 68 77.5951C67.425 76.9601 66.305 75.3051 66.375 75.1851C66.5575 75.0496 66.7497 74.9276 66.95 74.8201L69.25 73.5001L71.045 72.4601L71.42 73.0151C72.0529 73.9204 72.8583 74.6918 73.79 75.2851C75.79 76.3351 78.52 76.1901 79.87 74.9751C80.3233 74.5299 80.606 73.9398 80.6691 73.3076C80.7321 72.6753 80.5714 72.041 80.215 71.5151C79.715 70.8201 78.715 70.2351 75.92 69.0151C72.695 67.6251 71.305 66.7651 70.035 65.3951C69.2422 64.491 68.6568 63.4244 68.32 62.2701C68.0688 60.9513 68.0316 59.6007 68.21 58.2701C68.875 55.1551 71.21 52.9801 74.62 52.3351C76.1992 52.1397 77.7989 52.1835 79.365 52.4651V52.4551ZM64.695 55.0751V57.6351H56.58V80.7501H50.825V57.6301H42.69V55.1301C42.6682 54.2694 42.6915 53.4083 42.76 52.5501C42.79 52.5101 47.76 52.4901 53.76 52.5001H64.665L64.695 55.0751Z" fill="white"/>
</g>
</svg>
