<svg width="428" height="157" viewBox="0 0 428 157" fill="none" xmlns="http://www.w3.org/2000/svg">
<path d="M283.5 157H0L283.5 0H427.5L283.5 157Z" fill="url(#paint0_linear_39_190)"/>
<g opacity="0.6">
<path d="M271.383 70.3021L242.661 121.72C242.068 122.781 240.545 122.788 239.943 121.731L210.652 70.3071C209.996 69.1558 210.979 67.7614 212.282 67.9945L241.035 73.1397C241.218 73.1725 241.406 73.1722 241.589 73.1388L269.741 68.0019C271.039 67.7649 272.027 69.1486 271.383 70.3021Z" fill="white"/>
<path d="M254.731 61.246L233.476 65.4156C233.127 65.4841 232.868 65.7805 232.847 66.1362L231.54 88.2434C231.509 88.7642 231.987 89.1683 232.494 89.0511L238.412 87.6838C238.966 87.556 239.466 88.0442 239.352 88.6016L237.594 97.2207C237.476 97.8008 238.02 98.2968 238.585 98.1247L242.241 97.013C242.807 96.8408 243.352 97.3382 243.232 97.9187L240.438 111.457C240.263 112.304 241.388 112.766 241.857 112.04L242.171 111.555L259.49 76.9513C259.78 76.3719 259.28 75.7113 258.645 75.8341L252.553 77.011C251.981 77.1215 251.494 76.5878 251.656 76.0272L255.631 62.2294C255.793 61.6678 255.304 61.1336 254.731 61.246Z" fill="url(#paint1_linear_39_190)"/>
</g>
<defs>
<linearGradient id="paint0_linear_39_190" x1="202.5" y1="41.5" x2="286.5" y2="157" gradientUnits="userSpaceOnUse">
<stop stop-color="#49C9FF"/>
<stop offset="1" stop-color="#BE35FF"/>
</linearGradient>
<linearGradient id="paint1_linear_39_190" x1="239.385" y1="62.3781" x2="245.865" y2="106.785" gradientUnits="userSpaceOnUse">
<stop stop-color="#FFEA83"/>
<stop offset="0.0833333" stop-color="#FFDD35"/>
<stop offset="1" stop-color="#FFA800"/>
</linearGradient>
</defs>
</svg>
