<svg width="286" height="158" viewBox="0 0 286 158" fill="none" xmlns="http://www.w3.org/2000/svg">
<path d="M285.5 0.5L0 157.5L81 0.5H285.5Z" fill="#1C78C0"/>
<path d="M86.8313 65.3876L79.1625 69.725V66.3438L83.9438 63.7126L86.8375 65.3813L86.8313 65.3876ZM87.3563 64.9125V55.8375L84.55 57.4563V63.2876L87.375 64.9125H87.3563ZM70.8188 65.3876L78.4875 69.725V66.3438L73.7063 63.7188L70.8188 65.3876ZM70.2938 64.9125V55.8375L73.1 57.4563V63.2876L70.2938 64.9125ZM70.625 55.2501L78.4938 50.8V54.0625L73.45 56.8375H73.4125L70.625 55.2501ZM87.0313 55.2501L79.1625 50.8V54.0625L84.2 56.8313L84.25 56.875L87.0375 55.2688L87.0313 55.2501Z" fill="#8ED6FB"/>
<path d="M78.4875 65.575L73.775 62.9812V57.8437L78.4938 60.5688L78.4875 65.575ZM79.1625 65.575L83.8813 62.9812V57.8437L79.1625 60.5688V65.575ZM74.0938 57.25L78.825 54.65L83.5625 57.25L78.825 60L74.0938 57.25V57.25ZM98.3813 63.75H100.456L102.569 56.7062H100.55L99.3 61.7063L97.9625 56.7062H96.2125L94.8625 61.7063L93.6125 56.7062H91.6063L93.7063 63.75H95.7813L97.0875 59.2375L98.3813 63.75ZM102.675 60.25C102.651 60.7415 102.731 61.2325 102.91 61.6911C103.088 62.1498 103.361 62.5658 103.71 62.9123C104.06 63.2588 104.478 63.528 104.938 63.7024C105.398 63.8769 105.89 63.9527 106.381 63.925C106.968 63.9494 107.55 63.8189 108.07 63.5469C108.59 63.2748 109.029 62.8706 109.344 62.375L108.094 61.4437C107.9 61.7158 107.643 61.9365 107.344 62.0868C107.046 62.2371 106.715 62.3124 106.381 62.3063C106.154 62.3223 105.926 62.293 105.711 62.22C105.495 62.147 105.296 62.0318 105.126 61.8811C104.955 61.7304 104.817 61.5472 104.718 61.3423C104.619 61.1373 104.562 60.9147 104.55 60.6875H109.513V60.2812C109.513 57.9812 108.263 56.5312 106.094 56.5312C104.088 56.5312 102.644 58.1188 102.644 60.25H102.675ZM104.631 59.4812C104.646 59.0949 104.81 58.7293 105.088 58.4612C105.367 58.1931 105.738 58.0435 106.125 58.0437C106.318 58.0345 106.512 58.0644 106.693 58.1317C106.875 58.199 107.041 58.3023 107.182 58.4354C107.322 58.5685 107.435 58.7286 107.512 58.9062C107.589 59.0837 107.63 59.2751 107.631 59.4688L104.631 59.4812ZM110.256 63.75H112.006V63.0125C112.27 63.303 112.592 63.5336 112.952 63.6889C113.313 63.8441 113.702 63.9204 114.094 63.9125C116.113 63.9125 117.544 62.3938 117.544 60.225C117.544 58.0562 116.225 56.525 114.2 56.525C113.806 56.5123 113.414 56.5876 113.053 56.7455C112.692 56.9033 112.371 57.1397 112.113 57.4375V54H110.238V63.75H110.256ZM112.063 60.25C112.063 58.9313 112.844 58.175 113.869 58.175C114.894 58.175 115.675 59.025 115.675 60.25C115.675 61.475 114.919 62.2813 113.869 62.2813C113.615 62.2728 113.365 62.2128 113.135 62.1048C112.905 61.9969 112.699 61.8432 112.53 61.6532C112.361 61.4632 112.232 61.2409 112.152 60.9996C112.072 60.7584 112.041 60.5034 112.063 60.25V60.25ZM118.263 66.25H120.138V63C120.399 63.2934 120.721 63.5261 121.081 63.6816C121.442 63.8371 121.832 63.9116 122.225 63.9C124.244 63.9 125.569 62.3812 125.569 60.2C125.569 58.0187 124.144 56.5125 122.119 56.5125C121.725 56.5033 121.335 56.5802 120.974 56.7378C120.613 56.8954 120.292 57.13 120.031 57.425V56.6937H118.281V66.25H118.263ZM120.069 60.1875C120.047 59.9341 120.078 59.6791 120.158 59.4379C120.238 59.1966 120.367 58.9743 120.536 58.7843C120.705 58.5943 120.911 58.4406 121.141 58.3327C121.371 58.2247 121.621 58.1647 121.875 58.1562C122.925 58.1562 123.681 58.9375 123.681 60.1875C123.681 61.4375 122.956 62.2625 121.875 62.2625C120.794 62.2625 120.069 61.5063 120.069 60.1875ZM125.888 61.55C125.888 63.0313 127.1 63.9062 128.525 63.9062C128.839 63.9305 129.154 63.8873 129.449 63.7795C129.744 63.6717 130.013 63.5018 130.238 63.2812L130.356 63.7375H132V59.2812C132 57.7062 131.325 56.5187 129.063 56.5187C128.077 56.5323 127.116 56.8225 126.288 57.3562L126.988 58.6062C127.564 58.294 128.207 58.1226 128.863 58.1063C129.688 58.1063 130.113 58.525 130.113 59.1438V59.6C129.66 59.3439 129.145 59.2164 128.625 59.2312C126.981 59.2312 125.888 60.1687 125.888 61.5562V61.55ZM127.763 61.4937C127.763 60.9125 128.263 60.5125 128.975 60.5125C129.688 60.5125 130.225 60.875 130.225 61.4937C130.225 62.1125 129.675 62.5 128.975 62.5C128.275 62.5 127.725 62.1125 127.725 61.5312L127.763 61.4937ZM136.513 62.2625C135.986 62.2426 135.488 62.0217 135.12 61.6452C134.752 61.2687 134.542 60.7654 134.534 60.239C134.526 59.7126 134.72 59.2031 135.077 58.8156C135.433 58.4281 135.925 58.1921 136.45 58.1562C137.064 58.162 137.653 58.4037 138.094 58.8313L138.619 57.2688C137.983 56.774 137.199 56.5076 136.394 56.5125C135.9 56.4962 135.407 56.581 134.947 56.7617C134.487 56.9424 134.068 57.2152 133.717 57.5634C133.366 57.9116 133.09 58.3278 132.905 58.7865C132.72 59.2453 132.632 59.7369 132.644 60.2313C132.63 60.7239 132.719 61.2141 132.903 61.671C133.088 62.1279 133.365 62.5419 133.717 62.8868C134.069 63.2318 134.488 63.5004 134.949 63.6758C135.41 63.8512 135.901 63.9297 136.394 63.9062C137.2 63.9196 137.988 63.6572 138.625 63.1625L138.125 61.6437C137.681 62.0277 137.118 62.2483 136.531 62.2687L136.513 62.2625ZM139.306 63.75H141.181V60.1062L143.525 63.75H145.706L143.038 59.8938L145.538 56.7H143.45L141.188 59.6625V54H139.313V63.75H139.306Z" fill="white"/>
</svg>
